{"glyphs":{"0":{"ha":754,"x_min":76,"x_max":676,"o":"m 378 -19 q 210 22 276 -19 q 110 137 143 64 q 76 306 76 210 l 76 810 q 108 983 76 908 q 207 1099 140 1057 q 378 1140 274 1140 q 547 1099 481 1140 q 644 983 613 1057 q 676 810 676 908 l 676 306 q 643 137 676 210 q 543 22 610 64 q 378 -19 476 -19 m 378 169 q 432 193 415 169 q 454 249 449 217 q 460 310 460 282 l 460 806 q 455 869 460 836 q 433 927 450 903 q 378 951 417 951 q 322 927 339 951 q 299 869 304 903 q 294 806 294 836 l 294 310 q 300 249 294 282 q 324 193 306 217 q 378 169 342 169 z "},"1":{"ha":542,"x_min":33,"x_max":410,"o":"m 196 0 l 196 903 q 162 888 183 896 q 115 872 140 881 q 68 855 90 863 q 33 842 46 847 l 33 1000 q 78 1022 50 1008 q 139 1053 107 1036 q 199 1089 171 1069 q 243 1125 228 1108 l 410 1125 l 410 0 l 196 0 z "},"2":{"ha":703,"x_min":57,"x_max":663,"o":"m 57 0 l 57 151 l 331 572 q 388 663 361 619 q 433 751 415 706 q 450 847 450 796 q 429 930 450 901 q 369 958 408 958 q 306 935 328 958 q 275 875 283 913 q 267 793 267 838 l 267 740 l 57 740 l 57 796 q 88 974 57 896 q 187 1095 119 1051 q 364 1139 254 1139 q 588 1061 513 1139 q 663 843 663 983 q 642 717 663 775 q 587 606 621 660 q 514 496 553 553 l 297 169 l 632 169 l 632 0 l 57 0 z "},"3":{"ha":703,"x_min":53,"x_max":657,"o":"m 356 -19 q 177 23 243 -19 q 82 142 111 65 q 53 319 53 219 l 53 360 l 267 360 q 267 345 267 357 q 267 322 267 333 q 276 233 268 268 q 303 179 283 197 q 358 161 322 161 q 414 180 396 161 q 439 235 432 199 q 446 324 446 271 q 421 455 446 408 q 321 503 396 501 q 307 503 319 503 q 283 503 294 503 l 283 661 q 301 661 292 661 q 317 661 310 661 q 419 701 392 661 q 446 828 446 742 q 426 932 446 894 q 354 969 407 969 q 285 928 301 969 q 267 821 268 886 q 267 797 267 810 q 267 771 267 783 l 53 771 l 53 832 q 89 999 53 931 q 192 1104 125 1068 q 354 1140 258 1140 q 518 1106 450 1140 q 622 1004 586 1071 q 657 839 657 938 q 616 675 657 740 q 515 592 575 610 q 589 546 557 578 q 639 460 621 514 q 657 328 657 407 q 628 148 657 226 q 532 25 599 69 q 356 -19 465 -19 z "},"4":{"ha":715,"x_min":39,"x_max":690,"o":"m 381 0 l 381 263 l 39 263 l 39 431 l 332 1125 l 582 1125 l 582 426 l 690 426 l 690 263 l 582 263 l 582 0 l 381 0 m 208 426 l 381 426 l 381 904 l 208 426 z "},"5":{"ha":697,"x_min":61,"x_max":651,"o":"m 350 -19 q 169 24 232 -19 q 84 144 107 67 q 61 326 61 222 l 268 326 q 276 224 268 265 q 303 161 283 182 q 364 142 324 140 q 422 172 404 143 q 444 256 440 201 q 449 383 449 310 q 442 489 449 443 q 415 561 435 535 q 353 588 394 588 q 291 561 315 588 q 256 486 267 535 l 72 486 l 88 1125 l 604 1125 l 604 940 l 264 940 l 251 692 q 308 728 268 713 q 393 746 347 743 q 538 713 481 754 q 624 590 596 671 q 651 392 651 508 q 640 227 651 303 q 597 97 629 151 q 506 11 565 42 q 350 -19 446 -19 z "},"6":{"ha":738,"x_min":74,"x_max":679,"o":"m 378 -15 q 203 33 271 -15 q 105 164 136 81 q 74 354 74 247 l 74 754 q 99 951 74 864 q 190 1089 125 1039 q 376 1139 256 1139 q 542 1106 481 1139 q 632 1010 604 1074 q 660 853 660 946 q 660 844 660 849 q 661 835 661 839 l 458 835 q 444 940 458 906 q 378 975 431 975 q 326 954 344 975 q 299 884 307 933 q 292 749 292 835 l 292 633 q 348 681 310 664 q 436 699 386 697 q 578 659 525 701 q 656 542 632 617 q 679 375 679 468 q 651 172 679 261 q 558 34 624 83 q 378 -15 492 -15 m 381 144 q 433 168 415 144 q 456 235 450 192 q 463 339 463 278 q 459 441 463 397 q 438 510 456 485 q 378 535 419 535 q 341 527 358 535 q 311 508 324 519 q 292 483 299 496 l 292 304 q 299 226 292 263 q 326 167 307 189 q 381 144 346 144 z "},"7":{"ha":594,"x_min":28,"x_max":544,"o":"m 99 0 l 335 961 l 28 961 l 28 1125 l 544 1125 l 544 983 l 307 0 l 99 0 z "},"8":{"ha":717,"x_min":57,"x_max":663,"o":"m 358 -17 q 181 27 247 -17 q 85 150 114 71 q 57 331 57 229 q 65 417 57 376 q 90 490 74 457 q 131 549 107 524 q 189 592 156 575 q 109 685 143 625 q 74 839 75 746 q 104 999 72 932 q 200 1103 136 1067 q 358 1139 264 1139 q 517 1103 454 1139 q 611 999 581 1067 q 640 839 642 932 q 606 684 639 744 q 526 592 574 624 q 584 549 560 575 q 625 490 608 524 q 651 417 642 457 q 660 331 660 376 q 633 150 663 229 q 537 27 603 71 q 358 -17 471 -17 m 358 143 q 418 171 399 143 q 443 239 438 199 q 449 317 449 279 q 444 403 450 361 q 418 471 438 444 q 358 497 399 497 q 299 471 319 497 q 273 403 279 444 q 267 317 267 363 q 272 238 267 279 q 298 170 278 197 q 358 143 318 143 m 358 672 q 403 693 386 672 q 429 753 421 714 q 438 844 438 792 q 419 941 438 904 q 358 978 400 978 q 297 941 317 978 q 276 846 276 904 q 284 753 276 793 q 310 693 292 714 q 358 672 329 672 z "},"9":{"ha":736,"x_min":56,"x_max":660,"o":"m 358 -15 q 192 17 254 -15 q 101 115 129 50 q 74 272 74 179 q 74 281 74 276 q 74 289 74 285 l 276 289 q 291 183 276 218 q 360 149 306 149 q 411 169 393 149 q 436 240 429 190 q 443 375 443 290 l 443 490 q 386 443 424 460 q 300 425 349 426 q 156 469 210 424 q 78 590 101 514 q 56 760 56 667 q 85 960 56 875 q 181 1092 114 1044 q 358 1139 249 1139 q 532 1094 465 1139 q 629 968 599 1049 q 660 779 660 888 l 660 369 q 635 172 660 260 q 544 35 610 85 q 358 -15 479 -15 m 360 589 q 412 606 392 589 q 443 640 432 624 l 443 819 q 436 899 443 863 q 411 957 429 935 q 358 979 393 979 q 306 956 324 979 q 281 889 288 932 q 275 785 275 846 q 279 683 275 728 q 301 614 283 639 q 360 589 318 589 z "},"A":{"ha":747,"x_min":29,"x_max":718,"o":"m 29 0 l 247 1125 l 501 1125 l 718 0 l 506 0 l 465 247 l 288 247 l 244 0 l 29 0 m 308 388 l 443 388 l 375 842 l 308 388 z "},"Á":{"ha":747,"x_min":29,"x_max":718,"o":"m 29 0 l 247 1125 l 501 1125 l 718 0 l 506 0 l 465 247 l 288 247 l 244 0 l 29 0 m 308 388 l 443 388 l 375 842 l 308 388 m 308 1210 l 394 1488 l 607 1488 l 436 1210 l 308 1210 z "},"Ă":{"ha":747,"x_min":29,"x_max":718,"o":"m 29 0 l 247 1125 l 501 1125 l 718 0 l 506 0 l 465 247 l 288 247 l 244 0 l 29 0 m 308 388 l 443 388 l 375 842 l 308 388 m 375 1215 q 220 1270 276 1215 q 164 1425 164 1325 l 283 1425 q 304 1349 283 1375 q 375 1324 325 1324 q 445 1350 424 1324 q 467 1425 467 1376 l 585 1425 q 529 1270 585 1325 q 375 1215 474 1215 z "},"Ắ":{"ha":747,"x_min":29,"x_max":718,"o":"m 29 0 l 247 1125 l 501 1125 l 718 0 l 506 0 l 465 247 l 288 247 l 244 0 l 29 0 m 308 388 l 443 388 l 375 842 l 308 388 m 286 1471 l 383 1633 l 560 1633 l 408 1471 l 286 1471 m 375 1204 q 220 1260 276 1204 q 164 1415 164 1315 l 283 1415 q 304 1339 283 1364 q 375 1314 325 1314 q 445 1340 424 1314 q 467 1415 467 1365 l 585 1415 q 529 1260 585 1315 q 375 1204 474 1204 z "},"Ặ":{"ha":747,"x_min":29,"x_max":718,"o":"m 29 0 l 247 1125 l 501 1125 l 718 0 l 506 0 l 465 247 l 288 247 l 244 0 l 29 0 m 308 388 l 443 388 l 375 842 l 308 388 m 281 -279 l 281 -96 l 467 -96 l 467 -279 l 281 -279 m 375 1215 q 220 1270 276 1215 q 164 1425 164 1325 l 283 1425 q 304 1349 283 1375 q 375 1324 325 1324 q 445 1350 424 1324 q 467 1425 467 1376 l 585 1425 q 529 1270 585 1325 q 375 1215 474 1215 z "},"Ằ":{"ha":747,"x_min":29,"x_max":718,"o":"m 29 0 l 247 1125 l 501 1125 l 718 0 l 506 0 l 465 247 l 288 247 l 244 0 l 29 0 m 308 388 l 443 388 l 375 842 l 308 388 m 340 1471 l 189 1633 l 364 1633 l 461 1471 l 340 1471 m 375 1204 q 220 1260 276 1204 q 164 1415 164 1315 l 283 1415 q 304 1339 283 1364 q 375 1314 325 1314 q 445 1340 424 1314 q 467 1415 467 1365 l 585 1415 q 529 1260 585 1315 q 375 1204 474 1204 z "},"Ẳ":{"ha":747,"x_min":29,"x_max":718,"o":"m 29 0 l 247 1125 l 501 1125 l 718 0 l 506 0 l 465 247 l 288 247 l 244 0 l 29 0 m 308 388 l 443 388 l 375 842 l 308 388 m 390 1429 l 329 1494 q 369 1533 354 1514 q 385 1578 385 1551 q 367 1618 385 1604 q 319 1632 349 1632 q 283 1628 300 1632 q 250 1619 265 1625 l 250 1710 q 306 1725 278 1719 q 363 1731 333 1731 q 474 1697 431 1731 q 518 1596 518 1664 q 481 1495 518 1535 q 390 1429 443 1456 m 375 1215 q 220 1270 276 1215 q 164 1425 164 1325 l 283 1425 q 304 1349 283 1375 q 375 1324 325 1324 q 445 1350 424 1324 q 467 1425 467 1376 l 585 1425 q 529 1270 585 1325 q 375 1215 474 1215 z "},"Ẵ":{"ha":747,"x_min":29,"x_max":718,"o":"m 29 0 l 247 1125 l 501 1125 l 718 0 l 506 0 l 465 247 l 288 247 l 244 0 l 29 0 m 308 388 l 443 388 l 375 842 l 308 388 m 375 1215 q 220 1270 276 1215 q 164 1425 164 1325 l 283 1425 q 304 1349 283 1375 q 375 1324 325 1324 q 445 1350 424 1324 q 467 1425 467 1376 l 585 1425 q 529 1270 585 1325 q 375 1215 474 1215 m 486 1499 q 421 1515 450 1499 q 365 1548 392 1532 q 311 1564 339 1564 q 272 1548 282 1564 q 261 1507 261 1532 l 158 1507 q 169 1603 158 1561 q 206 1670 179 1646 q 281 1694 233 1694 q 342 1679 315 1694 q 396 1648 369 1664 q 451 1632 422 1632 q 485 1647 475 1632 q 496 1686 496 1661 l 592 1686 q 585 1599 592 1642 q 556 1527 579 1556 q 486 1499 533 1499 z "},"Ǎ":{"ha":747,"x_min":29,"x_max":718,"o":"m 29 0 l 247 1125 l 501 1125 l 718 0 l 506 0 l 465 247 l 288 247 l 244 0 l 29 0 m 308 388 l 443 388 l 375 842 l 308 388 m 274 1210 l 151 1465 l 303 1465 l 375 1310 l 447 1465 l 599 1465 l 476 1210 l 274 1210 z "},"Â":{"ha":747,"x_min":29,"x_max":718,"o":"m 29 0 l 247 1125 l 501 1125 l 718 0 l 506 0 l 465 247 l 288 247 l 244 0 l 29 0 m 308 388 l 443 388 l 375 842 l 308 388 m 156 1219 l 285 1481 l 463 1481 l 594 1219 l 440 1219 l 374 1385 l 308 1219 l 156 1219 z "},"Ấ":{"ha":747,"x_min":29,"x_max":793,"o":"m 29 0 l 247 1125 l 501 1125 l 718 0 l 506 0 l 465 247 l 288 247 l 244 0 l 29 0 m 308 388 l 443 388 l 375 842 l 308 388 m 156 1219 l 285 1447 l 463 1447 l 594 1219 l 444 1219 l 374 1358 l 304 1219 l 156 1219 m 560 1379 l 633 1547 l 793 1547 l 674 1379 l 560 1379 z "},"Ậ":{"ha":747,"x_min":29,"x_max":718,"o":"m 29 0 l 247 1125 l 501 1125 l 718 0 l 506 0 l 465 247 l 288 247 l 244 0 l 29 0 m 308 388 l 443 388 l 375 842 l 308 388 m 156 1219 l 285 1447 l 463 1447 l 594 1219 l 444 1219 l 374 1358 l 304 1219 l 156 1219 m 281 -279 l 281 -96 l 467 -96 l 467 -279 l 281 -279 z "},"Ầ":{"ha":747,"x_min":29,"x_max":718,"o":"m 29 0 l 247 1125 l 501 1125 l 718 0 l 506 0 l 465 247 l 288 247 l 244 0 l 29 0 m 308 388 l 443 388 l 375 842 l 308 388 m 156 1219 l 285 1447 l 463 1447 l 594 1219 l 444 1219 l 374 1358 l 304 1219 l 156 1219 m 599 1379 l 479 1547 l 640 1547 l 714 1379 l 599 1379 z "},"Ẩ":{"ha":747,"x_min":29,"x_max":739,"o":"m 29 0 l 247 1125 l 501 1125 l 718 0 l 506 0 l 465 247 l 288 247 l 244 0 l 29 0 m 308 388 l 443 388 l 375 842 l 308 388 m 613 1344 l 551 1410 q 592 1448 576 1429 q 607 1493 607 1467 q 589 1533 607 1519 q 542 1547 571 1547 q 503 1544 521 1547 q 472 1535 486 1540 l 472 1625 q 527 1640 500 1635 q 583 1646 554 1646 q 695 1613 651 1646 q 739 1511 739 1579 q 701 1408 739 1446 q 613 1344 664 1371 m 156 1219 l 285 1447 l 463 1447 l 594 1219 l 444 1219 l 374 1358 l 304 1219 l 156 1219 z "},"Ẫ":{"ha":747,"x_min":29,"x_max":718,"o":"m 29 0 l 247 1125 l 501 1125 l 718 0 l 506 0 l 465 247 l 288 247 l 244 0 l 29 0 m 308 388 l 443 388 l 375 842 l 308 388 m 156 1219 l 285 1447 l 463 1447 l 594 1219 l 444 1219 l 374 1358 l 304 1219 l 156 1219 m 486 1515 q 421 1532 450 1515 q 365 1565 392 1549 q 311 1581 339 1581 q 272 1565 282 1581 q 261 1524 261 1549 l 158 1524 q 169 1620 158 1578 q 206 1687 179 1663 q 281 1711 233 1711 q 342 1696 315 1711 q 396 1665 369 1681 q 451 1649 422 1649 q 485 1663 475 1649 q 496 1703 496 1678 l 592 1703 q 585 1615 592 1658 q 556 1544 579 1572 q 486 1515 533 1515 z "},"Ȁ":{"ha":747,"x_min":29,"x_max":718,"o":"m 29 0 l 247 1125 l 501 1125 l 718 0 l 506 0 l 465 247 l 288 247 l 244 0 l 29 0 m 308 388 l 443 388 l 375 842 l 308 388 m 215 1208 l 74 1486 l 240 1486 l 328 1208 l 215 1208 m 444 1208 l 322 1486 l 478 1486 l 554 1208 l 444 1208 z "},"Ä":{"ha":747,"x_min":29,"x_max":718,"o":"m 29 0 l 247 1125 l 501 1125 l 718 0 l 506 0 l 465 247 l 288 247 l 244 0 l 29 0 m 308 388 l 443 388 l 375 842 l 308 388 m 432 1253 l 432 1447 l 607 1447 l 607 1253 l 432 1253 m 143 1253 l 143 1447 l 318 1447 l 318 1253 l 143 1253 z "},"Ạ":{"ha":747,"x_min":29,"x_max":718,"o":"m 29 0 l 247 1125 l 501 1125 l 718 0 l 506 0 l 465 247 l 288 247 l 244 0 l 29 0 m 308 388 l 443 388 l 375 842 l 308 388 m 281 -279 l 281 -96 l 467 -96 l 467 -279 l 281 -279 z "},"À":{"ha":747,"x_min":29,"x_max":718,"o":"m 29 0 l 247 1125 l 501 1125 l 718 0 l 506 0 l 465 247 l 288 247 l 244 0 l 29 0 m 308 388 l 443 388 l 375 842 l 308 388 m 315 1210 l 143 1488 l 358 1488 l 442 1210 l 315 1210 z "},"Ả":{"ha":747,"x_min":29,"x_max":718,"o":"m 29 0 l 247 1125 l 501 1125 l 718 0 l 506 0 l 465 247 l 288 247 l 244 0 l 29 0 m 308 388 l 443 388 l 375 842 l 308 388 m 375 1196 l 306 1264 q 374 1302 346 1283 q 403 1351 403 1321 q 381 1390 403 1379 q 322 1401 358 1401 q 280 1399 301 1401 q 240 1392 258 1396 l 240 1482 q 375 1499 304 1499 q 458 1485 419 1499 q 519 1443 496 1472 q 542 1365 542 1414 q 519 1286 542 1318 q 458 1233 496 1254 q 375 1196 421 1213 z "},"Ȃ":{"ha":747,"x_min":29,"x_max":718,"o":"m 29 0 l 247 1125 l 501 1125 l 718 0 l 506 0 l 465 247 l 288 247 l 244 0 l 29 0 m 308 388 l 443 388 l 375 842 l 308 388 m 164 1228 q 189 1344 165 1296 q 260 1419 213 1393 q 375 1444 307 1444 q 491 1419 444 1444 q 562 1344 538 1393 q 586 1228 586 1296 l 467 1228 q 446 1310 467 1283 q 375 1336 425 1336 q 305 1310 326 1336 q 283 1228 283 1285 l 164 1228 z "},"Ā":{"ha":747,"x_min":29,"x_max":718,"o":"m 29 0 l 247 1125 l 501 1125 l 718 0 l 506 0 l 465 247 l 288 247 l 244 0 l 29 0 m 308 388 l 443 388 l 375 842 l 308 388 m 196 1253 l 196 1356 l 554 1356 l 554 1253 l 196 1253 z "},"Ą":{"ha":747,"x_min":29,"x_max":743,"o":"m 29 0 l 247 1125 l 501 1125 l 718 0 l 506 0 l 465 247 l 288 247 l 244 0 l 29 0 m 308 388 l 443 388 l 375 842 l 308 388 m 674 -353 q 600 -348 638 -353 q 531 -328 563 -343 q 478 -285 499 -314 q 458 -210 458 -257 q 476 -131 458 -171 q 520 -56 493 -90 q 576 0 547 -22 l 672 0 q 642 -52 657 -24 q 617 -110 626 -81 q 608 -171 608 -140 q 638 -233 608 -217 q 701 -249 667 -249 q 724 -248 713 -249 q 743 -246 735 -247 l 719 -349 q 699 -351 711 -350 q 674 -353 686 -353 z "},"Å":{"ha":747,"x_min":29,"x_max":718,"o":"m 29 0 l 247 1125 l 501 1125 l 718 0 l 506 0 l 465 247 l 288 247 l 244 0 l 29 0 m 308 388 l 443 388 l 375 842 l 308 388 m 374 1178 q 261 1217 308 1178 q 214 1331 214 1257 q 261 1444 214 1406 q 374 1483 308 1483 q 488 1444 440 1483 q 536 1331 536 1404 q 489 1217 536 1257 q 374 1178 442 1178 m 374 1257 q 427 1278 408 1257 q 446 1331 446 1300 q 427 1384 446 1363 q 374 1406 408 1406 q 322 1384 340 1406 q 303 1331 303 1363 q 322 1278 303 1300 q 374 1257 340 1257 z "},"Ǻ":{"ha":747,"x_min":29,"x_max":718,"o":"m 29 0 l 247 1125 l 501 1125 l 718 0 l 506 0 l 465 247 l 288 247 l 244 0 l 29 0 m 308 388 l 443 388 l 375 842 l 308 388 m 374 1178 q 261 1217 308 1178 q 214 1331 214 1257 q 261 1444 214 1406 q 374 1483 308 1483 q 488 1444 440 1483 q 536 1331 536 1404 q 489 1217 536 1257 q 374 1178 442 1178 m 374 1257 q 427 1278 408 1257 q 446 1331 446 1300 q 427 1384 446 1363 q 374 1406 408 1406 q 322 1384 340 1406 q 303 1331 303 1363 q 322 1278 303 1300 q 374 1257 340 1257 m 308 1547 l 394 1825 l 607 1825 l 436 1547 l 308 1547 z "},"Ã":{"ha":747,"x_min":29,"x_max":718,"o":"m 29 0 l 247 1125 l 501 1125 l 718 0 l 506 0 l 465 247 l 288 247 l 244 0 l 29 0 m 308 388 l 443 388 l 375 842 l 308 388 m 486 1260 q 421 1276 450 1260 q 365 1309 392 1293 q 311 1325 339 1325 q 272 1309 282 1325 q 261 1268 261 1293 l 158 1268 q 169 1365 158 1322 q 206 1431 179 1407 q 281 1456 233 1456 q 342 1440 315 1456 q 396 1409 369 1425 q 451 1393 422 1393 q 485 1408 475 1393 q 496 1447 496 1422 l 592 1447 q 585 1360 592 1403 q 556 1288 579 1317 q 486 1260 533 1260 z "},"Æ":{"ha":961,"x_min":-29,"x_max":932,"o":"m -29 0 l 457 1113 l 932 1113 l 932 954 l 686 954 l 686 663 l 860 663 l 860 501 l 686 501 l 686 157 l 932 157 l 932 0 l 486 0 l 486 246 l 299 246 l 199 0 l -29 0 m 347 392 l 486 392 l 486 763 l 347 392 z "},"Ǽ":{"ha":961,"x_min":-29,"x_max":932,"o":"m -29 0 l 457 1113 l 932 1113 l 932 954 l 686 954 l 686 663 l 860 663 l 860 501 l 686 501 l 686 157 l 932 157 l 932 0 l 486 0 l 486 246 l 299 246 l 199 0 l -29 0 m 347 392 l 486 392 l 486 763 l 347 392 m 519 1210 l 606 1488 l 818 1488 l 647 1210 l 519 1210 z "},"B":{"ha":797,"x_min":85,"x_max":750,"o":"m 85 0 l 85 1125 l 369 1125 q 506 1113 443 1125 q 616 1068 568 1100 q 690 980 664 1036 q 715 833 715 924 q 696 717 715 765 q 640 642 676 669 q 551 604 604 614 q 661 560 617 594 q 728 468 706 525 q 750 331 750 411 q 728 183 750 246 q 665 81 707 121 q 563 20 624 40 q 421 0 501 0 l 85 0 m 314 161 l 378 161 q 497 204 464 161 q 529 333 529 247 q 514 440 529 400 q 465 498 499 479 q 374 517 431 517 l 314 517 l 314 161 m 314 671 l 371 671 q 461 688 431 671 q 503 741 492 706 q 515 828 515 776 q 498 910 515 879 q 445 956 481 942 q 356 969 410 969 l 314 969 l 314 671 z "},"Ḃ":{"ha":797,"x_min":85,"x_max":750,"o":"m 85 0 l 85 1125 l 369 1125 q 506 1113 443 1125 q 616 1068 568 1100 q 690 980 664 1036 q 715 833 715 924 q 696 717 715 765 q 640 642 676 669 q 551 604 604 614 q 661 560 617 594 q 728 468 706 525 q 750 331 750 411 q 728 183 750 246 q 665 81 707 121 q 563 20 624 40 q 421 0 501 0 l 85 0 m 314 161 l 378 161 q 497 204 464 161 q 529 333 529 247 q 514 440 529 400 q 465 498 499 479 q 374 517 431 517 l 314 517 l 314 161 m 314 671 l 371 671 q 461 688 431 671 q 503 741 492 706 q 515 828 515 776 q 498 910 515 879 q 445 956 481 942 q 356 969 410 969 l 314 969 l 314 671 m 300 1233 l 300 1438 l 500 1438 l 500 1233 l 300 1233 z "},"C":{"ha":768,"x_min":68,"x_max":713,"o":"m 397 -15 q 199 32 272 -15 q 97 163 126 79 q 68 358 68 247 l 68 763 q 97 963 68 879 q 199 1093 126 1047 q 397 1139 272 1139 q 587 1099 518 1139 q 684 985 656 1058 q 713 814 713 911 l 713 719 l 490 719 l 490 825 q 486 898 490 864 q 463 953 482 932 q 399 975 444 975 q 332 953 353 975 q 306 895 311 931 q 300 817 300 860 l 300 306 q 308 223 300 258 q 337 169 315 188 q 399 150 358 150 q 462 172 443 150 q 485 229 481 193 q 490 306 490 265 l 490 415 l 713 415 l 713 322 q 685 148 713 224 q 589 28 657 72 q 397 -15 521 -15 z "},"Ć":{"ha":768,"x_min":68,"x_max":713,"o":"m 397 -15 q 199 32 272 -15 q 97 163 126 79 q 68 358 68 247 l 68 763 q 97 963 68 879 q 199 1093 126 1047 q 397 1139 272 1139 q 587 1099 518 1139 q 684 985 656 1058 q 713 814 713 911 l 713 719 l 490 719 l 490 825 q 486 898 490 864 q 463 953 482 932 q 399 975 444 975 q 332 953 353 975 q 306 895 311 931 q 300 817 300 860 l 300 306 q 308 223 300 258 q 337 169 315 188 q 399 150 358 150 q 462 172 443 150 q 485 229 481 193 q 490 306 490 265 l 490 415 l 713 415 l 713 322 q 685 148 713 224 q 589 28 657 72 q 397 -15 521 -15 m 326 1210 l 413 1488 l 625 1488 l 454 1210 l 326 1210 z "},"Č":{"ha":768,"x_min":68,"x_max":713,"o":"m 397 -15 q 199 32 272 -15 q 97 163 126 79 q 68 358 68 247 l 68 763 q 97 963 68 879 q 199 1093 126 1047 q 397 1139 272 1139 q 587 1099 518 1139 q 684 985 656 1058 q 713 814 713 911 l 713 719 l 490 719 l 490 825 q 486 898 490 864 q 463 953 482 932 q 399 975 444 975 q 332 953 353 975 q 306 895 311 931 q 300 817 300 860 l 300 306 q 308 223 300 258 q 337 169 315 188 q 399 150 358 150 q 462 172 443 150 q 485 229 481 193 q 490 306 490 265 l 490 415 l 713 415 l 713 322 q 685 148 713 224 q 589 28 657 72 q 397 -15 521 -15 m 292 1210 l 169 1465 l 321 1465 l 393 1310 l 465 1465 l 617 1465 l 494 1210 l 292 1210 z "},"Ç":{"ha":768,"x_min":68,"x_max":713,"o":"m 397 -15 q 199 32 272 -15 q 97 163 126 79 q 68 358 68 247 l 68 763 q 97 963 68 879 q 199 1093 126 1047 q 397 1139 272 1139 q 587 1099 518 1139 q 684 985 656 1058 q 713 814 713 911 l 713 719 l 490 719 l 490 825 q 486 898 490 864 q 463 953 482 932 q 399 975 444 975 q 332 953 353 975 q 306 895 311 931 q 300 817 300 860 l 300 306 q 308 223 300 258 q 337 169 315 188 q 399 150 358 150 q 462 172 443 150 q 485 229 481 193 q 490 306 490 265 l 490 415 l 713 415 l 713 322 q 685 148 713 224 q 589 28 657 72 q 397 -15 521 -15 m 411 -372 q 358 -368 385 -372 q 307 -356 332 -364 l 307 -264 q 344 -272 324 -268 q 385 -275 364 -275 q 446 -263 421 -275 q 471 -225 471 -251 q 452 -183 471 -199 q 405 -161 433 -168 q 344 -151 376 -154 l 344 0 l 425 0 l 425 -89 q 558 -124 508 -89 q 608 -228 608 -158 q 581 -311 608 -279 q 509 -358 554 -343 q 411 -372 464 -372 z "},"Ĉ":{"ha":768,"x_min":68,"x_max":713,"o":"m 397 -15 q 199 32 272 -15 q 97 163 126 79 q 68 358 68 247 l 68 763 q 97 963 68 879 q 199 1093 126 1047 q 397 1139 272 1139 q 587 1099 518 1139 q 684 985 656 1058 q 713 814 713 911 l 713 719 l 490 719 l 490 825 q 486 898 490 864 q 463 953 482 932 q 399 975 444 975 q 332 953 353 975 q 306 895 311 931 q 300 817 300 860 l 300 306 q 308 223 300 258 q 337 169 315 188 q 399 150 358 150 q 462 172 443 150 q 485 229 481 193 q 490 306 490 265 l 490 415 l 713 415 l 713 322 q 685 148 713 224 q 589 28 657 72 q 397 -15 521 -15 m 174 1219 l 303 1481 l 481 1481 l 613 1219 l 458 1219 l 392 1385 l 326 1219 l 174 1219 z "},"Ċ":{"ha":768,"x_min":68,"x_max":713,"o":"m 397 -15 q 199 32 272 -15 q 97 163 126 79 q 68 358 68 247 l 68 763 q 97 963 68 879 q 199 1093 126 1047 q 397 1139 272 1139 q 587 1099 518 1139 q 684 985 656 1058 q 713 814 713 911 l 713 719 l 490 719 l 490 825 q 486 898 490 864 q 463 953 482 932 q 399 975 444 975 q 332 953 353 975 q 306 895 311 931 q 300 817 300 860 l 300 306 q 308 223 300 258 q 337 169 315 188 q 399 150 358 150 q 462 172 443 150 q 485 229 481 193 q 490 306 490 265 l 490 415 l 713 415 l 713 322 q 685 148 713 224 q 589 28 657 72 q 397 -15 521 -15 m 293 1233 l 293 1438 l 493 1438 l 493 1233 l 293 1233 z "},"D":{"ha":796,"x_min":85,"x_max":729,"o":"m 85 0 l 85 1125 l 360 1125 q 583 1088 503 1125 q 696 973 663 1051 q 729 772 729 894 l 729 363 q 696 157 729 238 q 584 38 663 76 q 365 0 506 0 l 85 0 m 314 160 l 363 160 q 453 180 426 160 q 488 240 481 200 q 494 338 494 279 l 494 801 q 485 895 494 860 q 449 947 476 931 q 361 964 422 964 l 314 964 l 314 160 z "},"Ǳ":{"ha":1383,"x_min":85,"x_max":1347,"o":"m 85 0 l 85 1125 l 360 1125 q 583 1088 503 1125 q 696 973 663 1051 q 729 772 729 894 l 729 363 q 696 157 729 238 q 584 38 663 76 q 365 0 506 0 l 85 0 m 314 160 l 363 160 q 453 180 426 160 q 488 240 481 200 q 494 338 494 279 l 494 801 q 485 895 494 860 q 449 947 476 931 q 361 964 422 964 l 314 964 l 314 160 m 831 0 l 831 142 l 1117 969 l 844 969 l 844 1125 l 1346 1125 l 1346 1000 l 1051 156 l 1347 156 l 1347 0 l 831 0 z "},"Ǆ":{"ha":1385,"x_min":85,"x_max":1347,"o":"m 85 0 l 85 1125 l 360 1125 q 583 1088 503 1125 q 696 973 663 1051 q 729 772 729 894 l 729 363 q 696 157 729 238 q 584 38 663 76 q 365 0 506 0 l 85 0 m 314 160 l 363 160 q 453 180 426 160 q 488 240 481 200 q 494 338 494 279 l 494 801 q 485 895 494 860 q 449 947 476 931 q 361 964 422 964 l 314 964 l 314 160 m 831 0 l 831 142 l 1117 969 l 844 969 l 844 1125 l 1346 1125 l 1346 1000 l 1051 156 l 1347 156 l 1347 0 l 831 0 m 985 1210 l 863 1465 l 1014 1465 l 1086 1310 l 1158 1465 l 1310 1465 l 1188 1210 l 985 1210 z "},"Ð":{"ha":768,"x_min":11,"x_max":719,"o":"m 75 0 l 75 519 l 11 519 l 11 636 l 75 636 l 75 1125 l 351 1125 q 574 1088 494 1125 q 687 973 654 1051 q 719 772 719 894 l 719 363 q 687 157 719 238 q 575 38 654 76 q 357 0 496 0 l 75 0 m 304 160 l 354 160 q 444 180 417 160 q 479 240 472 200 q 486 338 486 279 l 486 801 q 478 895 486 860 q 442 947 469 931 q 353 964 414 964 l 304 964 l 304 636 l 368 636 l 368 519 l 304 519 l 304 160 z "},"Ď":{"ha":796,"x_min":85,"x_max":729,"o":"m 85 0 l 85 1125 l 360 1125 q 583 1088 503 1125 q 696 973 663 1051 q 729 772 729 894 l 729 363 q 696 157 729 238 q 584 38 663 76 q 365 0 506 0 l 85 0 m 314 160 l 363 160 q 453 180 426 160 q 488 240 481 200 q 494 338 494 279 l 494 801 q 485 895 494 860 q 449 947 476 931 q 361 964 422 964 l 314 964 l 314 160 m 297 1210 l 175 1465 l 326 1465 l 399 1310 l 471 1465 l 622 1465 l 500 1210 l 297 1210 z "},"Đ":{"ha":800,"x_min":19,"x_max":733,"o":"m 89 0 l 89 524 l 19 524 l 19 632 l 89 632 l 89 1125 l 365 1125 q 590 1088 510 1125 q 701 973 669 1051 q 733 772 733 894 l 733 363 q 701 157 733 238 q 589 38 668 76 q 371 0 510 0 l 89 0 m 314 160 l 372 160 q 463 180 435 160 q 497 240 490 200 q 504 338 504 279 l 504 801 q 496 895 504 860 q 459 947 488 931 q 371 964 431 964 l 314 964 l 314 632 l 386 632 l 386 524 l 314 524 l 314 160 z "},"Ḋ":{"ha":796,"x_min":85,"x_max":729,"o":"m 85 0 l 85 1125 l 360 1125 q 583 1088 503 1125 q 696 973 663 1051 q 729 772 729 894 l 729 363 q 696 157 729 238 q 584 38 663 76 q 365 0 506 0 l 85 0 m 314 160 l 363 160 q 453 180 426 160 q 488 240 481 200 q 494 338 494 279 l 494 801 q 485 895 494 860 q 449 947 476 931 q 361 964 422 964 l 314 964 l 314 160 m 299 1233 l 299 1438 l 499 1438 l 499 1233 l 299 1233 z "},"ǲ":{"ha":1328,"x_min":85,"x_max":1292,"o":"m 85 0 l 85 1125 l 360 1125 q 583 1088 503 1125 q 696 973 663 1051 q 729 772 729 894 l 729 363 q 696 157 729 238 q 584 38 663 76 q 365 0 506 0 l 85 0 m 314 160 l 363 160 q 453 180 426 160 q 488 240 481 200 q 494 338 494 279 l 494 801 q 485 895 494 860 q 449 947 476 931 q 361 964 422 964 l 314 964 l 314 160 m 843 0 l 843 136 l 1069 649 l 863 649 l 863 803 l 1289 803 l 1289 678 l 1061 154 l 1290 154 l 1290 0 l 843 0 z "},"ǅ":{"ha":1328,"x_min":85,"x_max":1292,"o":"m 85 0 l 85 1125 l 360 1125 q 583 1088 503 1125 q 696 973 663 1051 q 729 772 729 894 l 729 363 q 696 157 729 238 q 584 38 663 76 q 365 0 506 0 l 85 0 m 314 160 l 363 160 q 453 180 426 160 q 488 240 481 200 q 494 338 494 279 l 494 801 q 485 895 494 860 q 449 947 476 931 q 361 964 422 964 l 314 964 l 314 160 m 843 0 l 843 136 l 1069 649 l 863 649 l 863 803 l 1289 803 l 1289 678 l 1061 154 l 1290 154 l 1290 0 l 843 0 m 961 888 l 839 1143 l 990 1143 l 1063 988 l 1135 1143 l 1286 1143 l 1164 888 l 961 888 z "},"E":{"ha":608,"x_min":85,"x_max":578,"o":"m 85 0 l 85 1125 l 575 1125 l 575 967 l 314 967 l 314 668 l 515 668 l 515 508 l 314 508 l 314 156 l 578 156 l 578 0 l 85 0 z "},"É":{"ha":608,"x_min":85,"x_max":578,"o":"m 85 0 l 85 1125 l 575 1125 l 575 967 l 314 967 l 314 668 l 515 668 l 515 508 l 314 508 l 314 156 l 578 156 l 578 0 l 85 0 m 267 1210 l 353 1488 l 565 1488 l 394 1210 l 267 1210 z "},"Ĕ":{"ha":608,"x_min":85,"x_max":578,"o":"m 85 0 l 85 1125 l 575 1125 l 575 967 l 314 967 l 314 668 l 515 668 l 515 508 l 314 508 l 314 156 l 578 156 l 578 0 l 85 0 m 333 1215 q 178 1270 235 1215 q 122 1425 122 1325 l 242 1425 q 263 1349 242 1375 q 333 1324 283 1324 q 403 1350 382 1324 q 425 1425 425 1376 l 543 1425 q 488 1270 543 1325 q 333 1215 432 1215 z "},"Ě":{"ha":608,"x_min":85,"x_max":578,"o":"m 85 0 l 85 1125 l 575 1125 l 575 967 l 314 967 l 314 668 l 515 668 l 515 508 l 314 508 l 314 156 l 578 156 l 578 0 l 85 0 m 232 1210 l 110 1465 l 261 1465 l 333 1310 l 406 1465 l 557 1465 l 435 1210 l 232 1210 z "},"Ê":{"ha":608,"x_min":85,"x_max":578,"o":"m 85 0 l 85 1125 l 575 1125 l 575 967 l 314 967 l 314 668 l 515 668 l 515 508 l 314 508 l 314 156 l 578 156 l 578 0 l 85 0 m 114 1219 l 243 1481 l 421 1481 l 553 1219 l 399 1219 l 332 1385 l 267 1219 l 114 1219 z "},"Ế":{"ha":608,"x_min":85,"x_max":751,"o":"m 85 0 l 85 1125 l 575 1125 l 575 967 l 314 967 l 314 668 l 515 668 l 515 508 l 314 508 l 314 156 l 578 156 l 578 0 l 85 0 m 114 1219 l 243 1447 l 421 1447 l 553 1219 l 403 1219 l 332 1358 l 263 1219 l 114 1219 m 518 1379 l 592 1547 l 751 1547 l 632 1379 l 518 1379 z "},"Ệ":{"ha":608,"x_min":85,"x_max":578,"o":"m 85 0 l 85 1125 l 575 1125 l 575 967 l 314 967 l 314 668 l 515 668 l 515 508 l 314 508 l 314 156 l 578 156 l 578 0 l 85 0 m 114 1219 l 243 1447 l 421 1447 l 553 1219 l 403 1219 l 332 1358 l 263 1219 l 114 1219 m 213 -279 l 213 -96 l 399 -96 l 399 -279 l 213 -279 z "},"Ề":{"ha":608,"x_min":85,"x_max":672,"o":"m 85 0 l 85 1125 l 575 1125 l 575 967 l 314 967 l 314 668 l 515 668 l 515 508 l 314 508 l 314 156 l 578 156 l 578 0 l 85 0 m 114 1219 l 243 1447 l 421 1447 l 553 1219 l 403 1219 l 332 1358 l 263 1219 l 114 1219 m 557 1379 l 438 1547 l 599 1547 l 672 1379 l 557 1379 z "},"Ể":{"ha":608,"x_min":85,"x_max":697,"o":"m 85 0 l 85 1125 l 575 1125 l 575 967 l 314 967 l 314 668 l 515 668 l 515 508 l 314 508 l 314 156 l 578 156 l 578 0 l 85 0 m 571 1344 l 510 1410 q 550 1448 535 1429 q 565 1493 565 1467 q 547 1533 565 1519 q 500 1547 529 1547 q 462 1544 479 1547 q 431 1535 444 1540 l 431 1625 q 485 1640 458 1635 q 542 1646 513 1646 q 653 1613 610 1646 q 697 1511 697 1579 q 660 1408 697 1446 q 571 1344 622 1371 m 114 1219 l 243 1447 l 421 1447 l 553 1219 l 403 1219 l 332 1358 l 263 1219 l 114 1219 z "},"Ễ":{"ha":608,"x_min":85,"x_max":578,"o":"m 85 0 l 85 1125 l 575 1125 l 575 967 l 314 967 l 314 668 l 515 668 l 515 508 l 314 508 l 314 156 l 578 156 l 578 0 l 85 0 m 114 1219 l 243 1447 l 421 1447 l 553 1219 l 403 1219 l 332 1358 l 263 1219 l 114 1219 m 444 1515 q 379 1532 408 1515 q 324 1565 350 1549 q 269 1581 297 1581 q 230 1565 240 1581 q 219 1524 219 1549 l 117 1524 q 127 1620 117 1578 q 165 1687 138 1663 q 239 1711 192 1711 q 301 1696 274 1711 q 354 1665 328 1681 q 410 1649 381 1649 q 444 1663 433 1649 q 454 1703 454 1678 l 550 1703 q 544 1615 550 1658 q 515 1544 538 1572 q 444 1515 492 1515 z "},"Ȅ":{"ha":608,"x_min":31,"x_max":578,"o":"m 85 0 l 85 1125 l 575 1125 l 575 967 l 314 967 l 314 668 l 515 668 l 515 508 l 314 508 l 314 156 l 578 156 l 578 0 l 85 0 m 174 1208 l 32 1486 l 199 1486 l 286 1208 l 174 1208 m 403 1208 l 281 1486 l 436 1486 l 513 1208 l 403 1208 z "},"Ë":{"ha":608,"x_min":85,"x_max":578,"o":"m 85 0 l 85 1125 l 575 1125 l 575 967 l 314 967 l 314 668 l 515 668 l 515 508 l 314 508 l 314 156 l 578 156 l 578 0 l 85 0 m 390 1253 l 390 1447 l 565 1447 l 565 1253 l 390 1253 m 101 1253 l 101 1447 l 276 1447 l 276 1253 l 101 1253 z "},"Ė":{"ha":608,"x_min":85,"x_max":578,"o":"m 85 0 l 85 1125 l 575 1125 l 575 967 l 314 967 l 314 668 l 515 668 l 515 508 l 314 508 l 314 156 l 578 156 l 578 0 l 85 0 m 233 1233 l 233 1438 l 433 1438 l 433 1233 l 233 1233 z "},"Ẹ":{"ha":608,"x_min":85,"x_max":578,"o":"m 85 0 l 85 1125 l 575 1125 l 575 967 l 314 967 l 314 668 l 515 668 l 515 508 l 314 508 l 314 156 l 578 156 l 578 0 l 85 0 m 213 -279 l 213 -96 l 399 -96 l 399 -279 l 213 -279 z "},"È":{"ha":608,"x_min":85,"x_max":578,"o":"m 85 0 l 85 1125 l 575 1125 l 575 967 l 314 967 l 314 668 l 515 668 l 515 508 l 314 508 l 314 156 l 578 156 l 578 0 l 85 0 m 274 1210 l 101 1488 l 317 1488 l 400 1210 l 274 1210 z "},"Ẻ":{"ha":608,"x_min":85,"x_max":578,"o":"m 85 0 l 85 1125 l 575 1125 l 575 967 l 314 967 l 314 668 l 515 668 l 515 508 l 314 508 l 314 156 l 578 156 l 578 0 l 85 0 m 333 1196 l 264 1264 q 333 1302 304 1283 q 361 1351 361 1321 q 339 1390 361 1379 q 281 1401 317 1401 q 238 1399 260 1401 q 199 1392 217 1396 l 199 1482 q 333 1499 263 1499 q 416 1485 378 1499 q 477 1443 454 1472 q 500 1365 500 1414 q 477 1286 500 1318 q 417 1233 454 1254 q 333 1196 379 1213 z "},"Ȇ":{"ha":608,"x_min":85,"x_max":578,"o":"m 85 0 l 85 1125 l 575 1125 l 575 967 l 314 967 l 314 668 l 515 668 l 515 508 l 314 508 l 314 156 l 578 156 l 578 0 l 85 0 m 122 1228 q 147 1344 124 1296 q 218 1419 171 1393 q 333 1444 265 1444 q 449 1419 403 1444 q 520 1344 496 1393 q 544 1228 544 1296 l 425 1228 q 404 1310 425 1283 q 333 1336 383 1336 q 263 1310 285 1336 q 242 1228 242 1285 l 122 1228 z "},"Ē":{"ha":608,"x_min":85,"x_max":578,"o":"m 85 0 l 85 1125 l 575 1125 l 575 967 l 314 967 l 314 668 l 515 668 l 515 508 l 314 508 l 314 156 l 578 156 l 578 0 l 85 0 m 154 1253 l 154 1356 l 513 1356 l 513 1253 l 154 1253 z "},"Ę":{"ha":608,"x_min":85,"x_max":578,"o":"m 85 0 l 85 1125 l 575 1125 l 575 967 l 314 967 l 314 668 l 515 668 l 515 508 l 314 508 l 314 156 l 578 156 l 578 0 l 85 0 m 486 -353 q 413 -348 450 -353 q 343 -328 375 -343 q 291 -285 311 -314 q 271 -210 271 -257 q 288 -131 271 -171 q 333 -56 306 -90 q 389 0 360 -22 l 485 0 q 454 -52 469 -24 q 430 -110 439 -81 q 421 -171 421 -140 q 450 -233 421 -217 q 514 -249 479 -249 q 536 -248 525 -249 q 556 -246 547 -247 l 532 -349 q 511 -351 524 -350 q 486 -353 499 -353 z "},"Ẽ":{"ha":608,"x_min":85,"x_max":578,"o":"m 85 0 l 85 1125 l 575 1125 l 575 967 l 314 967 l 314 668 l 515 668 l 515 508 l 314 508 l 314 156 l 578 156 l 578 0 l 85 0 m 444 1260 q 379 1276 408 1260 q 324 1309 350 1293 q 269 1325 297 1325 q 230 1309 240 1325 q 219 1268 219 1293 l 117 1268 q 127 1365 117 1322 q 165 1431 138 1407 q 239 1456 192 1456 q 301 1440 274 1456 q 354 1409 328 1425 q 410 1393 381 1393 q 444 1408 433 1393 q 454 1447 454 1422 l 550 1447 q 544 1360 550 1403 q 515 1288 538 1317 q 444 1260 492 1260 z "},"Ʒ":{"ha":685,"x_min":33,"x_max":638,"o":"m 338 -19 q 158 23 225 -19 q 63 142 92 65 q 33 319 33 219 l 33 360 l 249 360 q 249 345 249 357 q 249 322 249 333 q 267 188 249 231 q 340 146 286 146 q 383 157 367 146 q 410 190 400 168 q 423 247 419 213 q 426 324 426 281 q 413 460 426 408 q 364 536 400 513 q 258 560 328 560 l 138 560 l 138 676 l 354 969 l 65 969 l 65 1125 l 592 1125 l 592 1000 l 315 633 l 267 686 l 357 686 q 531 640 469 686 q 615 514 592 594 q 638 328 638 433 q 608 148 638 226 q 513 25 579 69 q 338 -19 447 -19 z "},"Ǯ":{"ha":685,"x_min":33,"x_max":638,"o":"m 338 -19 q 158 23 225 -19 q 63 142 92 65 q 33 319 33 219 l 33 360 l 249 360 q 249 345 249 357 q 249 322 249 333 q 267 188 249 231 q 340 146 286 146 q 383 157 367 146 q 410 190 400 168 q 423 247 419 213 q 426 324 426 281 q 413 460 426 408 q 364 536 400 513 q 258 560 328 560 l 138 560 l 138 676 l 354 969 l 65 969 l 65 1125 l 592 1125 l 592 1000 l 315 633 l 267 686 l 357 686 q 531 640 469 686 q 615 514 592 594 q 638 328 638 433 q 608 148 638 226 q 513 25 579 69 q 338 -19 447 -19 m 242 1210 l 119 1465 l 271 1465 l 343 1310 l 415 1465 l 567 1465 l 444 1210 l 242 1210 z "},"F":{"ha":590,"x_min":85,"x_max":560,"o":"m 85 0 l 85 1125 l 560 1125 l 560 969 l 314 969 l 314 665 l 522 665 l 522 506 l 314 506 l 314 0 l 85 0 z "},"Ḟ":{"ha":590,"x_min":85,"x_max":560,"o":"m 85 0 l 85 1125 l 560 1125 l 560 969 l 314 969 l 314 665 l 522 665 l 522 506 l 314 506 l 314 0 l 85 0 m 196 1233 l 196 1438 l 396 1438 l 396 1233 l 196 1233 z "},"G":{"ha":794,"x_min":68,"x_max":722,"o":"m 372 -17 q 192 31 258 -17 q 97 167 125 79 q 68 372 68 256 l 68 749 q 97 957 68 869 q 199 1092 126 1044 q 397 1139 272 1139 q 588 1099 518 1139 q 689 985 658 1058 q 719 810 719 911 l 719 744 l 496 744 l 496 824 q 490 902 496 868 q 465 956 485 936 q 400 975 444 975 q 333 951 354 975 q 307 891 313 928 q 301 813 301 854 l 301 314 q 310 229 301 267 q 341 171 318 192 q 407 150 364 150 q 474 172 450 150 q 506 233 497 194 q 515 319 515 271 l 515 439 l 406 439 l 406 578 l 722 578 l 722 0 l 572 0 l 558 101 q 492 17 536 50 q 372 -17 447 -17 z "},"Ǵ":{"ha":794,"x_min":68,"x_max":722,"o":"m 372 -17 q 192 31 258 -17 q 97 167 125 79 q 68 372 68 256 l 68 749 q 97 957 68 869 q 199 1092 126 1044 q 397 1139 272 1139 q 588 1099 518 1139 q 689 985 658 1058 q 719 810 719 911 l 719 744 l 496 744 l 496 824 q 490 902 496 868 q 465 956 485 936 q 400 975 444 975 q 333 951 354 975 q 307 891 313 928 q 301 813 301 854 l 301 314 q 310 229 301 267 q 341 171 318 192 q 407 150 364 150 q 474 172 450 150 q 506 233 497 194 q 515 319 515 271 l 515 439 l 406 439 l 406 578 l 722 578 l 722 0 l 572 0 l 558 101 q 492 17 536 50 q 372 -17 447 -17 m 331 1210 l 417 1488 l 629 1488 l 458 1210 l 331 1210 z "},"Ğ":{"ha":794,"x_min":68,"x_max":722,"o":"m 372 -17 q 192 31 258 -17 q 97 167 125 79 q 68 372 68 256 l 68 749 q 97 957 68 869 q 199 1092 126 1044 q 397 1139 272 1139 q 588 1099 518 1139 q 689 985 658 1058 q 719 810 719 911 l 719 744 l 496 744 l 496 824 q 490 902 496 868 q 465 956 485 936 q 400 975 444 975 q 333 951 354 975 q 307 891 313 928 q 301 813 301 854 l 301 314 q 310 229 301 267 q 341 171 318 192 q 407 150 364 150 q 474 172 450 150 q 506 233 497 194 q 515 319 515 271 l 515 439 l 406 439 l 406 578 l 722 578 l 722 0 l 572 0 l 558 101 q 492 17 536 50 q 372 -17 447 -17 m 397 1215 q 242 1270 299 1215 q 186 1425 186 1325 l 306 1425 q 326 1349 306 1375 q 397 1324 347 1324 q 467 1350 446 1324 q 489 1425 489 1376 l 607 1425 q 551 1270 607 1325 q 397 1215 496 1215 z "},"Ǧ":{"ha":794,"x_min":68,"x_max":722,"o":"m 372 -17 q 192 31 258 -17 q 97 167 125 79 q 68 372 68 256 l 68 749 q 97 957 68 869 q 199 1092 126 1044 q 397 1139 272 1139 q 588 1099 518 1139 q 689 985 658 1058 q 719 810 719 911 l 719 744 l 496 744 l 496 824 q 490 902 496 868 q 465 956 485 936 q 400 975 444 975 q 333 951 354 975 q 307 891 313 928 q 301 813 301 854 l 301 314 q 310 229 301 267 q 341 171 318 192 q 407 150 364 150 q 474 172 450 150 q 506 233 497 194 q 515 319 515 271 l 515 439 l 406 439 l 406 578 l 722 578 l 722 0 l 572 0 l 558 101 q 492 17 536 50 q 372 -17 447 -17 m 296 1210 l 174 1465 l 325 1465 l 397 1310 l 469 1465 l 621 1465 l 499 1210 l 296 1210 z "},"Ĝ":{"ha":794,"x_min":68,"x_max":722,"o":"m 372 -17 q 192 31 258 -17 q 97 167 125 79 q 68 372 68 256 l 68 749 q 97 957 68 869 q 199 1092 126 1044 q 397 1139 272 1139 q 588 1099 518 1139 q 689 985 658 1058 q 719 810 719 911 l 719 744 l 496 744 l 496 824 q 490 902 496 868 q 465 956 485 936 q 400 975 444 975 q 333 951 354 975 q 307 891 313 928 q 301 813 301 854 l 301 314 q 310 229 301 267 q 341 171 318 192 q 407 150 364 150 q 474 172 450 150 q 506 233 497 194 q 515 319 515 271 l 515 439 l 406 439 l 406 578 l 722 578 l 722 0 l 572 0 l 558 101 q 492 17 536 50 q 372 -17 447 -17 m 178 1219 l 307 1481 l 485 1481 l 617 1219 l 463 1219 l 396 1385 l 331 1219 l 178 1219 z "},"Ģ":{"ha":794,"x_min":68,"x_max":722,"o":"m 372 -17 q 192 31 258 -17 q 97 167 125 79 q 68 372 68 256 l 68 749 q 97 957 68 869 q 199 1092 126 1044 q 397 1139 272 1139 q 588 1099 518 1139 q 689 985 658 1058 q 719 810 719 911 l 719 744 l 496 744 l 496 824 q 490 902 496 868 q 465 956 485 936 q 400 975 444 975 q 333 951 354 975 q 307 891 313 928 q 301 813 301 854 l 301 314 q 310 229 301 267 q 341 171 318 192 q 407 150 364 150 q 474 172 450 150 q 506 233 497 194 q 515 319 515 271 l 515 439 l 406 439 l 406 578 l 722 578 l 722 0 l 572 0 l 558 101 q 492 17 536 50 q 372 -17 447 -17 m 335 -474 l 313 -399 q 379 -370 351 -393 q 407 -292 407 -347 l 297 -292 l 297 -94 l 497 -94 l 496 -267 q 459 -417 496 -362 q 335 -474 422 -471 z "},"Ġ":{"ha":794,"x_min":68,"x_max":722,"o":"m 372 -17 q 192 31 258 -17 q 97 167 125 79 q 68 372 68 256 l 68 749 q 97 957 68 869 q 199 1092 126 1044 q 397 1139 272 1139 q 588 1099 518 1139 q 689 985 658 1058 q 719 810 719 911 l 719 744 l 496 744 l 496 824 q 490 902 496 868 q 465 956 485 936 q 400 975 444 975 q 333 951 354 975 q 307 891 313 928 q 301 813 301 854 l 301 314 q 310 229 301 267 q 341 171 318 192 q 407 150 364 150 q 474 172 450 150 q 506 233 497 194 q 515 319 515 271 l 515 439 l 406 439 l 406 578 l 722 578 l 722 0 l 572 0 l 558 101 q 492 17 536 50 q 372 -17 447 -17 m 297 1233 l 297 1438 l 497 1438 l 497 1233 l 297 1233 z "},"Ǥ":{"ha":794,"x_min":68,"x_max":800,"o":"m 444 268 l 444 385 l 800 385 l 800 268 l 444 268 m 372 -17 q 192 31 258 -17 q 97 167 125 79 q 68 372 68 256 l 68 749 q 97 957 68 869 q 199 1092 126 1044 q 397 1139 272 1139 q 588 1099 518 1139 q 689 985 658 1058 q 719 810 719 911 l 719 744 l 496 744 l 496 824 q 490 902 496 868 q 465 956 485 936 q 400 975 444 975 q 333 951 354 975 q 307 891 313 928 q 301 813 301 854 l 301 314 q 310 229 301 267 q 341 171 318 192 q 407 150 364 150 q 474 172 450 150 q 506 233 497 194 q 515 319 515 271 l 515 439 l 406 439 l 406 578 l 722 578 l 722 0 l 572 0 l 558 101 q 492 17 536 50 q 372 -17 447 -17 z "},"H":{"ha":833,"x_min":88,"x_max":744,"o":"m 88 0 l 88 1125 l 317 1125 l 317 663 l 515 663 l 515 1125 l 744 1125 l 744 0 l 515 0 l 515 499 l 317 499 l 317 0 l 88 0 z "},"Ħ":{"ha":756,"x_min":-10,"x_max":765,"o":"m 60 0 l 60 856 l -10 856 l -10 933 l 60 933 l 60 1125 l 289 1125 l 289 933 l 479 933 l 479 1125 l 708 1125 l 708 933 l 765 933 l 765 856 l 708 856 l 708 0 l 479 0 l 479 499 l 289 499 l 289 0 l 60 0 m 289 663 l 479 663 l 479 856 l 289 856 l 289 663 z "},"Ȟ":{"ha":833,"x_min":88,"x_max":744,"o":"m 88 0 l 88 1125 l 317 1125 l 317 663 l 515 663 l 515 1125 l 744 1125 l 744 0 l 515 0 l 515 499 l 317 499 l 317 0 l 88 0 m 315 1210 l 193 1465 l 344 1465 l 417 1310 l 489 1465 l 640 1465 l 518 1210 l 315 1210 z "},"Ĥ":{"ha":833,"x_min":88,"x_max":744,"o":"m 88 0 l 88 1125 l 317 1125 l 317 663 l 515 663 l 515 1125 l 744 1125 l 744 0 l 515 0 l 515 499 l 317 499 l 317 0 l 88 0 m 197 1219 l 326 1481 l 504 1481 l 636 1219 l 482 1219 l 415 1385 l 350 1219 l 197 1219 z "},"I":{"ha":403,"x_min":88,"x_max":315,"o":"m 88 0 l 88 1125 l 315 1125 l 315 0 l 88 0 z "},"Ĳ":{"ha":872,"x_min":88,"x_max":789,"o":"m 88 0 l 88 1125 l 315 1125 l 315 0 l 88 0 m 419 -29 l 419 132 q 488 137 460 132 q 531 155 515 142 q 553 193 546 168 q 560 258 560 218 l 560 1125 l 789 1125 l 789 249 q 767 94 789 156 q 688 1 744 32 q 531 -29 632 -29 l 419 -29 z "},"Í":{"ha":403,"x_min":88,"x_max":433,"o":"m 88 0 l 88 1125 l 315 1125 l 315 0 l 88 0 m 133 1210 l 219 1488 l 432 1488 l 261 1210 l 133 1210 z "},"Ĭ":{"ha":403,"x_min":-10,"x_max":411,"o":"m 88 0 l 88 1125 l 315 1125 l 315 0 l 88 0 m 201 1215 q 47 1270 103 1215 q -10 1425 -10 1325 l 110 1425 q 131 1349 110 1375 q 201 1324 151 1324 q 272 1350 250 1324 q 293 1425 293 1376 l 411 1425 q 356 1270 411 1325 q 201 1215 300 1215 z "},"Î":{"ha":403,"x_min":-19,"x_max":421,"o":"m 88 0 l 88 1125 l 315 1125 l 315 0 l 88 0 m -19 1219 l 110 1481 l 288 1481 l 419 1219 l 265 1219 l 199 1385 l 133 1219 l -19 1219 z "},"Ȉ":{"ha":403,"x_min":-101,"x_max":381,"o":"m 88 0 l 88 1125 l 315 1125 l 315 0 l 88 0 m 40 1208 l -101 1486 l 65 1486 l 153 1208 l 40 1208 m 269 1208 l 147 1486 l 303 1486 l 379 1208 l 269 1208 z "},"Ï":{"ha":403,"x_min":-31,"x_max":432,"o":"m 88 0 l 88 1125 l 315 1125 l 315 0 l 88 0 m 257 1253 l 257 1447 l 432 1447 l 432 1253 l 257 1253 m -32 1253 l -32 1447 l 143 1447 l 143 1253 l -32 1253 z "},"İ":{"ha":403,"x_min":88,"x_max":315,"o":"m 88 0 l 88 1125 l 315 1125 l 315 0 l 88 0 m 100 1233 l 100 1438 l 300 1438 l 300 1233 l 100 1233 z "},"Ị":{"ha":403,"x_min":88,"x_max":315,"o":"m 88 0 l 88 1125 l 315 1125 l 315 0 l 88 0 m 107 -279 l 107 -96 l 293 -96 l 293 -279 l 107 -279 z "},"Ì":{"ha":403,"x_min":-31,"x_max":315,"o":"m 88 0 l 88 1125 l 315 1125 l 315 0 l 88 0 m 140 1210 l -32 1488 l 183 1488 l 267 1210 l 140 1210 z "},"Ỉ":{"ha":403,"x_min":65,"x_max":367,"o":"m 88 0 l 88 1125 l 315 1125 l 315 0 l 88 0 m 200 1196 l 131 1264 q 199 1302 171 1283 q 228 1351 228 1321 q 206 1390 228 1379 q 147 1401 183 1401 q 105 1399 126 1401 q 65 1392 83 1396 l 65 1482 q 200 1499 129 1499 q 283 1485 244 1499 q 344 1443 321 1472 q 367 1365 367 1414 q 344 1286 367 1318 q 283 1233 321 1254 q 200 1196 246 1213 z "},"Ȋ":{"ha":403,"x_min":-10,"x_max":411,"o":"m 88 0 l 88 1125 l 315 1125 l 315 0 l 88 0 m -11 1228 q 14 1344 -10 1296 q 85 1419 38 1393 q 200 1444 132 1444 q 316 1419 269 1444 q 387 1344 363 1393 q 411 1228 411 1296 l 292 1228 q 271 1310 292 1283 q 200 1336 250 1336 q 130 1310 151 1336 q 108 1228 108 1285 l -11 1228 z "},"Ī":{"ha":403,"x_min":21,"x_max":381,"o":"m 88 0 l 88 1125 l 315 1125 l 315 0 l 88 0 m 21 1253 l 21 1356 l 379 1356 l 379 1253 l 21 1253 z "},"Į":{"ha":403,"x_min":38,"x_max":321,"o":"m 88 0 l 88 1125 l 315 1125 l 315 0 l 88 0 m 251 -353 q 178 -348 215 -353 q 108 -328 140 -343 q 56 -285 76 -314 q 36 -210 36 -257 q 53 -131 36 -171 q 98 -56 71 -90 q 154 0 125 -22 l 250 0 q 219 -52 235 -24 q 195 -110 204 -81 q 186 -171 186 -140 q 215 -233 186 -217 q 279 -249 244 -249 q 301 -248 290 -249 q 321 -246 313 -247 l 297 -349 q 276 -351 289 -350 q 251 -353 264 -353 z "},"Ĩ":{"ha":403,"x_min":-17,"x_max":418,"o":"m 88 0 l 88 1125 l 315 1125 l 315 0 l 88 0 m 311 1260 q 246 1276 275 1260 q 190 1309 217 1293 q 136 1325 164 1325 q 97 1309 107 1325 q 86 1268 86 1293 l -17 1268 q -6 1365 -17 1322 q 31 1431 4 1407 q 106 1456 58 1456 q 167 1440 140 1456 q 221 1409 194 1425 q 276 1393 247 1393 q 310 1408 300 1393 q 321 1447 321 1422 l 417 1447 q 410 1360 417 1403 q 381 1288 404 1317 q 311 1260 358 1260 z "},"J":{"ha":471,"x_min":17,"x_max":386,"o":"m 17 -29 l 17 132 q 85 137 57 132 q 128 155 113 142 q 150 193 143 168 q 157 258 157 218 l 157 1125 l 386 1125 l 386 249 q 364 94 386 156 q 285 1 342 32 q 128 -29 229 -29 l 17 -29 z "},"Ĵ":{"ha":471,"x_min":17,"x_max":492,"o":"m 17 -29 l 17 132 q 85 137 57 132 q 128 155 113 142 q 150 193 143 168 q 157 258 157 218 l 157 1125 l 386 1125 l 386 249 q 364 94 386 156 q 285 1 342 32 q 128 -29 229 -29 l 17 -29 m 53 1219 l 182 1481 l 360 1481 l 492 1219 l 338 1219 l 271 1385 l 206 1219 l 53 1219 z "},"K":{"ha":767,"x_min":85,"x_max":754,"o":"m 85 0 l 85 1125 l 314 1125 l 314 650 l 517 1125 l 739 1125 l 528 619 l 754 0 l 524 0 l 350 504 l 314 440 l 314 0 l 85 0 z "},"Ǩ":{"ha":767,"x_min":85,"x_max":754,"o":"m 85 0 l 85 1125 l 314 1125 l 314 650 l 517 1125 l 739 1125 l 528 619 l 754 0 l 524 0 l 350 504 l 314 440 l 314 0 l 85 0 m 297 1210 l 175 1465 l 326 1465 l 399 1310 l 471 1465 l 622 1465 l 500 1210 l 297 1210 z "},"Ķ":{"ha":767,"x_min":85,"x_max":754,"o":"m 85 0 l 85 1125 l 314 1125 l 314 650 l 517 1125 l 739 1125 l 528 619 l 754 0 l 524 0 l 350 504 l 314 440 l 314 0 l 85 0 m 321 -474 l 299 -399 q 365 -370 338 -393 q 393 -292 393 -347 l 283 -292 l 283 -94 l 483 -94 l 482 -267 q 445 -417 482 -362 q 321 -474 408 -471 z "},"L":{"ha":601,"x_min":85,"x_max":578,"o":"m 85 0 l 85 1125 l 314 1125 l 314 156 l 578 156 l 578 0 l 85 0 z "},"Ǉ":{"ha":1072,"x_min":85,"x_max":988,"o":"m 85 0 l 85 1125 l 314 1125 l 314 156 l 578 156 l 578 0 l 85 0 m 618 -29 l 618 132 q 686 137 658 132 q 729 155 714 142 q 751 193 744 168 q 758 258 758 218 l 758 1125 l 988 1125 l 988 249 q 965 94 988 156 q 887 1 943 32 q 729 -29 831 -29 l 618 -29 z "},"Ĺ":{"ha":601,"x_min":85,"x_max":578,"o":"m 85 0 l 85 1125 l 314 1125 l 314 156 l 578 156 l 578 0 l 85 0 m 132 1210 l 218 1488 l 431 1488 l 260 1210 l 132 1210 z "},"Ľ":{"ha":601,"x_min":85,"x_max":610,"o":"m 85 0 l 85 1125 l 314 1125 l 314 156 l 578 156 l 578 0 l 85 0 m 440 731 l 425 801 q 490 840 461 813 q 519 922 519 867 l 408 922 l 408 1125 l 610 1125 l 610 946 q 567 795 610 849 q 440 731 525 742 z "},"Ļ":{"ha":601,"x_min":85,"x_max":578,"o":"m 85 0 l 85 1125 l 314 1125 l 314 156 l 578 156 l 578 0 l 85 0 m 268 -474 l 246 -399 q 313 -370 285 -393 q 340 -292 340 -347 l 231 -292 l 231 -94 l 431 -94 l 429 -267 q 392 -417 429 -362 q 268 -474 356 -471 z "},"Ŀ":{"ha":601,"x_min":85,"x_max":578,"o":"m 85 0 l 85 1125 l 314 1125 l 314 156 l 578 156 l 578 0 l 85 0 m 428 526 l 428 725 l 572 725 l 572 526 l 428 526 z "},"ǈ":{"ha":971,"x_min":85,"x_max":903,"o":"m 85 0 l 85 1125 l 314 1125 l 314 156 l 578 156 l 578 0 l 85 0 m 697 -240 q 640 -236 668 -240 q 586 -224 611 -232 l 586 -74 q 606 -76 594 -75 q 626 -78 617 -78 q 663 -70 649 -78 q 684 -46 676 -62 q 692 -4 692 -29 l 692 803 l 901 803 l 901 -29 q 849 -182 901 -124 q 697 -240 797 -240 m 692 935 l 692 1092 l 901 1092 l 901 935 l 692 935 z "},"Ł":{"ha":610,"x_min":7,"x_max":586,"o":"m 93 0 l 93 503 l 7 461 l 7 594 l 93 636 l 93 1125 l 322 1125 l 322 746 l 460 814 l 460 682 l 322 614 l 322 156 l 586 156 l 586 0 l 93 0 z "},"M":{"ha":965,"x_min":81,"x_max":885,"o":"m 81 0 l 100 1125 l 343 1125 l 482 415 l 631 1125 l 865 1125 l 885 0 l 718 0 l 700 763 l 557 0 l 414 0 l 264 768 l 249 0 l 81 0 z "},"Ṁ":{"ha":965,"x_min":81,"x_max":885,"o":"m 81 0 l 100 1125 l 343 1125 l 482 415 l 631 1125 l 865 1125 l 885 0 l 718 0 l 700 763 l 557 0 l 414 0 l 264 768 l 249 0 l 81 0 m 382 1233 l 382 1438 l 582 1438 l 582 1233 l 382 1233 z "},"N":{"ha":769,"x_min":85,"x_max":683,"o":"m 85 0 l 85 1125 l 244 1125 l 494 539 l 494 1125 l 683 1125 l 683 0 l 531 0 l 281 622 l 281 0 l 85 0 z "},"Ǌ":{"ha":1240,"x_min":85,"x_max":1156,"o":"m 85 0 l 85 1125 l 244 1125 l 494 539 l 494 1125 l 683 1125 l 683 0 l 531 0 l 281 622 l 281 0 l 85 0 m 786 -29 l 786 132 q 854 137 826 132 q 897 155 882 142 q 919 193 913 168 q 926 258 926 218 l 926 1125 l 1156 1125 l 1156 249 q 1133 94 1156 156 q 1055 1 1111 32 q 897 -29 999 -29 l 786 -29 z "},"Ń":{"ha":769,"x_min":85,"x_max":683,"o":"m 85 0 l 85 1125 l 244 1125 l 494 539 l 494 1125 l 683 1125 l 683 0 l 531 0 l 281 622 l 281 0 l 85 0 m 318 1210 l 404 1488 l 617 1488 l 446 1210 l 318 1210 z "},"Ň":{"ha":769,"x_min":85,"x_max":683,"o":"m 85 0 l 85 1125 l 244 1125 l 494 539 l 494 1125 l 683 1125 l 683 0 l 531 0 l 281 622 l 281 0 l 85 0 m 283 1210 l 161 1465 l 313 1465 l 385 1310 l 457 1465 l 608 1465 l 486 1210 l 283 1210 z "},"Ņ":{"ha":769,"x_min":85,"x_max":683,"o":"m 85 0 l 85 1125 l 244 1125 l 494 539 l 494 1125 l 683 1125 l 683 0 l 531 0 l 281 622 l 281 0 l 85 0 m 322 -474 l 300 -399 q 367 -370 339 -393 q 394 -292 394 -347 l 285 -292 l 285 -94 l 485 -94 l 483 -267 q 447 -417 483 -362 q 322 -474 410 -471 z "},"Ŋ":{"ha":778,"x_min":88,"x_max":688,"o":"m 347 -282 l 347 -143 q 446 -131 411 -143 q 495 -91 481 -119 q 510 -14 510 -62 l 510 96 l 281 622 l 281 0 l 88 0 l 88 1125 l 249 1125 l 501 539 l 501 1125 l 688 1125 l 688 0 q 667 -156 688 -92 q 594 -251 647 -219 q 439 -282 540 -282 l 347 -282 z "},"ǋ":{"ha":1139,"x_min":85,"x_max":1069,"o":"m 85 0 l 85 1125 l 244 1125 l 494 539 l 494 1125 l 683 1125 l 683 0 l 531 0 l 281 622 l 281 0 l 85 0 m 865 -240 q 808 -236 836 -240 q 754 -224 779 -232 l 754 -74 q 774 -76 763 -75 q 794 -78 785 -78 q 831 -70 817 -78 q 852 -46 844 -62 q 860 -4 860 -29 l 860 803 l 1069 803 l 1069 -29 q 1017 -182 1069 -124 q 865 -240 965 -240 m 860 935 l 860 1092 l 1069 1092 l 1069 935 l 860 935 z "},"Ñ":{"ha":769,"x_min":85,"x_max":683,"o":"m 85 0 l 85 1125 l 244 1125 l 494 539 l 494 1125 l 683 1125 l 683 0 l 531 0 l 281 622 l 281 0 l 85 0 m 496 1260 q 431 1276 460 1260 q 375 1309 401 1293 q 321 1325 349 1325 q 281 1309 292 1325 q 271 1268 271 1293 l 168 1268 q 178 1365 168 1322 q 216 1431 189 1407 q 290 1456 243 1456 q 352 1440 325 1456 q 406 1409 379 1425 q 461 1393 432 1393 q 495 1408 485 1393 q 506 1447 506 1422 l 601 1447 q 595 1360 601 1403 q 566 1288 589 1317 q 496 1260 543 1260 z "},"O":{"ha":800,"x_min":68,"x_max":732,"o":"m 399 -15 q 203 29 275 -15 q 99 156 131 74 q 68 354 68 239 l 68 774 q 99 971 68 889 q 203 1096 131 1053 q 399 1139 275 1139 q 597 1095 524 1139 q 701 970 669 1051 q 732 774 732 889 l 732 354 q 701 156 732 239 q 597 29 669 74 q 399 -15 524 -15 m 399 150 q 464 170 443 150 q 492 224 485 190 q 499 297 499 258 l 499 829 q 492 901 499 868 q 464 955 485 935 q 399 975 443 975 q 336 955 357 975 q 308 901 315 935 q 301 829 301 868 l 301 297 q 308 224 301 258 q 335 170 314 190 q 399 150 356 150 z "},"Ó":{"ha":800,"x_min":68,"x_max":732,"o":"m 399 -15 q 203 29 275 -15 q 99 156 131 74 q 68 354 68 239 l 68 774 q 99 971 68 889 q 203 1096 131 1053 q 399 1139 275 1139 q 597 1095 524 1139 q 701 970 669 1051 q 732 774 732 889 l 732 354 q 701 156 732 239 q 597 29 669 74 q 399 -15 524 -15 m 399 150 q 464 170 443 150 q 492 224 485 190 q 499 297 499 258 l 499 829 q 492 901 499 868 q 464 955 485 935 q 399 975 443 975 q 336 955 357 975 q 308 901 315 935 q 301 829 301 868 l 301 297 q 308 224 301 258 q 335 170 314 190 q 399 150 356 150 m 333 1210 l 419 1488 l 632 1488 l 461 1210 l 333 1210 z "},"Ŏ":{"ha":800,"x_min":68,"x_max":732,"o":"m 399 -15 q 203 29 275 -15 q 99 156 131 74 q 68 354 68 239 l 68 774 q 99 971 68 889 q 203 1096 131 1053 q 399 1139 275 1139 q 597 1095 524 1139 q 701 970 669 1051 q 732 774 732 889 l 732 354 q 701 156 732 239 q 597 29 669 74 q 399 -15 524 -15 m 399 150 q 464 170 443 150 q 492 224 485 190 q 499 297 499 258 l 499 829 q 492 901 499 868 q 464 955 485 935 q 399 975 443 975 q 336 955 357 975 q 308 901 315 935 q 301 829 301 868 l 301 297 q 308 224 301 258 q 335 170 314 190 q 399 150 356 150 m 400 1215 q 245 1270 301 1215 q 189 1425 189 1325 l 308 1425 q 329 1349 308 1375 q 400 1324 350 1324 q 470 1350 449 1324 q 492 1425 492 1376 l 610 1425 q 554 1270 610 1325 q 400 1215 499 1215 z "},"Ô":{"ha":800,"x_min":68,"x_max":732,"o":"m 399 -15 q 203 29 275 -15 q 99 156 131 74 q 68 354 68 239 l 68 774 q 99 971 68 889 q 203 1096 131 1053 q 399 1139 275 1139 q 597 1095 524 1139 q 701 970 669 1051 q 732 774 732 889 l 732 354 q 701 156 732 239 q 597 29 669 74 q 399 -15 524 -15 m 399 150 q 464 170 443 150 q 492 224 485 190 q 499 297 499 258 l 499 829 q 492 901 499 868 q 464 955 485 935 q 399 975 443 975 q 336 955 357 975 q 308 901 315 935 q 301 829 301 868 l 301 297 q 308 224 301 258 q 335 170 314 190 q 399 150 356 150 m 181 1219 l 310 1481 l 488 1481 l 619 1219 l 465 1219 l 399 1385 l 333 1219 l 181 1219 z "},"Ố":{"ha":800,"x_min":68,"x_max":818,"o":"m 399 -15 q 203 29 275 -15 q 99 156 131 74 q 68 354 68 239 l 68 774 q 99 971 68 889 q 203 1096 131 1053 q 399 1139 275 1139 q 597 1095 524 1139 q 701 970 669 1051 q 732 774 732 889 l 732 354 q 701 156 732 239 q 597 29 669 74 q 399 -15 524 -15 m 399 150 q 464 170 443 150 q 492 224 485 190 q 499 297 499 258 l 499 829 q 492 901 499 868 q 464 955 485 935 q 399 975 443 975 q 336 955 357 975 q 308 901 315 935 q 301 829 301 868 l 301 297 q 308 224 301 258 q 335 170 314 190 q 399 150 356 150 m 181 1219 l 310 1447 l 488 1447 l 619 1219 l 469 1219 l 399 1358 l 329 1219 l 181 1219 m 585 1379 l 658 1547 l 818 1547 l 699 1379 l 585 1379 z "},"Ộ":{"ha":800,"x_min":68,"x_max":732,"o":"m 399 -15 q 203 29 275 -15 q 99 156 131 74 q 68 354 68 239 l 68 774 q 99 971 68 889 q 203 1096 131 1053 q 399 1139 275 1139 q 597 1095 524 1139 q 701 970 669 1051 q 732 774 732 889 l 732 354 q 701 156 732 239 q 597 29 669 74 q 399 -15 524 -15 m 399 150 q 464 170 443 150 q 492 224 485 190 q 499 297 499 258 l 499 829 q 492 901 499 868 q 464 955 485 935 q 399 975 443 975 q 336 955 357 975 q 308 901 315 935 q 301 829 301 868 l 301 297 q 308 224 301 258 q 335 170 314 190 q 399 150 356 150 m 181 1219 l 310 1447 l 488 1447 l 619 1219 l 469 1219 l 399 1358 l 329 1219 l 181 1219 m 307 -279 l 307 -96 l 493 -96 l 493 -279 l 307 -279 z "},"Ồ":{"ha":800,"x_min":68,"x_max":739,"o":"m 399 -15 q 203 29 275 -15 q 99 156 131 74 q 68 354 68 239 l 68 774 q 99 971 68 889 q 203 1096 131 1053 q 399 1139 275 1139 q 597 1095 524 1139 q 701 970 669 1051 q 732 774 732 889 l 732 354 q 701 156 732 239 q 597 29 669 74 q 399 -15 524 -15 m 399 150 q 464 170 443 150 q 492 224 485 190 q 499 297 499 258 l 499 829 q 492 901 499 868 q 464 955 485 935 q 399 975 443 975 q 336 955 357 975 q 308 901 315 935 q 301 829 301 868 l 301 297 q 308 224 301 258 q 335 170 314 190 q 399 150 356 150 m 181 1219 l 310 1447 l 488 1447 l 619 1219 l 469 1219 l 399 1358 l 329 1219 l 181 1219 m 624 1379 l 504 1547 l 665 1547 l 739 1379 l 624 1379 z "},"Ổ":{"ha":800,"x_min":68,"x_max":764,"o":"m 399 -15 q 203 29 275 -15 q 99 156 131 74 q 68 354 68 239 l 68 774 q 99 971 68 889 q 203 1096 131 1053 q 399 1139 275 1139 q 597 1095 524 1139 q 701 970 669 1051 q 732 774 732 889 l 732 354 q 701 156 732 239 q 597 29 669 74 q 399 -15 524 -15 m 399 150 q 464 170 443 150 q 492 224 485 190 q 499 297 499 258 l 499 829 q 492 901 499 868 q 464 955 485 935 q 399 975 443 975 q 336 955 357 975 q 308 901 315 935 q 301 829 301 868 l 301 297 q 308 224 301 258 q 335 170 314 190 q 399 150 356 150 m 638 1344 l 576 1410 q 617 1448 601 1429 q 632 1493 632 1467 q 614 1533 632 1519 q 567 1547 596 1547 q 528 1544 546 1547 q 497 1535 511 1540 l 497 1625 q 552 1640 525 1635 q 608 1646 579 1646 q 720 1613 676 1646 q 764 1511 764 1579 q 726 1408 764 1446 q 638 1344 689 1371 m 181 1219 l 310 1447 l 488 1447 l 619 1219 l 469 1219 l 399 1358 l 329 1219 l 181 1219 z "},"Ỗ":{"ha":800,"x_min":68,"x_max":732,"o":"m 399 -15 q 203 29 275 -15 q 99 156 131 74 q 68 354 68 239 l 68 774 q 99 971 68 889 q 203 1096 131 1053 q 399 1139 275 1139 q 597 1095 524 1139 q 701 970 669 1051 q 732 774 732 889 l 732 354 q 701 156 732 239 q 597 29 669 74 q 399 -15 524 -15 m 399 150 q 464 170 443 150 q 492 224 485 190 q 499 297 499 258 l 499 829 q 492 901 499 868 q 464 955 485 935 q 399 975 443 975 q 336 955 357 975 q 308 901 315 935 q 301 829 301 868 l 301 297 q 308 224 301 258 q 335 170 314 190 q 399 150 356 150 m 181 1219 l 310 1447 l 488 1447 l 619 1219 l 469 1219 l 399 1358 l 329 1219 l 181 1219 m 511 1515 q 446 1532 475 1515 q 390 1565 417 1549 q 336 1581 364 1581 q 297 1565 307 1581 q 286 1524 286 1549 l 183 1524 q 194 1620 183 1578 q 231 1687 204 1663 q 306 1711 258 1711 q 367 1696 340 1711 q 421 1665 394 1681 q 476 1649 447 1649 q 510 1663 500 1649 q 521 1703 521 1678 l 617 1703 q 610 1615 617 1658 q 581 1544 604 1572 q 511 1515 558 1515 z "},"Ȍ":{"ha":800,"x_min":68,"x_max":732,"o":"m 399 -15 q 203 29 275 -15 q 99 156 131 74 q 68 354 68 239 l 68 774 q 99 971 68 889 q 203 1096 131 1053 q 399 1139 275 1139 q 597 1095 524 1139 q 701 970 669 1051 q 732 774 732 889 l 732 354 q 701 156 732 239 q 597 29 669 74 q 399 -15 524 -15 m 399 150 q 464 170 443 150 q 492 224 485 190 q 499 297 499 258 l 499 829 q 492 901 499 868 q 464 955 485 935 q 399 975 443 975 q 336 955 357 975 q 308 901 315 935 q 301 829 301 868 l 301 297 q 308 224 301 258 q 335 170 314 190 q 399 150 356 150 m 240 1208 l 99 1486 l 265 1486 l 353 1208 l 240 1208 m 469 1208 l 347 1486 l 503 1486 l 579 1208 l 469 1208 z "},"Ö":{"ha":800,"x_min":68,"x_max":732,"o":"m 399 -15 q 203 29 275 -15 q 99 156 131 74 q 68 354 68 239 l 68 774 q 99 971 68 889 q 203 1096 131 1053 q 399 1139 275 1139 q 597 1095 524 1139 q 701 970 669 1051 q 732 774 732 889 l 732 354 q 701 156 732 239 q 597 29 669 74 q 399 -15 524 -15 m 399 150 q 464 170 443 150 q 492 224 485 190 q 499 297 499 258 l 499 829 q 492 901 499 868 q 464 955 485 935 q 399 975 443 975 q 336 955 357 975 q 308 901 315 935 q 301 829 301 868 l 301 297 q 308 224 301 258 q 335 170 314 190 q 399 150 356 150 m 457 1253 l 457 1447 l 632 1447 l 632 1253 l 457 1253 m 168 1253 l 168 1447 l 343 1447 l 343 1253 l 168 1253 z "},"Ȫ":{"ha":800,"x_min":68,"x_max":732,"o":"m 399 -15 q 203 29 275 -15 q 99 156 131 74 q 68 354 68 239 l 68 774 q 99 971 68 889 q 203 1096 131 1053 q 399 1139 275 1139 q 597 1095 524 1139 q 701 970 669 1051 q 732 774 732 889 l 732 354 q 701 156 732 239 q 597 29 669 74 q 399 -15 524 -15 m 399 150 q 464 170 443 150 q 492 224 485 190 q 499 297 499 258 l 499 829 q 492 901 499 868 q 464 955 485 935 q 399 975 443 975 q 336 955 357 975 q 308 901 315 935 q 301 829 301 868 l 301 297 q 308 224 301 258 q 335 170 314 190 q 399 150 356 150 m 457 1253 l 457 1447 l 632 1447 l 632 1253 l 457 1253 m 168 1253 l 168 1447 l 343 1447 l 343 1253 l 168 1253 m 221 1575 l 221 1678 l 579 1678 l 579 1575 l 221 1575 z "},"Ȱ":{"ha":800,"x_min":68,"x_max":732,"o":"m 399 -15 q 203 29 275 -15 q 99 156 131 74 q 68 354 68 239 l 68 774 q 99 971 68 889 q 203 1096 131 1053 q 399 1139 275 1139 q 597 1095 524 1139 q 701 970 669 1051 q 732 774 732 889 l 732 354 q 701 156 732 239 q 597 29 669 74 q 399 -15 524 -15 m 399 150 q 464 170 443 150 q 492 224 485 190 q 499 297 499 258 l 499 829 q 492 901 499 868 q 464 955 485 935 q 399 975 443 975 q 336 955 357 975 q 308 901 315 935 q 301 829 301 868 l 301 297 q 308 224 301 258 q 335 170 314 190 q 399 150 356 150 m 300 1233 l 300 1438 l 500 1438 l 500 1233 l 300 1233 m 221 1565 l 221 1668 l 579 1668 l 579 1565 l 221 1565 z "},"Ọ":{"ha":800,"x_min":68,"x_max":732,"o":"m 399 -15 q 203 29 275 -15 q 99 156 131 74 q 68 354 68 239 l 68 774 q 99 971 68 889 q 203 1096 131 1053 q 399 1139 275 1139 q 597 1095 524 1139 q 701 970 669 1051 q 732 774 732 889 l 732 354 q 701 156 732 239 q 597 29 669 74 q 399 -15 524 -15 m 399 150 q 464 170 443 150 q 492 224 485 190 q 499 297 499 258 l 499 829 q 492 901 499 868 q 464 955 485 935 q 399 975 443 975 q 336 955 357 975 q 308 901 315 935 q 301 829 301 868 l 301 297 q 308 224 301 258 q 335 170 314 190 q 399 150 356 150 m 307 -279 l 307 -96 l 493 -96 l 493 -279 l 307 -279 z "},"Ò":{"ha":800,"x_min":68,"x_max":732,"o":"m 399 -15 q 203 29 275 -15 q 99 156 131 74 q 68 354 68 239 l 68 774 q 99 971 68 889 q 203 1096 131 1053 q 399 1139 275 1139 q 597 1095 524 1139 q 701 970 669 1051 q 732 774 732 889 l 732 354 q 701 156 732 239 q 597 29 669 74 q 399 -15 524 -15 m 399 150 q 464 170 443 150 q 492 224 485 190 q 499 297 499 258 l 499 829 q 492 901 499 868 q 464 955 485 935 q 399 975 443 975 q 336 955 357 975 q 308 901 315 935 q 301 829 301 868 l 301 297 q 308 224 301 258 q 335 170 314 190 q 399 150 356 150 m 340 1210 l 168 1488 l 383 1488 l 467 1210 l 340 1210 z "},"Ỏ":{"ha":800,"x_min":68,"x_max":732,"o":"m 399 -15 q 203 29 275 -15 q 99 156 131 74 q 68 354 68 239 l 68 774 q 99 971 68 889 q 203 1096 131 1053 q 399 1139 275 1139 q 597 1095 524 1139 q 701 970 669 1051 q 732 774 732 889 l 732 354 q 701 156 732 239 q 597 29 669 74 q 399 -15 524 -15 m 399 150 q 464 170 443 150 q 492 224 485 190 q 499 297 499 258 l 499 829 q 492 901 499 868 q 464 955 485 935 q 399 975 443 975 q 336 955 357 975 q 308 901 315 935 q 301 829 301 868 l 301 297 q 308 224 301 258 q 335 170 314 190 q 399 150 356 150 m 400 1196 l 331 1264 q 399 1302 371 1283 q 428 1351 428 1321 q 406 1390 428 1379 q 347 1401 383 1401 q 305 1399 326 1401 q 265 1392 283 1396 l 265 1482 q 400 1499 329 1499 q 483 1485 444 1499 q 544 1443 521 1472 q 567 1365 567 1414 q 544 1286 567 1318 q 483 1233 521 1254 q 400 1196 446 1213 z "},"Ơ":{"ha":800,"x_min":68,"x_max":732,"o":"m 399 -15 q 203 29 275 -15 q 99 156 131 74 q 68 354 68 239 l 68 774 q 99 971 68 889 q 203 1096 131 1053 q 399 1139 275 1139 q 597 1095 524 1139 q 701 970 669 1051 q 732 774 732 889 l 732 354 q 701 156 732 239 q 597 29 669 74 q 399 -15 524 -15 m 399 150 q 464 170 443 150 q 492 224 485 190 q 499 297 499 258 l 499 829 q 492 901 499 868 q 464 955 485 935 q 399 975 443 975 q 336 955 357 975 q 308 901 315 935 q 301 829 301 868 l 301 297 q 308 224 301 258 q 335 170 314 190 q 399 150 356 150 m 469 1038 l 469 1125 l 497 1125 q 556 1154 539 1125 q 572 1240 572 1183 l 721 1240 q 660 1088 721 1139 q 497 1038 599 1038 l 469 1038 z "},"Ớ":{"ha":800,"x_min":68,"x_max":732,"o":"m 399 -15 q 203 29 275 -15 q 99 156 131 74 q 68 354 68 239 l 68 774 q 99 971 68 889 q 203 1096 131 1053 q 399 1139 275 1139 q 597 1095 524 1139 q 701 970 669 1051 q 732 774 732 889 l 732 354 q 701 156 732 239 q 597 29 669 74 q 399 -15 524 -15 m 399 150 q 464 170 443 150 q 492 224 485 190 q 499 297 499 258 l 499 829 q 492 901 499 868 q 464 955 485 935 q 399 975 443 975 q 336 955 357 975 q 308 901 315 935 q 301 829 301 868 l 301 297 q 308 224 301 258 q 335 170 314 190 q 399 150 356 150 m 469 1038 l 469 1125 l 497 1125 q 556 1154 539 1125 q 572 1240 572 1183 l 721 1240 q 660 1088 721 1139 q 497 1038 599 1038 l 469 1038 m 333 1210 l 419 1488 l 632 1488 l 461 1210 l 333 1210 z "},"Ợ":{"ha":800,"x_min":68,"x_max":732,"o":"m 399 -15 q 203 29 275 -15 q 99 156 131 74 q 68 354 68 239 l 68 774 q 99 971 68 889 q 203 1096 131 1053 q 399 1139 275 1139 q 597 1095 524 1139 q 701 970 669 1051 q 732 774 732 889 l 732 354 q 701 156 732 239 q 597 29 669 74 q 399 -15 524 -15 m 399 150 q 464 170 443 150 q 492 224 485 190 q 499 297 499 258 l 499 829 q 492 901 499 868 q 464 955 485 935 q 399 975 443 975 q 336 955 357 975 q 308 901 315 935 q 301 829 301 868 l 301 297 q 308 224 301 258 q 335 170 314 190 q 399 150 356 150 m 469 1038 l 469 1125 l 497 1125 q 556 1154 539 1125 q 572 1240 572 1183 l 721 1240 q 660 1088 721 1139 q 497 1038 599 1038 l 469 1038 m 307 -279 l 307 -96 l 493 -96 l 493 -279 l 307 -279 z "},"Ờ":{"ha":800,"x_min":68,"x_max":732,"o":"m 399 -15 q 203 29 275 -15 q 99 156 131 74 q 68 354 68 239 l 68 774 q 99 971 68 889 q 203 1096 131 1053 q 399 1139 275 1139 q 597 1095 524 1139 q 701 970 669 1051 q 732 774 732 889 l 732 354 q 701 156 732 239 q 597 29 669 74 q 399 -15 524 -15 m 399 150 q 464 170 443 150 q 492 224 485 190 q 499 297 499 258 l 499 829 q 492 901 499 868 q 464 955 485 935 q 399 975 443 975 q 336 955 357 975 q 308 901 315 935 q 301 829 301 868 l 301 297 q 308 224 301 258 q 335 170 314 190 q 399 150 356 150 m 469 1038 l 469 1125 l 497 1125 q 556 1154 539 1125 q 572 1240 572 1183 l 721 1240 q 660 1088 721 1139 q 497 1038 599 1038 l 469 1038 m 340 1210 l 168 1488 l 383 1488 l 467 1210 l 340 1210 z "},"Ở":{"ha":800,"x_min":68,"x_max":732,"o":"m 399 -15 q 203 29 275 -15 q 99 156 131 74 q 68 354 68 239 l 68 774 q 99 971 68 889 q 203 1096 131 1053 q 399 1139 275 1139 q 597 1095 524 1139 q 701 970 669 1051 q 732 774 732 889 l 732 354 q 701 156 732 239 q 597 29 669 74 q 399 -15 524 -15 m 399 150 q 464 170 443 150 q 492 224 485 190 q 499 297 499 258 l 499 829 q 492 901 499 868 q 464 955 485 935 q 399 975 443 975 q 336 955 357 975 q 308 901 315 935 q 301 829 301 868 l 301 297 q 308 224 301 258 q 335 170 314 190 q 399 150 356 150 m 469 1038 l 469 1125 l 497 1125 q 556 1154 539 1125 q 572 1240 572 1183 l 721 1240 q 660 1088 721 1139 q 497 1038 599 1038 l 469 1038 m 400 1196 l 331 1264 q 399 1302 371 1283 q 428 1351 428 1321 q 406 1390 428 1379 q 347 1401 383 1401 q 305 1399 326 1401 q 265 1392 283 1396 l 265 1482 q 400 1499 329 1499 q 483 1485 444 1499 q 544 1443 521 1472 q 567 1365 567 1414 q 544 1286 567 1318 q 483 1233 521 1254 q 400 1196 446 1213 z "},"Ỡ":{"ha":800,"x_min":68,"x_max":732,"o":"m 399 -15 q 203 29 275 -15 q 99 156 131 74 q 68 354 68 239 l 68 774 q 99 971 68 889 q 203 1096 131 1053 q 399 1139 275 1139 q 597 1095 524 1139 q 701 970 669 1051 q 732 774 732 889 l 732 354 q 701 156 732 239 q 597 29 669 74 q 399 -15 524 -15 m 399 150 q 464 170 443 150 q 492 224 485 190 q 499 297 499 258 l 499 829 q 492 901 499 868 q 464 955 485 935 q 399 975 443 975 q 336 955 357 975 q 308 901 315 935 q 301 829 301 868 l 301 297 q 308 224 301 258 q 335 170 314 190 q 399 150 356 150 m 469 1038 l 469 1125 l 497 1125 q 556 1154 539 1125 q 572 1240 572 1183 l 721 1240 q 660 1088 721 1139 q 497 1038 599 1038 l 469 1038 m 511 1260 q 446 1276 475 1260 q 390 1309 417 1293 q 336 1325 364 1325 q 297 1309 307 1325 q 286 1268 286 1293 l 183 1268 q 194 1365 183 1322 q 231 1431 204 1407 q 306 1456 258 1456 q 367 1440 340 1456 q 421 1409 394 1425 q 476 1393 447 1393 q 510 1408 500 1393 q 521 1447 521 1422 l 617 1447 q 610 1360 617 1403 q 581 1288 604 1317 q 511 1260 558 1260 z "},"Ő":{"ha":800,"x_min":68,"x_max":732,"o":"m 399 -15 q 203 29 275 -15 q 99 156 131 74 q 68 354 68 239 l 68 774 q 99 971 68 889 q 203 1096 131 1053 q 399 1139 275 1139 q 597 1095 524 1139 q 701 970 669 1051 q 732 774 732 889 l 732 354 q 701 156 732 239 q 597 29 669 74 q 399 -15 524 -15 m 399 150 q 464 170 443 150 q 492 224 485 190 q 499 297 499 258 l 499 829 q 492 901 499 868 q 464 955 485 935 q 399 975 443 975 q 336 955 357 975 q 308 901 315 935 q 301 829 301 868 l 301 297 q 308 224 301 258 q 335 170 314 190 q 399 150 356 150 m 458 1203 l 544 1490 l 729 1490 l 565 1203 l 458 1203 m 226 1203 l 303 1490 l 474 1490 l 333 1203 l 226 1203 z "},"Ȏ":{"ha":800,"x_min":68,"x_max":732,"o":"m 399 -15 q 203 29 275 -15 q 99 156 131 74 q 68 354 68 239 l 68 774 q 99 971 68 889 q 203 1096 131 1053 q 399 1139 275 1139 q 597 1095 524 1139 q 701 970 669 1051 q 732 774 732 889 l 732 354 q 701 156 732 239 q 597 29 669 74 q 399 -15 524 -15 m 399 150 q 464 170 443 150 q 492 224 485 190 q 499 297 499 258 l 499 829 q 492 901 499 868 q 464 955 485 935 q 399 975 443 975 q 336 955 357 975 q 308 901 315 935 q 301 829 301 868 l 301 297 q 308 224 301 258 q 335 170 314 190 q 399 150 356 150 m 189 1228 q 214 1344 190 1296 q 285 1419 238 1393 q 400 1444 332 1444 q 516 1419 469 1444 q 587 1344 563 1393 q 611 1228 611 1296 l 492 1228 q 471 1310 492 1283 q 400 1336 450 1336 q 330 1310 351 1336 q 308 1228 308 1285 l 189 1228 z "},"Ō":{"ha":800,"x_min":68,"x_max":732,"o":"m 399 -15 q 203 29 275 -15 q 99 156 131 74 q 68 354 68 239 l 68 774 q 99 971 68 889 q 203 1096 131 1053 q 399 1139 275 1139 q 597 1095 524 1139 q 701 970 669 1051 q 732 774 732 889 l 732 354 q 701 156 732 239 q 597 29 669 74 q 399 -15 524 -15 m 399 150 q 464 170 443 150 q 492 224 485 190 q 499 297 499 258 l 499 829 q 492 901 499 868 q 464 955 485 935 q 399 975 443 975 q 336 955 357 975 q 308 901 315 935 q 301 829 301 868 l 301 297 q 308 224 301 258 q 335 170 314 190 q 399 150 356 150 m 221 1253 l 221 1356 l 579 1356 l 579 1253 l 221 1253 z "},"Ǫ":{"ha":800,"x_min":68,"x_max":732,"o":"m 399 -15 q 203 29 275 -15 q 99 156 131 74 q 68 354 68 239 l 68 774 q 99 971 68 889 q 203 1096 131 1053 q 399 1139 275 1139 q 597 1095 524 1139 q 701 970 669 1051 q 732 774 732 889 l 732 354 q 701 156 732 239 q 597 29 669 74 q 399 -15 524 -15 m 399 150 q 464 170 443 150 q 492 224 485 190 q 499 297 499 258 l 499 829 q 492 901 499 868 q 464 955 485 935 q 399 975 443 975 q 336 955 357 975 q 308 901 315 935 q 301 829 301 868 l 301 297 q 308 224 301 258 q 335 170 314 190 q 399 150 356 150 m 489 -353 q 415 -348 453 -353 q 346 -328 378 -343 q 294 -285 314 -314 q 274 -210 274 -257 q 291 -131 274 -171 q 335 -56 308 -90 q 392 0 363 -22 l 488 0 q 457 -52 472 -24 q 433 -110 442 -81 q 424 -171 424 -140 q 453 -233 424 -217 q 517 -249 482 -249 q 539 -248 528 -249 q 558 -246 550 -247 l 535 -349 q 514 -351 526 -350 q 489 -353 501 -353 z "},"Ø":{"ha":785,"x_min":68,"x_max":732,"o":"m 179 -121 l 125 -99 l 592 1226 l 647 1207 l 179 -121 m 399 -15 q 203 29 275 -15 q 99 156 131 74 q 68 354 68 239 l 68 774 q 99 971 68 889 q 203 1096 131 1053 q 399 1139 275 1139 q 597 1095 524 1139 q 701 970 669 1051 q 732 774 732 889 l 732 354 q 701 156 732 239 q 597 29 669 74 q 399 -15 524 -15 m 399 150 q 464 170 443 150 q 492 224 485 190 q 499 297 499 258 l 499 829 q 492 901 499 868 q 464 955 485 935 q 399 975 443 975 q 336 955 357 975 q 308 901 315 935 q 301 829 301 868 l 301 297 q 308 224 301 258 q 335 170 314 190 q 399 150 356 150 z "},"Ǿ":{"ha":785,"x_min":68,"x_max":732,"o":"m 179 -121 l 125 -99 l 592 1226 l 647 1207 l 179 -121 m 399 -15 q 203 29 275 -15 q 99 156 131 74 q 68 354 68 239 l 68 774 q 99 971 68 889 q 203 1096 131 1053 q 399 1139 275 1139 q 597 1095 524 1139 q 701 970 669 1051 q 732 774 732 889 l 732 354 q 701 156 732 239 q 597 29 669 74 q 399 -15 524 -15 m 399 150 q 464 170 443 150 q 492 224 485 190 q 499 297 499 258 l 499 829 q 492 901 499 868 q 464 955 485 935 q 399 975 443 975 q 336 955 357 975 q 308 901 315 935 q 301 829 301 868 l 301 297 q 308 224 301 258 q 335 170 314 190 q 399 150 356 150 m 326 1210 l 413 1488 l 625 1488 l 454 1210 l 326 1210 z "},"Õ":{"ha":800,"x_min":68,"x_max":732,"o":"m 399 -15 q 203 29 275 -15 q 99 156 131 74 q 68 354 68 239 l 68 774 q 99 971 68 889 q 203 1096 131 1053 q 399 1139 275 1139 q 597 1095 524 1139 q 701 970 669 1051 q 732 774 732 889 l 732 354 q 701 156 732 239 q 597 29 669 74 q 399 -15 524 -15 m 399 150 q 464 170 443 150 q 492 224 485 190 q 499 297 499 258 l 499 829 q 492 901 499 868 q 464 955 485 935 q 399 975 443 975 q 336 955 357 975 q 308 901 315 935 q 301 829 301 868 l 301 297 q 308 224 301 258 q 335 170 314 190 q 399 150 356 150 m 511 1260 q 446 1276 475 1260 q 390 1309 417 1293 q 336 1325 364 1325 q 297 1309 307 1325 q 286 1268 286 1293 l 183 1268 q 194 1365 183 1322 q 231 1431 204 1407 q 306 1456 258 1456 q 367 1440 340 1456 q 421 1409 394 1425 q 476 1393 447 1393 q 510 1408 500 1393 q 521 1447 521 1422 l 617 1447 q 610 1360 617 1403 q 581 1288 604 1317 q 511 1260 558 1260 z "},"Ȭ":{"ha":800,"x_min":68,"x_max":732,"o":"m 399 -15 q 203 29 275 -15 q 99 156 131 74 q 68 354 68 239 l 68 774 q 99 971 68 889 q 203 1096 131 1053 q 399 1139 275 1139 q 597 1095 524 1139 q 701 970 669 1051 q 732 774 732 889 l 732 354 q 701 156 732 239 q 597 29 669 74 q 399 -15 524 -15 m 399 150 q 464 170 443 150 q 492 224 485 190 q 499 297 499 258 l 499 829 q 492 901 499 868 q 464 955 485 935 q 399 975 443 975 q 336 955 357 975 q 308 901 315 935 q 301 829 301 868 l 301 297 q 308 224 301 258 q 335 170 314 190 q 399 150 356 150 m 511 1260 q 446 1276 475 1260 q 390 1309 417 1293 q 336 1325 364 1325 q 297 1309 307 1325 q 286 1268 286 1293 l 183 1268 q 194 1365 183 1322 q 231 1431 204 1407 q 306 1456 258 1456 q 367 1440 340 1456 q 421 1409 394 1425 q 476 1393 447 1393 q 510 1408 500 1393 q 521 1447 521 1422 l 617 1447 q 610 1360 617 1403 q 581 1288 604 1317 q 511 1260 558 1260 m 221 1583 l 221 1686 l 579 1686 l 579 1583 l 221 1583 z "},"Œ":{"ha":988,"x_min":68,"x_max":950,"o":"m 408 0 q 206 46 281 0 q 100 176 132 92 q 68 376 68 261 l 68 731 q 99 933 68 844 q 204 1072 131 1022 q 403 1122 278 1122 l 949 1122 l 949 964 l 707 964 l 707 661 l 890 661 l 890 501 l 707 501 l 707 156 l 950 156 l 950 0 l 408 0 m 408 160 l 479 160 l 479 958 l 408 958 q 331 931 354 958 q 303 857 308 903 q 297 758 297 811 l 297 343 q 304 251 297 293 q 334 185 311 210 q 408 160 357 160 z "},"P":{"ha":767,"x_min":85,"x_max":733,"o":"m 85 0 l 85 1125 l 442 1125 q 607 1087 543 1125 q 702 976 671 1049 q 733 801 733 904 q 692 613 733 681 q 581 516 651 544 q 418 488 510 488 l 314 488 l 314 0 l 85 0 m 314 649 l 394 649 q 472 665 444 649 q 508 715 499 681 q 518 804 518 750 q 510 890 518 856 q 476 944 503 925 q 393 964 450 964 l 314 964 l 314 649 z "},"Ṗ":{"ha":767,"x_min":85,"x_max":733,"o":"m 85 0 l 85 1125 l 442 1125 q 607 1087 543 1125 q 702 976 671 1049 q 733 801 733 904 q 692 613 733 681 q 581 516 651 544 q 418 488 510 488 l 314 488 l 314 0 l 85 0 m 314 649 l 394 649 q 472 665 444 649 q 508 715 499 681 q 518 804 518 750 q 510 890 518 856 q 476 944 503 925 q 393 964 450 964 l 314 964 l 314 649 m 283 1233 l 283 1438 l 483 1438 l 483 1233 l 283 1233 z "},"Þ":{"ha":763,"x_min":75,"x_max":742,"o":"m 75 0 l 75 1125 l 304 1125 l 304 975 l 425 975 q 603 942 532 975 q 708 840 674 910 q 742 660 742 769 q 722 500 742 564 q 660 397 701 436 q 557 342 619 358 q 408 325 494 325 l 304 325 l 304 0 l 75 0 m 304 490 l 388 490 q 497 526 464 490 q 531 650 531 561 q 500 769 531 732 q 396 807 469 807 l 304 807 l 304 490 z "},"Q":{"ha":800,"x_min":68,"x_max":732,"o":"m 647 -222 q 574 -175 615 -207 q 492 -101 532 -143 q 424 -14 451 -58 q 412 -15 418 -15 q 399 -15 406 -15 q 203 29 275 -15 q 99 156 131 74 q 68 354 68 239 l 68 774 q 99 971 68 889 q 203 1096 131 1053 q 399 1139 275 1139 q 597 1095 524 1139 q 701 970 669 1051 q 732 774 732 889 l 732 354 q 717 209 732 274 q 669 97 703 144 q 581 22 636 50 q 618 -17 599 3 q 657 -53 638 -36 q 694 -81 676 -69 l 647 -222 m 399 150 q 464 170 443 150 q 492 224 485 190 q 499 297 499 258 l 499 829 q 492 901 499 868 q 464 955 485 935 q 399 975 443 975 q 335 955 356 975 q 308 901 314 935 q 301 829 301 868 l 301 297 q 308 224 301 258 q 335 170 314 190 q 399 150 356 150 z "},"R":{"ha":810,"x_min":85,"x_max":758,"o":"m 85 0 l 85 1125 l 376 1125 q 572 1099 490 1125 q 697 1008 653 1074 q 740 828 740 943 q 728 705 740 758 q 687 612 717 651 q 603 549 657 572 l 758 0 l 524 0 l 394 510 l 314 510 l 314 0 l 85 0 m 314 646 l 381 646 q 468 664 436 646 q 513 719 500 682 q 526 810 526 756 q 498 928 526 888 q 392 969 469 969 l 314 969 l 314 646 z "},"Ŕ":{"ha":810,"x_min":85,"x_max":758,"o":"m 85 0 l 85 1125 l 376 1125 q 572 1099 490 1125 q 697 1008 653 1074 q 740 828 740 943 q 728 705 740 758 q 687 612 717 651 q 603 549 657 572 l 758 0 l 524 0 l 394 510 l 314 510 l 314 0 l 85 0 m 314 646 l 381 646 q 468 664 436 646 q 513 719 500 682 q 526 810 526 756 q 498 928 526 888 q 392 969 469 969 l 314 969 l 314 646 m 338 1210 l 424 1488 l 636 1488 l 465 1210 l 338 1210 z "},"Ř":{"ha":810,"x_min":85,"x_max":758,"o":"m 85 0 l 85 1125 l 376 1125 q 572 1099 490 1125 q 697 1008 653 1074 q 740 828 740 943 q 728 705 740 758 q 687 612 717 651 q 603 549 657 572 l 758 0 l 524 0 l 394 510 l 314 510 l 314 0 l 85 0 m 314 646 l 381 646 q 468 664 436 646 q 513 719 500 682 q 526 810 526 756 q 498 928 526 888 q 392 969 469 969 l 314 969 l 314 646 m 303 1210 l 181 1465 l 332 1465 l 404 1310 l 476 1465 l 628 1465 l 506 1210 l 303 1210 z "},"Ŗ":{"ha":810,"x_min":85,"x_max":758,"o":"m 85 0 l 85 1125 l 376 1125 q 572 1099 490 1125 q 697 1008 653 1074 q 740 828 740 943 q 728 705 740 758 q 687 612 717 651 q 603 549 657 572 l 758 0 l 524 0 l 394 510 l 314 510 l 314 0 l 85 0 m 314 646 l 381 646 q 468 664 436 646 q 513 719 500 682 q 526 810 526 756 q 498 928 526 888 q 392 969 469 969 l 314 969 l 314 646 m 342 -474 l 319 -399 q 386 -370 358 -393 q 414 -292 414 -347 l 304 -292 l 304 -94 l 504 -94 l 503 -267 q 466 -417 503 -362 q 342 -474 429 -471 z "},"Ȑ":{"ha":810,"x_min":85,"x_max":758,"o":"m 85 0 l 85 1125 l 376 1125 q 572 1099 490 1125 q 697 1008 653 1074 q 740 828 740 943 q 728 705 740 758 q 687 612 717 651 q 603 549 657 572 l 758 0 l 524 0 l 394 510 l 314 510 l 314 0 l 85 0 m 314 646 l 381 646 q 468 664 436 646 q 513 719 500 682 q 526 810 526 756 q 498 928 526 888 q 392 969 469 969 l 314 969 l 314 646 m 244 1208 l 103 1486 l 269 1486 l 357 1208 l 244 1208 m 474 1208 l 351 1486 l 507 1486 l 583 1208 l 474 1208 z "},"Ȓ":{"ha":810,"x_min":85,"x_max":758,"o":"m 85 0 l 85 1125 l 376 1125 q 572 1099 490 1125 q 697 1008 653 1074 q 740 828 740 943 q 728 705 740 758 q 687 612 717 651 q 603 549 657 572 l 758 0 l 524 0 l 394 510 l 314 510 l 314 0 l 85 0 m 314 646 l 381 646 q 468 664 436 646 q 513 719 500 682 q 526 810 526 756 q 498 928 526 888 q 392 969 469 969 l 314 969 l 314 646 m 193 1228 q 218 1344 194 1296 q 289 1419 242 1393 q 404 1444 336 1444 q 520 1419 474 1444 q 591 1344 567 1393 q 615 1228 615 1296 l 496 1228 q 475 1310 496 1283 q 404 1336 454 1336 q 334 1310 356 1336 q 313 1228 313 1285 l 193 1228 z "},"S":{"ha":701,"x_min":57,"x_max":665,"o":"m 376 -15 q 203 23 272 -15 q 98 138 133 61 q 57 335 63 215 l 254 368 q 269 252 257 299 q 305 183 281 206 q 365 160 329 160 q 426 188 410 160 q 442 251 442 215 q 408 370 442 322 q 318 467 374 418 l 201 568 q 99 688 139 621 q 60 851 60 754 q 141 1065 60 990 q 364 1139 222 1139 q 503 1111 449 1139 q 587 1037 557 1083 q 628 935 617 990 q 643 826 640 881 l 447 797 q 438 888 444 849 q 413 949 432 926 q 357 971 394 971 q 297 941 317 971 q 278 875 278 911 q 305 777 278 815 q 379 697 332 739 l 493 597 q 615 458 564 536 q 665 264 665 379 q 629 121 665 185 q 528 21 593 57 q 376 -15 464 -15 z "},"Ś":{"ha":701,"x_min":57,"x_max":665,"o":"m 376 -15 q 203 23 272 -15 q 98 138 133 61 q 57 335 63 215 l 254 368 q 269 252 257 299 q 305 183 281 206 q 365 160 329 160 q 426 188 410 160 q 442 251 442 215 q 408 370 442 322 q 318 467 374 418 l 201 568 q 99 688 139 621 q 60 851 60 754 q 141 1065 60 990 q 364 1139 222 1139 q 503 1111 449 1139 q 587 1037 557 1083 q 628 935 617 990 q 643 826 640 881 l 447 797 q 438 888 444 849 q 413 949 432 926 q 357 971 394 971 q 297 941 317 971 q 278 875 278 911 q 305 777 278 815 q 379 697 332 739 l 493 597 q 615 458 564 536 q 665 264 665 379 q 629 121 665 185 q 528 21 593 57 q 376 -15 464 -15 m 285 1210 l 371 1488 l 583 1488 l 413 1210 l 285 1210 z "},"Š":{"ha":701,"x_min":57,"x_max":665,"o":"m 376 -15 q 203 23 272 -15 q 98 138 133 61 q 57 335 63 215 l 254 368 q 269 252 257 299 q 305 183 281 206 q 365 160 329 160 q 426 188 410 160 q 442 251 442 215 q 408 370 442 322 q 318 467 374 418 l 201 568 q 99 688 139 621 q 60 851 60 754 q 141 1065 60 990 q 364 1139 222 1139 q 503 1111 449 1139 q 587 1037 557 1083 q 628 935 617 990 q 643 826 640 881 l 447 797 q 438 888 444 849 q 413 949 432 926 q 357 971 394 971 q 297 941 317 971 q 278 875 278 911 q 305 777 278 815 q 379 697 332 739 l 493 597 q 615 458 564 536 q 665 264 665 379 q 629 121 665 185 q 528 21 593 57 q 376 -15 464 -15 m 250 1210 l 128 1465 l 279 1465 l 351 1310 l 424 1465 l 575 1465 l 453 1210 l 250 1210 z "},"Ş":{"ha":701,"x_min":57,"x_max":665,"o":"m 376 -15 q 203 23 272 -15 q 98 138 133 61 q 57 335 63 215 l 254 368 q 269 252 257 299 q 305 183 281 206 q 365 160 329 160 q 426 188 410 160 q 442 251 442 215 q 408 370 442 322 q 318 467 374 418 l 201 568 q 99 688 139 621 q 60 851 60 754 q 141 1065 60 990 q 364 1139 222 1139 q 503 1111 449 1139 q 587 1037 557 1083 q 628 935 617 990 q 643 826 640 881 l 447 797 q 438 888 444 849 q 413 949 432 926 q 357 971 394 971 q 297 941 317 971 q 278 875 278 911 q 305 777 278 815 q 379 697 332 739 l 493 597 q 615 458 564 536 q 665 264 665 379 q 629 121 665 185 q 528 21 593 57 q 376 -15 464 -15 m 378 -372 q 325 -368 351 -372 q 274 -356 299 -364 l 274 -264 q 310 -272 290 -268 q 351 -275 331 -275 q 413 -263 388 -275 q 438 -225 438 -251 q 419 -183 438 -199 q 372 -161 400 -168 q 311 -151 343 -154 l 311 0 l 392 0 l 392 -89 q 525 -124 475 -89 q 575 -228 575 -158 q 548 -311 575 -279 q 476 -358 521 -343 q 378 -372 431 -372 z "},"Ŝ":{"ha":701,"x_min":57,"x_max":665,"o":"m 376 -15 q 203 23 272 -15 q 98 138 133 61 q 57 335 63 215 l 254 368 q 269 252 257 299 q 305 183 281 206 q 365 160 329 160 q 426 188 410 160 q 442 251 442 215 q 408 370 442 322 q 318 467 374 418 l 201 568 q 99 688 139 621 q 60 851 60 754 q 141 1065 60 990 q 364 1139 222 1139 q 503 1111 449 1139 q 587 1037 557 1083 q 628 935 617 990 q 643 826 640 881 l 447 797 q 438 888 444 849 q 413 949 432 926 q 357 971 394 971 q 297 941 317 971 q 278 875 278 911 q 305 777 278 815 q 379 697 332 739 l 493 597 q 615 458 564 536 q 665 264 665 379 q 629 121 665 185 q 528 21 593 57 q 376 -15 464 -15 m 132 1219 l 261 1481 l 439 1481 l 571 1219 l 417 1219 l 350 1385 l 285 1219 l 132 1219 z "},"Ș":{"ha":701,"x_min":57,"x_max":665,"o":"m 376 -15 q 203 23 272 -15 q 98 138 133 61 q 57 335 63 215 l 254 368 q 269 252 257 299 q 305 183 281 206 q 365 160 329 160 q 426 188 410 160 q 442 251 442 215 q 408 370 442 322 q 318 467 374 418 l 201 568 q 99 688 139 621 q 60 851 60 754 q 141 1065 60 990 q 364 1139 222 1139 q 503 1111 449 1139 q 587 1037 557 1083 q 628 935 617 990 q 643 826 640 881 l 447 797 q 438 888 444 849 q 413 949 432 926 q 357 971 394 971 q 297 941 317 971 q 278 875 278 911 q 305 777 278 815 q 379 697 332 739 l 493 597 q 615 458 564 536 q 665 264 665 379 q 629 121 665 185 q 528 21 593 57 q 376 -15 464 -15 m 289 -474 l 267 -399 q 333 -370 306 -393 q 361 -292 361 -347 l 251 -292 l 251 -94 l 451 -94 l 450 -267 q 413 -417 450 -362 q 289 -474 376 -471 z "},"Ṡ":{"ha":701,"x_min":57,"x_max":665,"o":"m 376 -15 q 203 23 272 -15 q 98 138 133 61 q 57 335 63 215 l 254 368 q 269 252 257 299 q 305 183 281 206 q 365 160 329 160 q 426 188 410 160 q 442 251 442 215 q 408 370 442 322 q 318 467 374 418 l 201 568 q 99 688 139 621 q 60 851 60 754 q 141 1065 60 990 q 364 1139 222 1139 q 503 1111 449 1139 q 587 1037 557 1083 q 628 935 617 990 q 643 826 640 881 l 447 797 q 438 888 444 849 q 413 949 432 926 q 357 971 394 971 q 297 941 317 971 q 278 875 278 911 q 305 777 278 815 q 379 697 332 739 l 493 597 q 615 458 564 536 q 665 264 665 379 q 629 121 665 185 q 528 21 593 57 q 376 -15 464 -15 m 251 1233 l 251 1438 l 451 1438 l 451 1233 l 251 1233 z "},"ẞ":{"ha":839,"x_min":75,"x_max":794,"o":"m 404 -15 l 404 142 l 435 142 q 539 184 503 142 q 575 321 575 226 q 541 457 575 413 q 435 501 507 501 l 418 501 l 418 656 l 576 956 q 530 969 557 964 q 472 975 503 975 q 347 926 388 975 q 306 781 306 876 l 306 0 l 75 0 l 75 774 q 115 964 75 882 q 238 1092 154 1046 q 450 1139 321 1139 q 612 1119 540 1139 q 744 1067 683 1100 l 744 911 l 556 557 l 486 632 q 718 553 642 632 q 794 325 794 474 q 706 65 794 146 q 453 -15 618 -15 l 404 -15 z "},"Ə":{"ha":794,"x_min":63,"x_max":726,"o":"m 397 -15 q 213 24 288 -15 q 100 142 138 64 q 63 333 63 221 l 63 585 l 493 585 l 493 835 q 483 915 493 885 q 451 960 472 946 q 393 975 431 975 q 338 960 360 975 q 306 915 317 946 q 296 835 296 885 l 296 689 l 63 689 l 63 793 q 100 983 63 907 q 213 1099 138 1060 q 397 1139 288 1139 q 576 1097 503 1139 q 688 974 650 1054 q 726 782 726 894 l 726 342 q 688 149 726 229 q 576 27 650 69 q 397 -15 503 -15 m 394 149 q 452 164 431 149 q 483 210 474 179 q 493 289 493 242 l 493 440 l 296 440 l 296 289 q 306 210 296 242 q 338 164 315 179 q 394 149 360 149 z "},"T":{"ha":608,"x_min":17,"x_max":592,"o":"m 190 0 l 190 954 l 17 954 l 17 1125 l 592 1125 l 592 954 l 421 954 l 421 0 l 190 0 z "},"Ŧ":{"ha":607,"x_min":17,"x_max":592,"o":"m 63 519 l 63 633 l 550 633 l 550 519 l 63 519 m 190 0 l 190 954 l 17 954 l 17 1125 l 592 1125 l 592 954 l 421 954 l 421 0 l 190 0 z "},"Ť":{"ha":601,"x_min":17,"x_max":592,"o":"m 190 0 l 190 954 l 17 954 l 17 1125 l 592 1125 l 592 954 l 421 954 l 421 0 l 190 0 m 200 1210 l 78 1465 l 229 1465 l 301 1310 l 374 1465 l 525 1465 l 403 1210 l 200 1210 z "},"Ţ":{"ha":601,"x_min":17,"x_max":592,"o":"m 190 0 l 190 954 l 17 954 l 17 1125 l 592 1125 l 592 954 l 421 954 l 421 0 l 190 0 m 328 -372 q 275 -368 301 -372 q 224 -356 249 -364 l 224 -264 q 260 -272 240 -268 q 301 -275 281 -275 q 363 -263 338 -275 q 388 -225 388 -251 q 369 -183 388 -199 q 322 -161 350 -168 q 261 -151 293 -154 l 261 0 l 342 0 l 342 -89 q 475 -124 425 -89 q 525 -228 525 -158 q 498 -311 525 -279 q 426 -358 471 -343 q 328 -372 381 -372 z "},"Ț":{"ha":601,"x_min":17,"x_max":592,"o":"m 190 0 l 190 954 l 17 954 l 17 1125 l 592 1125 l 592 954 l 421 954 l 421 0 l 190 0 m 239 -474 l 217 -399 q 283 -370 256 -393 q 311 -292 311 -347 l 201 -292 l 201 -94 l 401 -94 l 400 -267 q 363 -417 400 -362 q 239 -474 326 -471 z "},"Ṫ":{"ha":601,"x_min":17,"x_max":592,"o":"m 190 0 l 190 954 l 17 954 l 17 1125 l 592 1125 l 592 954 l 421 954 l 421 0 l 190 0 m 201 1233 l 201 1438 l 401 1438 l 401 1233 l 201 1233 z "},"U":{"ha":803,"x_min":75,"x_max":728,"o":"m 401 -15 q 203 28 274 -15 q 103 155 132 72 q 75 356 75 238 l 75 1125 l 301 1125 l 301 324 q 308 242 301 282 q 335 176 314 201 q 401 151 357 151 q 469 176 447 151 q 496 242 490 201 q 501 324 501 282 l 501 1125 l 728 1125 l 728 356 q 699 155 728 238 q 600 28 671 72 q 401 -15 529 -15 z "},"Ú":{"ha":803,"x_min":75,"x_max":728,"o":"m 401 -15 q 203 28 274 -15 q 103 155 132 72 q 75 356 75 238 l 75 1125 l 301 1125 l 301 324 q 308 242 301 282 q 335 176 314 201 q 401 151 357 151 q 469 176 447 151 q 496 242 490 201 q 501 324 501 282 l 501 1125 l 728 1125 l 728 356 q 699 155 728 238 q 600 28 671 72 q 401 -15 529 -15 m 335 1210 l 421 1488 l 633 1488 l 463 1210 l 335 1210 z "},"Ŭ":{"ha":803,"x_min":75,"x_max":728,"o":"m 401 -15 q 203 28 274 -15 q 103 155 132 72 q 75 356 75 238 l 75 1125 l 301 1125 l 301 324 q 308 242 301 282 q 335 176 314 201 q 401 151 357 151 q 469 176 447 151 q 496 242 490 201 q 501 324 501 282 l 501 1125 l 728 1125 l 728 356 q 699 155 728 238 q 600 28 671 72 q 401 -15 529 -15 m 403 1215 q 248 1270 304 1215 q 192 1425 192 1325 l 311 1425 q 332 1349 311 1375 q 403 1324 353 1324 q 473 1350 451 1324 q 494 1425 494 1376 l 613 1425 q 557 1270 613 1325 q 403 1215 501 1215 z "},"Ǔ":{"ha":803,"x_min":75,"x_max":728,"o":"m 401 -15 q 203 28 274 -15 q 103 155 132 72 q 75 356 75 238 l 75 1125 l 301 1125 l 301 324 q 308 242 301 282 q 335 176 314 201 q 401 151 357 151 q 469 176 447 151 q 496 242 490 201 q 501 324 501 282 l 501 1125 l 728 1125 l 728 356 q 699 155 728 238 q 600 28 671 72 q 401 -15 529 -15 m 300 1210 l 178 1465 l 329 1465 l 401 1310 l 474 1465 l 625 1465 l 503 1210 l 300 1210 z "},"Û":{"ha":803,"x_min":75,"x_max":728,"o":"m 401 -15 q 203 28 274 -15 q 103 155 132 72 q 75 356 75 238 l 75 1125 l 301 1125 l 301 324 q 308 242 301 282 q 335 176 314 201 q 401 151 357 151 q 469 176 447 151 q 496 242 490 201 q 501 324 501 282 l 501 1125 l 728 1125 l 728 356 q 699 155 728 238 q 600 28 671 72 q 401 -15 529 -15 m 182 1219 l 311 1481 l 489 1481 l 621 1219 l 467 1219 l 400 1385 l 335 1219 l 182 1219 z "},"Ȕ":{"ha":803,"x_min":75,"x_max":728,"o":"m 401 -15 q 203 28 274 -15 q 103 155 132 72 q 75 356 75 238 l 75 1125 l 301 1125 l 301 324 q 308 242 301 282 q 335 176 314 201 q 401 151 357 151 q 469 176 447 151 q 496 242 490 201 q 501 324 501 282 l 501 1125 l 728 1125 l 728 356 q 699 155 728 238 q 600 28 671 72 q 401 -15 529 -15 m 242 1208 l 100 1486 l 267 1486 l 354 1208 l 242 1208 m 471 1208 l 349 1486 l 504 1486 l 581 1208 l 471 1208 z "},"Ü":{"ha":803,"x_min":75,"x_max":728,"o":"m 401 -15 q 203 28 274 -15 q 103 155 132 72 q 75 356 75 238 l 75 1125 l 301 1125 l 301 324 q 308 242 301 282 q 335 176 314 201 q 401 151 357 151 q 469 176 447 151 q 496 242 490 201 q 501 324 501 282 l 501 1125 l 728 1125 l 728 356 q 699 155 728 238 q 600 28 671 72 q 401 -15 529 -15 m 458 1253 l 458 1447 l 633 1447 l 633 1253 l 458 1253 m 169 1253 l 169 1447 l 344 1447 l 344 1253 l 169 1253 z "},"Ụ":{"ha":803,"x_min":75,"x_max":728,"o":"m 401 -15 q 203 28 274 -15 q 103 155 132 72 q 75 356 75 238 l 75 1125 l 301 1125 l 301 324 q 308 242 301 282 q 335 176 314 201 q 401 151 357 151 q 469 176 447 151 q 496 242 490 201 q 501 324 501 282 l 501 1125 l 728 1125 l 728 356 q 699 155 728 238 q 600 28 671 72 q 401 -15 529 -15 m 308 -279 l 308 -96 l 494 -96 l 494 -279 l 308 -279 z "},"Ù":{"ha":803,"x_min":75,"x_max":728,"o":"m 401 -15 q 203 28 274 -15 q 103 155 132 72 q 75 356 75 238 l 75 1125 l 301 1125 l 301 324 q 308 242 301 282 q 335 176 314 201 q 401 151 357 151 q 469 176 447 151 q 496 242 490 201 q 501 324 501 282 l 501 1125 l 728 1125 l 728 356 q 699 155 728 238 q 600 28 671 72 q 401 -15 529 -15 m 342 1210 l 169 1488 l 385 1488 l 468 1210 l 342 1210 z "},"Ủ":{"ha":803,"x_min":75,"x_max":728,"o":"m 401 -15 q 203 28 274 -15 q 103 155 132 72 q 75 356 75 238 l 75 1125 l 301 1125 l 301 324 q 308 242 301 282 q 335 176 314 201 q 401 151 357 151 q 469 176 447 151 q 496 242 490 201 q 501 324 501 282 l 501 1125 l 728 1125 l 728 356 q 699 155 728 238 q 600 28 671 72 q 401 -15 529 -15 m 401 1196 l 332 1264 q 401 1302 372 1283 q 429 1351 429 1321 q 407 1390 429 1379 q 349 1401 385 1401 q 306 1399 328 1401 q 267 1392 285 1396 l 267 1482 q 401 1499 331 1499 q 484 1485 446 1499 q 545 1443 522 1472 q 568 1365 568 1414 q 545 1286 568 1318 q 485 1233 522 1254 q 401 1196 447 1213 z "},"Ư":{"ha":803,"x_min":75,"x_max":825,"o":"m 401 -15 q 203 28 274 -15 q 103 155 132 72 q 75 356 75 238 l 75 1125 l 301 1125 l 301 324 q 308 242 301 282 q 335 176 314 201 q 401 151 357 151 q 469 176 447 151 q 496 242 490 201 q 501 324 501 282 l 501 1125 l 728 1125 l 728 356 q 699 155 728 238 q 600 28 671 72 q 401 -15 529 -15 m 586 1038 l 586 1125 l 600 1125 q 658 1154 642 1125 q 675 1240 675 1183 l 824 1240 q 763 1088 824 1139 q 600 1038 701 1038 l 586 1038 z "},"Ứ":{"ha":803,"x_min":75,"x_max":825,"o":"m 401 -15 q 203 28 274 -15 q 103 155 132 72 q 75 356 75 238 l 75 1125 l 301 1125 l 301 324 q 308 242 301 282 q 335 176 314 201 q 401 151 357 151 q 469 176 447 151 q 496 242 490 201 q 501 324 501 282 l 501 1125 l 728 1125 l 728 356 q 699 155 728 238 q 600 28 671 72 q 401 -15 529 -15 m 586 1038 l 586 1125 l 600 1125 q 658 1154 642 1125 q 675 1240 675 1183 l 824 1240 q 763 1088 824 1139 q 600 1038 701 1038 l 586 1038 m 335 1210 l 421 1488 l 633 1488 l 463 1210 l 335 1210 z "},"Ự":{"ha":803,"x_min":75,"x_max":825,"o":"m 401 -15 q 203 28 274 -15 q 103 155 132 72 q 75 356 75 238 l 75 1125 l 301 1125 l 301 324 q 308 242 301 282 q 335 176 314 201 q 401 151 357 151 q 469 176 447 151 q 496 242 490 201 q 501 324 501 282 l 501 1125 l 728 1125 l 728 356 q 699 155 728 238 q 600 28 671 72 q 401 -15 529 -15 m 586 1038 l 586 1125 l 600 1125 q 658 1154 642 1125 q 675 1240 675 1183 l 824 1240 q 763 1088 824 1139 q 600 1038 701 1038 l 586 1038 m 308 -279 l 308 -96 l 494 -96 l 494 -279 l 308 -279 z "},"Ừ":{"ha":803,"x_min":75,"x_max":825,"o":"m 401 -15 q 203 28 274 -15 q 103 155 132 72 q 75 356 75 238 l 75 1125 l 301 1125 l 301 324 q 308 242 301 282 q 335 176 314 201 q 401 151 357 151 q 469 176 447 151 q 496 242 490 201 q 501 324 501 282 l 501 1125 l 728 1125 l 728 356 q 699 155 728 238 q 600 28 671 72 q 401 -15 529 -15 m 586 1038 l 586 1125 l 600 1125 q 658 1154 642 1125 q 675 1240 675 1183 l 824 1240 q 763 1088 824 1139 q 600 1038 701 1038 l 586 1038 m 342 1210 l 169 1488 l 385 1488 l 468 1210 l 342 1210 z "},"Ử":{"ha":803,"x_min":75,"x_max":825,"o":"m 401 -15 q 203 28 274 -15 q 103 155 132 72 q 75 356 75 238 l 75 1125 l 301 1125 l 301 324 q 308 242 301 282 q 335 176 314 201 q 401 151 357 151 q 469 176 447 151 q 496 242 490 201 q 501 324 501 282 l 501 1125 l 728 1125 l 728 356 q 699 155 728 238 q 600 28 671 72 q 401 -15 529 -15 m 586 1038 l 586 1125 l 600 1125 q 658 1154 642 1125 q 675 1240 675 1183 l 824 1240 q 763 1088 824 1139 q 600 1038 701 1038 l 586 1038 m 401 1196 l 332 1264 q 401 1302 372 1283 q 429 1351 429 1321 q 407 1390 429 1379 q 349 1401 385 1401 q 306 1399 328 1401 q 267 1392 285 1396 l 267 1482 q 401 1499 331 1499 q 484 1485 446 1499 q 545 1443 522 1472 q 568 1365 568 1414 q 545 1286 568 1318 q 485 1233 522 1254 q 401 1196 447 1213 z "},"Ữ":{"ha":803,"x_min":75,"x_max":825,"o":"m 401 -15 q 203 28 274 -15 q 103 155 132 72 q 75 356 75 238 l 75 1125 l 301 1125 l 301 324 q 308 242 301 282 q 335 176 314 201 q 401 151 357 151 q 469 176 447 151 q 496 242 490 201 q 501 324 501 282 l 501 1125 l 728 1125 l 728 356 q 699 155 728 238 q 600 28 671 72 q 401 -15 529 -15 m 586 1038 l 586 1125 l 600 1125 q 658 1154 642 1125 q 675 1240 675 1183 l 824 1240 q 763 1088 824 1139 q 600 1038 701 1038 l 586 1038 m 513 1260 q 447 1276 476 1260 q 392 1309 418 1293 q 338 1325 365 1325 q 298 1309 308 1325 q 288 1268 288 1293 l 185 1268 q 195 1365 185 1322 q 233 1431 206 1407 q 307 1456 260 1456 q 369 1440 342 1456 q 422 1409 396 1425 q 478 1393 449 1393 q 512 1408 501 1393 q 522 1447 522 1422 l 618 1447 q 612 1360 618 1403 q 583 1288 606 1317 q 513 1260 560 1260 z "},"Ű":{"ha":803,"x_min":75,"x_max":732,"o":"m 401 -15 q 203 28 274 -15 q 103 155 132 72 q 75 356 75 238 l 75 1125 l 301 1125 l 301 324 q 308 242 301 282 q 335 176 314 201 q 401 151 357 151 q 469 176 447 151 q 496 242 490 201 q 501 324 501 282 l 501 1125 l 728 1125 l 728 356 q 699 155 728 238 q 600 28 671 72 q 401 -15 529 -15 m 460 1203 l 546 1490 l 731 1490 l 567 1203 l 460 1203 m 228 1203 l 304 1490 l 475 1490 l 335 1203 l 228 1203 z "},"Ȗ":{"ha":803,"x_min":75,"x_max":728,"o":"m 401 -15 q 203 28 274 -15 q 103 155 132 72 q 75 356 75 238 l 75 1125 l 301 1125 l 301 324 q 308 242 301 282 q 335 176 314 201 q 401 151 357 151 q 469 176 447 151 q 496 242 490 201 q 501 324 501 282 l 501 1125 l 728 1125 l 728 356 q 699 155 728 238 q 600 28 671 72 q 401 -15 529 -15 m 190 1228 q 215 1344 192 1296 q 286 1419 239 1393 q 401 1444 333 1444 q 517 1419 471 1444 q 588 1344 564 1393 q 613 1228 613 1296 l 493 1228 q 472 1310 493 1283 q 401 1336 451 1336 q 331 1310 353 1336 q 310 1228 310 1285 l 190 1228 z "},"Ū":{"ha":803,"x_min":75,"x_max":728,"o":"m 401 -15 q 203 28 274 -15 q 103 155 132 72 q 75 356 75 238 l 75 1125 l 301 1125 l 301 324 q 308 242 301 282 q 335 176 314 201 q 401 151 357 151 q 469 176 447 151 q 496 242 490 201 q 501 324 501 282 l 501 1125 l 728 1125 l 728 356 q 699 155 728 238 q 600 28 671 72 q 401 -15 529 -15 m 222 1253 l 222 1356 l 581 1356 l 581 1253 l 222 1253 z "},"Ų":{"ha":803,"x_min":75,"x_max":728,"o":"m 401 -15 q 203 28 274 -15 q 103 155 132 72 q 75 356 75 238 l 75 1125 l 301 1125 l 301 324 q 308 242 301 282 q 335 176 314 201 q 401 151 357 151 q 469 176 447 151 q 496 242 490 201 q 501 324 501 282 l 501 1125 l 728 1125 l 728 356 q 699 155 728 238 q 600 28 671 72 q 401 -15 529 -15 m 492 -353 q 418 -348 456 -353 q 349 -328 381 -343 q 297 -285 317 -314 q 276 -210 276 -257 q 294 -131 276 -171 q 338 -56 311 -90 q 394 0 365 -22 l 490 0 q 460 -52 475 -24 q 435 -110 444 -81 q 426 -171 426 -140 q 456 -233 426 -217 q 519 -249 485 -249 q 542 -248 531 -249 q 561 -246 553 -247 l 538 -349 q 517 -351 529 -350 q 492 -353 504 -353 z "},"Ů":{"ha":803,"x_min":75,"x_max":728,"o":"m 401 -15 q 203 28 274 -15 q 103 155 132 72 q 75 356 75 238 l 75 1125 l 301 1125 l 301 324 q 308 242 301 282 q 335 176 314 201 q 401 151 357 151 q 469 176 447 151 q 496 242 490 201 q 501 324 501 282 l 501 1125 l 728 1125 l 728 356 q 699 155 728 238 q 600 28 671 72 q 401 -15 529 -15 m 400 1178 q 288 1217 335 1178 q 240 1331 240 1257 q 288 1444 240 1406 q 400 1483 335 1483 q 515 1444 467 1483 q 563 1331 563 1404 q 515 1217 563 1257 q 400 1178 468 1178 m 400 1257 q 453 1278 435 1257 q 472 1331 472 1300 q 453 1384 472 1363 q 400 1406 435 1406 q 348 1384 367 1406 q 329 1331 329 1363 q 348 1278 329 1300 q 400 1257 367 1257 z "},"Ũ":{"ha":803,"x_min":75,"x_max":728,"o":"m 401 -15 q 203 28 274 -15 q 103 155 132 72 q 75 356 75 238 l 75 1125 l 301 1125 l 301 324 q 308 242 301 282 q 335 176 314 201 q 401 151 357 151 q 469 176 447 151 q 496 242 490 201 q 501 324 501 282 l 501 1125 l 728 1125 l 728 356 q 699 155 728 238 q 600 28 671 72 q 401 -15 529 -15 m 513 1260 q 447 1276 476 1260 q 392 1309 418 1293 q 338 1325 365 1325 q 298 1309 308 1325 q 288 1268 288 1293 l 185 1268 q 195 1365 185 1322 q 233 1431 206 1407 q 307 1456 260 1456 q 369 1440 342 1456 q 422 1409 396 1425 q 478 1393 449 1393 q 512 1408 501 1393 q 522 1447 522 1422 l 618 1447 q 612 1360 618 1403 q 583 1288 606 1317 q 513 1260 560 1260 z "},"V":{"ha":725,"x_min":31,"x_max":694,"o":"m 244 0 l 31 1125 l 229 1125 l 363 347 l 488 1125 l 694 1125 l 481 0 l 244 0 z "},"W":{"ha":978,"x_min":40,"x_max":938,"o":"m 186 0 l 40 1125 l 235 1125 l 313 438 l 411 1124 l 565 1124 l 668 439 l 746 1125 l 938 1125 l 793 0 l 599 0 l 489 713 l 385 0 l 186 0 z "},"Ẃ":{"ha":978,"x_min":40,"x_max":938,"o":"m 186 0 l 40 1125 l 235 1125 l 313 438 l 411 1124 l 565 1124 l 668 439 l 746 1125 l 938 1125 l 793 0 l 599 0 l 489 713 l 385 0 l 186 0 m 422 1210 l 508 1488 l 721 1488 l 550 1210 l 422 1210 z "},"Ŵ":{"ha":978,"x_min":40,"x_max":938,"o":"m 186 0 l 40 1125 l 235 1125 l 313 438 l 411 1124 l 565 1124 l 668 439 l 746 1125 l 938 1125 l 793 0 l 599 0 l 489 713 l 385 0 l 186 0 m 269 1219 l 399 1481 l 576 1481 l 708 1219 l 554 1219 l 488 1385 l 422 1219 l 269 1219 z "},"Ẅ":{"ha":978,"x_min":40,"x_max":938,"o":"m 186 0 l 40 1125 l 235 1125 l 313 438 l 411 1124 l 565 1124 l 668 439 l 746 1125 l 938 1125 l 793 0 l 599 0 l 489 713 l 385 0 l 186 0 m 546 1253 l 546 1447 l 721 1447 l 721 1253 l 546 1253 m 257 1253 l 257 1447 l 432 1447 l 432 1253 l 257 1253 z "},"Ẁ":{"ha":978,"x_min":40,"x_max":938,"o":"m 186 0 l 40 1125 l 235 1125 l 313 438 l 411 1124 l 565 1124 l 668 439 l 746 1125 l 938 1125 l 793 0 l 599 0 l 489 713 l 385 0 l 186 0 m 429 1210 l 257 1488 l 472 1488 l 556 1210 l 429 1210 z "},"X":{"ha":706,"x_min":11,"x_max":694,"o":"m 11 0 l 233 601 l 19 1125 l 236 1125 l 369 801 l 482 1125 l 675 1125 l 469 549 l 694 0 l 481 0 l 333 354 l 204 0 l 11 0 z "},"Y":{"ha":681,"x_min":13,"x_max":669,"o":"m 232 0 l 232 446 l 13 1125 l 228 1125 l 349 729 l 461 1125 l 669 1125 l 453 446 l 453 0 l 232 0 z "},"Ý":{"ha":681,"x_min":13,"x_max":669,"o":"m 232 0 l 232 446 l 13 1125 l 228 1125 l 349 729 l 461 1125 l 669 1125 l 453 446 l 453 0 l 232 0 m 275 1210 l 361 1488 l 574 1488 l 403 1210 l 275 1210 z "},"Ŷ":{"ha":681,"x_min":13,"x_max":669,"o":"m 232 0 l 232 446 l 13 1125 l 228 1125 l 349 729 l 461 1125 l 669 1125 l 453 446 l 453 0 l 232 0 m 122 1219 l 251 1481 l 429 1481 l 561 1219 l 407 1219 l 340 1385 l 275 1219 l 122 1219 z "},"Ÿ":{"ha":681,"x_min":13,"x_max":669,"o":"m 232 0 l 232 446 l 13 1125 l 228 1125 l 349 729 l 461 1125 l 669 1125 l 453 446 l 453 0 l 232 0 m 399 1253 l 399 1447 l 574 1447 l 574 1253 l 399 1253 m 110 1253 l 110 1447 l 285 1447 l 285 1253 l 110 1253 z "},"Ỵ":{"ha":681,"x_min":13,"x_max":669,"o":"m 232 0 l 232 446 l 13 1125 l 228 1125 l 349 729 l 461 1125 l 669 1125 l 453 446 l 453 0 l 232 0 m 249 -279 l 249 -96 l 435 -96 l 435 -279 l 249 -279 z "},"Ỳ":{"ha":681,"x_min":13,"x_max":669,"o":"m 232 0 l 232 446 l 13 1125 l 228 1125 l 349 729 l 461 1125 l 669 1125 l 453 446 l 453 0 l 232 0 m 282 1210 l 110 1488 l 325 1488 l 408 1210 l 282 1210 z "},"Ỷ":{"ha":681,"x_min":13,"x_max":669,"o":"m 232 0 l 232 446 l 13 1125 l 228 1125 l 349 729 l 461 1125 l 669 1125 l 453 446 l 453 0 l 232 0 m 342 1196 l 272 1264 q 341 1302 313 1283 q 369 1351 369 1321 q 347 1390 369 1379 q 289 1401 325 1401 q 247 1399 268 1401 q 207 1392 225 1396 l 207 1482 q 342 1499 271 1499 q 424 1485 386 1499 q 485 1443 463 1472 q 508 1365 508 1414 q 485 1286 508 1318 q 425 1233 463 1254 q 342 1196 388 1213 z "},"Ȳ":{"ha":681,"x_min":13,"x_max":669,"o":"m 232 0 l 232 446 l 13 1125 l 228 1125 l 349 729 l 461 1125 l 669 1125 l 453 446 l 453 0 l 232 0 m 163 1253 l 163 1356 l 521 1356 l 521 1253 l 163 1253 z "},"Ỹ":{"ha":681,"x_min":13,"x_max":669,"o":"m 232 0 l 232 446 l 13 1125 l 228 1125 l 349 729 l 461 1125 l 669 1125 l 453 446 l 453 0 l 232 0 m 453 1260 q 388 1276 417 1260 q 332 1309 358 1293 q 278 1325 306 1325 q 238 1309 249 1325 q 228 1268 228 1293 l 125 1268 q 135 1365 125 1322 q 173 1431 146 1407 q 247 1456 200 1456 q 309 1440 282 1456 q 363 1409 336 1425 q 418 1393 389 1393 q 452 1408 442 1393 q 463 1447 463 1422 l 558 1447 q 552 1360 558 1403 q 523 1288 546 1317 q 453 1260 500 1260 z "},"Z":{"ha":597,"x_min":43,"x_max":560,"o":"m 43 0 l 43 142 l 329 969 l 57 969 l 57 1125 l 558 1125 l 558 1000 l 264 156 l 560 156 l 560 0 l 43 0 z "},"Ź":{"ha":597,"x_min":43,"x_max":560,"o":"m 43 0 l 43 142 l 329 969 l 57 969 l 57 1125 l 558 1125 l 558 1000 l 264 156 l 560 156 l 560 0 l 43 0 m 232 1210 l 318 1488 l 531 1488 l 360 1210 l 232 1210 z "},"Ž":{"ha":597,"x_min":43,"x_max":560,"o":"m 43 0 l 43 142 l 329 969 l 57 969 l 57 1125 l 558 1125 l 558 1000 l 264 156 l 560 156 l 560 0 l 43 0 m 197 1210 l 75 1465 l 226 1465 l 299 1310 l 371 1465 l 522 1465 l 400 1210 l 197 1210 z "},"Ż":{"ha":597,"x_min":43,"x_max":560,"o":"m 43 0 l 43 142 l 329 969 l 57 969 l 57 1125 l 558 1125 l 558 1000 l 264 156 l 560 156 l 560 0 l 43 0 m 199 1233 l 199 1438 l 399 1438 l 399 1233 l 199 1233 z "},"a":{"ha":646,"x_min":51,"x_max":596,"o":"m 232 -14 q 134 15 175 -14 q 72 89 93 44 q 51 181 51 133 q 81 307 51 256 q 157 393 110 358 q 263 453 204 428 q 379 499 321 478 l 379 574 q 375 619 379 600 q 359 649 371 639 q 325 660 347 660 q 291 651 303 660 q 274 624 279 642 q 268 586 269 607 l 264 531 l 65 539 q 140 749 72 681 q 343 817 207 817 q 524 749 465 817 q 582 572 582 682 l 582 199 q 584 115 582 151 q 590 49 586 78 q 596 0 593 21 l 407 0 q 397 67 403 31 q 389 115 392 103 q 336 26 375 65 q 232 -14 297 -14 m 308 135 q 338 142 324 135 q 362 160 351 149 q 379 181 372 171 l 379 401 q 325 366 350 383 q 282 328 300 349 q 254 282 264 307 q 244 225 244 257 q 261 159 244 183 q 308 135 278 135 z "},"á":{"ha":646,"x_min":51,"x_max":596,"o":"m 232 -14 q 134 15 175 -14 q 72 89 93 44 q 51 181 51 133 q 81 307 51 256 q 157 393 110 358 q 263 453 204 428 q 379 499 321 478 l 379 574 q 375 619 379 600 q 359 649 371 639 q 325 660 347 660 q 291 651 303 660 q 274 624 279 642 q 268 586 269 607 l 264 531 l 65 539 q 140 749 72 681 q 343 817 207 817 q 524 749 465 817 q 582 572 582 682 l 582 199 q 584 115 582 151 q 590 49 586 78 q 596 0 593 21 l 407 0 q 397 67 403 31 q 389 115 392 103 q 336 26 375 65 q 232 -14 297 -14 m 308 135 q 338 142 324 135 q 362 160 351 149 q 379 181 372 171 l 379 401 q 325 366 350 383 q 282 328 300 349 q 254 282 264 307 q 244 225 244 257 q 261 159 244 183 q 308 135 278 135 m 276 888 l 363 1165 l 575 1165 l 404 888 l 276 888 z "},"ă":{"ha":646,"x_min":51,"x_max":596,"o":"m 232 -14 q 134 15 175 -14 q 72 89 93 44 q 51 181 51 133 q 81 307 51 256 q 157 393 110 358 q 263 453 204 428 q 379 499 321 478 l 379 574 q 375 619 379 600 q 359 649 371 639 q 325 660 347 660 q 291 651 303 660 q 274 624 279 642 q 268 586 269 607 l 264 531 l 65 539 q 140 749 72 681 q 343 817 207 817 q 524 749 465 817 q 582 572 582 682 l 582 199 q 584 115 582 151 q 590 49 586 78 q 596 0 593 21 l 407 0 q 397 67 403 31 q 389 115 392 103 q 336 26 375 65 q 232 -14 297 -14 m 308 135 q 338 142 324 135 q 362 160 351 149 q 379 181 372 171 l 379 401 q 325 366 350 383 q 282 328 300 349 q 254 282 264 307 q 244 225 244 257 q 261 159 244 183 q 308 135 278 135 m 343 893 q 188 948 244 893 q 132 1103 132 1003 l 251 1103 q 272 1027 251 1053 q 343 1001 293 1001 q 413 1028 392 1001 q 435 1103 435 1054 l 553 1103 q 497 948 553 1003 q 343 893 442 893 z "},"ắ":{"ha":646,"x_min":51,"x_max":596,"o":"m 232 -14 q 134 15 175 -14 q 72 89 93 44 q 51 181 51 133 q 81 307 51 256 q 157 393 110 358 q 263 453 204 428 q 379 499 321 478 l 379 574 q 375 619 379 600 q 359 649 371 639 q 325 660 347 660 q 291 651 303 660 q 274 624 279 642 q 268 586 269 607 l 264 531 l 65 539 q 140 749 72 681 q 343 817 207 817 q 524 749 465 817 q 582 572 582 682 l 582 199 q 584 115 582 151 q 590 49 586 78 q 596 0 593 21 l 407 0 q 397 67 403 31 q 389 115 392 103 q 336 26 375 65 q 232 -14 297 -14 m 308 135 q 338 142 324 135 q 362 160 351 149 q 379 181 372 171 l 379 401 q 325 366 350 383 q 282 328 300 349 q 254 282 264 307 q 244 225 244 257 q 261 159 244 183 q 308 135 278 135 m 254 1149 l 351 1311 l 528 1311 l 376 1149 l 254 1149 m 343 882 q 188 938 244 882 q 132 1093 132 993 l 251 1093 q 272 1017 251 1042 q 343 992 293 992 q 413 1017 392 992 q 435 1093 435 1043 l 553 1093 q 497 938 553 993 q 343 882 442 882 z "},"ặ":{"ha":646,"x_min":51,"x_max":596,"o":"m 232 -14 q 134 15 175 -14 q 72 89 93 44 q 51 181 51 133 q 81 307 51 256 q 157 393 110 358 q 263 453 204 428 q 379 499 321 478 l 379 574 q 375 619 379 600 q 359 649 371 639 q 325 660 347 660 q 291 651 303 660 q 274 624 279 642 q 268 586 269 607 l 264 531 l 65 539 q 140 749 72 681 q 343 817 207 817 q 524 749 465 817 q 582 572 582 682 l 582 199 q 584 115 582 151 q 590 49 586 78 q 596 0 593 21 l 407 0 q 397 67 403 31 q 389 115 392 103 q 336 26 375 65 q 232 -14 297 -14 m 308 135 q 338 142 324 135 q 362 160 351 149 q 379 181 372 171 l 379 401 q 325 366 350 383 q 282 328 300 349 q 254 282 264 307 q 244 225 244 257 q 261 159 244 183 q 308 135 278 135 m 231 -279 l 231 -96 l 417 -96 l 417 -279 l 231 -279 m 343 893 q 188 948 244 893 q 132 1103 132 1003 l 251 1103 q 272 1027 251 1053 q 343 1001 293 1001 q 413 1028 392 1001 q 435 1103 435 1054 l 553 1103 q 497 948 553 1003 q 343 893 442 893 z "},"ằ":{"ha":646,"x_min":51,"x_max":596,"o":"m 232 -14 q 134 15 175 -14 q 72 89 93 44 q 51 181 51 133 q 81 307 51 256 q 157 393 110 358 q 263 453 204 428 q 379 499 321 478 l 379 574 q 375 619 379 600 q 359 649 371 639 q 325 660 347 660 q 291 651 303 660 q 274 624 279 642 q 268 586 269 607 l 264 531 l 65 539 q 140 749 72 681 q 343 817 207 817 q 524 749 465 817 q 582 572 582 682 l 582 199 q 584 115 582 151 q 590 49 586 78 q 596 0 593 21 l 407 0 q 397 67 403 31 q 389 115 392 103 q 336 26 375 65 q 232 -14 297 -14 m 308 135 q 338 142 324 135 q 362 160 351 149 q 379 181 372 171 l 379 401 q 325 366 350 383 q 282 328 300 349 q 254 282 264 307 q 244 225 244 257 q 261 159 244 183 q 308 135 278 135 m 308 1149 l 157 1311 l 332 1311 l 429 1149 l 308 1149 m 343 882 q 188 938 244 882 q 132 1093 132 993 l 251 1093 q 272 1017 251 1042 q 343 992 293 992 q 413 1017 392 992 q 435 1093 435 1043 l 553 1093 q 497 938 553 993 q 343 882 442 882 z "},"ẳ":{"ha":646,"x_min":51,"x_max":596,"o":"m 232 -14 q 134 15 175 -14 q 72 89 93 44 q 51 181 51 133 q 81 307 51 256 q 157 393 110 358 q 263 453 204 428 q 379 499 321 478 l 379 574 q 375 619 379 600 q 359 649 371 639 q 325 660 347 660 q 291 651 303 660 q 274 624 279 642 q 268 586 269 607 l 264 531 l 65 539 q 140 749 72 681 q 343 817 207 817 q 524 749 465 817 q 582 572 582 682 l 582 199 q 584 115 582 151 q 590 49 586 78 q 596 0 593 21 l 407 0 q 397 67 403 31 q 389 115 392 103 q 336 26 375 65 q 232 -14 297 -14 m 308 135 q 338 142 324 135 q 362 160 351 149 q 379 181 372 171 l 379 401 q 325 366 350 383 q 282 328 300 349 q 254 282 264 307 q 244 225 244 257 q 261 159 244 183 q 308 135 278 135 m 358 1107 l 297 1172 q 338 1210 322 1192 q 353 1256 353 1229 q 335 1296 353 1282 q 288 1310 317 1310 q 251 1306 268 1310 q 218 1297 233 1303 l 218 1388 q 274 1403 246 1397 q 331 1408 301 1408 q 442 1375 399 1408 q 486 1274 486 1342 q 449 1173 486 1213 q 358 1107 411 1133 m 343 893 q 188 948 244 893 q 132 1103 132 1003 l 251 1103 q 272 1027 251 1053 q 343 1001 293 1001 q 413 1028 392 1001 q 435 1103 435 1054 l 553 1103 q 497 948 553 1003 q 343 893 442 893 z "},"ẵ":{"ha":646,"x_min":51,"x_max":596,"o":"m 232 -14 q 134 15 175 -14 q 72 89 93 44 q 51 181 51 133 q 81 307 51 256 q 157 393 110 358 q 263 453 204 428 q 379 499 321 478 l 379 574 q 375 619 379 600 q 359 649 371 639 q 325 660 347 660 q 291 651 303 660 q 274 624 279 642 q 268 586 269 607 l 264 531 l 65 539 q 140 749 72 681 q 343 817 207 817 q 524 749 465 817 q 582 572 582 682 l 582 199 q 584 115 582 151 q 590 49 586 78 q 596 0 593 21 l 407 0 q 397 67 403 31 q 389 115 392 103 q 336 26 375 65 q 232 -14 297 -14 m 308 135 q 338 142 324 135 q 362 160 351 149 q 379 181 372 171 l 379 401 q 325 366 350 383 q 282 328 300 349 q 254 282 264 307 q 244 225 244 257 q 261 159 244 183 q 308 135 278 135 m 343 893 q 188 948 244 893 q 132 1103 132 1003 l 251 1103 q 272 1027 251 1053 q 343 1001 293 1001 q 413 1028 392 1001 q 435 1103 435 1054 l 553 1103 q 497 948 553 1003 q 343 893 442 893 m 454 1176 q 389 1193 418 1176 q 333 1226 360 1210 q 279 1242 307 1242 q 240 1226 250 1242 q 229 1185 229 1210 l 126 1185 q 137 1281 126 1239 q 174 1348 147 1324 q 249 1372 201 1372 q 310 1357 283 1372 q 364 1326 338 1342 q 419 1310 390 1310 q 453 1324 443 1310 q 464 1364 464 1339 l 560 1364 q 553 1276 560 1319 q 524 1205 547 1233 q 454 1176 501 1176 z "},"ǎ":{"ha":646,"x_min":51,"x_max":596,"o":"m 232 -14 q 134 15 175 -14 q 72 89 93 44 q 51 181 51 133 q 81 307 51 256 q 157 393 110 358 q 263 453 204 428 q 379 499 321 478 l 379 574 q 375 619 379 600 q 359 649 371 639 q 325 660 347 660 q 291 651 303 660 q 274 624 279 642 q 268 586 269 607 l 264 531 l 65 539 q 140 749 72 681 q 343 817 207 817 q 524 749 465 817 q 582 572 582 682 l 582 199 q 584 115 582 151 q 590 49 586 78 q 596 0 593 21 l 407 0 q 397 67 403 31 q 389 115 392 103 q 336 26 375 65 q 232 -14 297 -14 m 308 135 q 338 142 324 135 q 362 160 351 149 q 379 181 372 171 l 379 401 q 325 366 350 383 q 282 328 300 349 q 254 282 264 307 q 244 225 244 257 q 261 159 244 183 q 308 135 278 135 m 242 888 l 119 1143 l 271 1143 l 343 988 l 415 1143 l 567 1143 l 444 888 l 242 888 z "},"â":{"ha":646,"x_min":51,"x_max":596,"o":"m 232 -14 q 134 15 175 -14 q 72 89 93 44 q 51 181 51 133 q 81 307 51 256 q 157 393 110 358 q 263 453 204 428 q 379 499 321 478 l 379 574 q 375 619 379 600 q 359 649 371 639 q 325 660 347 660 q 291 651 303 660 q 274 624 279 642 q 268 586 269 607 l 264 531 l 65 539 q 140 749 72 681 q 343 817 207 817 q 524 749 465 817 q 582 572 582 682 l 582 199 q 584 115 582 151 q 590 49 586 78 q 596 0 593 21 l 407 0 q 397 67 403 31 q 389 115 392 103 q 336 26 375 65 q 232 -14 297 -14 m 308 135 q 338 142 324 135 q 362 160 351 149 q 379 181 372 171 l 379 401 q 325 366 350 383 q 282 328 300 349 q 254 282 264 307 q 244 225 244 257 q 261 159 244 183 q 308 135 278 135 m 124 897 l 253 1158 l 431 1158 l 563 897 l 408 897 l 342 1063 l 276 897 l 124 897 z "},"ấ":{"ha":646,"x_min":51,"x_max":761,"o":"m 232 -14 q 134 15 175 -14 q 72 89 93 44 q 51 181 51 133 q 81 307 51 256 q 157 393 110 358 q 263 453 204 428 q 379 499 321 478 l 379 574 q 375 619 379 600 q 359 649 371 639 q 325 660 347 660 q 291 651 303 660 q 274 624 279 642 q 268 586 269 607 l 264 531 l 65 539 q 140 749 72 681 q 343 817 207 817 q 524 749 465 817 q 582 572 582 682 l 582 199 q 584 115 582 151 q 590 49 586 78 q 596 0 593 21 l 407 0 q 397 67 403 31 q 389 115 392 103 q 336 26 375 65 q 232 -14 297 -14 m 308 135 q 338 142 324 135 q 362 160 351 149 q 379 181 372 171 l 379 401 q 325 366 350 383 q 282 328 300 349 q 254 282 264 307 q 244 225 244 257 q 261 159 244 183 q 308 135 278 135 m 124 897 l 253 1125 l 431 1125 l 563 897 l 413 897 l 342 1036 l 272 897 l 124 897 m 528 1057 l 601 1225 l 761 1225 l 642 1057 l 528 1057 z "},"ậ":{"ha":646,"x_min":51,"x_max":596,"o":"m 232 -14 q 134 15 175 -14 q 72 89 93 44 q 51 181 51 133 q 81 307 51 256 q 157 393 110 358 q 263 453 204 428 q 379 499 321 478 l 379 574 q 375 619 379 600 q 359 649 371 639 q 325 660 347 660 q 291 651 303 660 q 274 624 279 642 q 268 586 269 607 l 264 531 l 65 539 q 140 749 72 681 q 343 817 207 817 q 524 749 465 817 q 582 572 582 682 l 582 199 q 584 115 582 151 q 590 49 586 78 q 596 0 593 21 l 407 0 q 397 67 403 31 q 389 115 392 103 q 336 26 375 65 q 232 -14 297 -14 m 308 135 q 338 142 324 135 q 362 160 351 149 q 379 181 372 171 l 379 401 q 325 366 350 383 q 282 328 300 349 q 254 282 264 307 q 244 225 244 257 q 261 159 244 183 q 308 135 278 135 m 231 -279 l 231 -96 l 417 -96 l 417 -279 l 231 -279 m 124 897 l 253 1125 l 431 1125 l 563 897 l 413 897 l 342 1036 l 272 897 l 124 897 z "},"ầ":{"ha":646,"x_min":51,"x_max":682,"o":"m 232 -14 q 134 15 175 -14 q 72 89 93 44 q 51 181 51 133 q 81 307 51 256 q 157 393 110 358 q 263 453 204 428 q 379 499 321 478 l 379 574 q 375 619 379 600 q 359 649 371 639 q 325 660 347 660 q 291 651 303 660 q 274 624 279 642 q 268 586 269 607 l 264 531 l 65 539 q 140 749 72 681 q 343 817 207 817 q 524 749 465 817 q 582 572 582 682 l 582 199 q 584 115 582 151 q 590 49 586 78 q 596 0 593 21 l 407 0 q 397 67 403 31 q 389 115 392 103 q 336 26 375 65 q 232 -14 297 -14 m 308 135 q 338 142 324 135 q 362 160 351 149 q 379 181 372 171 l 379 401 q 325 366 350 383 q 282 328 300 349 q 254 282 264 307 q 244 225 244 257 q 261 159 244 183 q 308 135 278 135 m 124 897 l 253 1125 l 431 1125 l 563 897 l 413 897 l 342 1036 l 272 897 l 124 897 m 567 1057 l 447 1225 l 608 1225 l 682 1057 l 567 1057 z "},"ẩ":{"ha":646,"x_min":51,"x_max":707,"o":"m 232 -14 q 134 15 175 -14 q 72 89 93 44 q 51 181 51 133 q 81 307 51 256 q 157 393 110 358 q 263 453 204 428 q 379 499 321 478 l 379 574 q 375 619 379 600 q 359 649 371 639 q 325 660 347 660 q 291 651 303 660 q 274 624 279 642 q 268 586 269 607 l 264 531 l 65 539 q 140 749 72 681 q 343 817 207 817 q 524 749 465 817 q 582 572 582 682 l 582 199 q 584 115 582 151 q 590 49 586 78 q 596 0 593 21 l 407 0 q 397 67 403 31 q 389 115 392 103 q 336 26 375 65 q 232 -14 297 -14 m 308 135 q 338 142 324 135 q 362 160 351 149 q 379 181 372 171 l 379 401 q 325 366 350 383 q 282 328 300 349 q 254 282 264 307 q 244 225 244 257 q 261 159 244 183 q 308 135 278 135 m 581 1022 l 519 1088 q 560 1126 544 1107 q 575 1171 575 1144 q 557 1211 575 1197 q 510 1225 539 1225 q 472 1222 489 1225 q 440 1213 454 1218 l 440 1303 q 495 1318 468 1313 q 551 1324 522 1324 q 663 1290 619 1324 q 707 1189 707 1257 q 669 1086 707 1124 q 581 1022 632 1049 m 124 897 l 253 1125 l 431 1125 l 563 897 l 413 897 l 342 1036 l 272 897 l 124 897 z "},"ẫ":{"ha":646,"x_min":51,"x_max":596,"o":"m 232 -14 q 134 15 175 -14 q 72 89 93 44 q 51 181 51 133 q 81 307 51 256 q 157 393 110 358 q 263 453 204 428 q 379 499 321 478 l 379 574 q 375 619 379 600 q 359 649 371 639 q 325 660 347 660 q 291 651 303 660 q 274 624 279 642 q 268 586 269 607 l 264 531 l 65 539 q 140 749 72 681 q 343 817 207 817 q 524 749 465 817 q 582 572 582 682 l 582 199 q 584 115 582 151 q 590 49 586 78 q 596 0 593 21 l 407 0 q 397 67 403 31 q 389 115 392 103 q 336 26 375 65 q 232 -14 297 -14 m 308 135 q 338 142 324 135 q 362 160 351 149 q 379 181 372 171 l 379 401 q 325 366 350 383 q 282 328 300 349 q 254 282 264 307 q 244 225 244 257 q 261 159 244 183 q 308 135 278 135 m 124 897 l 253 1125 l 431 1125 l 563 897 l 413 897 l 342 1036 l 272 897 l 124 897 m 454 1193 q 389 1210 418 1193 q 333 1242 360 1226 q 279 1258 307 1258 q 240 1242 250 1258 q 229 1201 229 1226 l 126 1201 q 137 1298 126 1256 q 174 1365 147 1340 q 249 1389 201 1389 q 310 1374 283 1389 q 364 1342 338 1358 q 419 1326 390 1326 q 453 1341 443 1326 q 464 1381 464 1356 l 560 1381 q 553 1293 560 1336 q 524 1222 547 1250 q 454 1193 501 1193 z "},"ȁ":{"ha":646,"x_min":40,"x_max":596,"o":"m 232 -14 q 134 15 175 -14 q 72 89 93 44 q 51 181 51 133 q 81 307 51 256 q 157 393 110 358 q 263 453 204 428 q 379 499 321 478 l 379 574 q 375 619 379 600 q 359 649 371 639 q 325 660 347 660 q 291 651 303 660 q 274 624 279 642 q 268 586 269 607 l 264 531 l 65 539 q 140 749 72 681 q 343 817 207 817 q 524 749 465 817 q 582 572 582 682 l 582 199 q 584 115 582 151 q 590 49 586 78 q 596 0 593 21 l 407 0 q 397 67 403 31 q 389 115 392 103 q 336 26 375 65 q 232 -14 297 -14 m 308 135 q 338 142 324 135 q 362 160 351 149 q 379 181 372 171 l 379 401 q 325 366 350 383 q 282 328 300 349 q 254 282 264 307 q 244 225 244 257 q 261 159 244 183 q 308 135 278 135 m 183 886 l 42 1164 l 208 1164 l 296 886 l 183 886 m 413 886 l 290 1164 l 446 1164 l 522 886 l 413 886 z "},"ä":{"ha":646,"x_min":51,"x_max":596,"o":"m 232 -14 q 134 15 175 -14 q 72 89 93 44 q 51 181 51 133 q 81 307 51 256 q 157 393 110 358 q 263 453 204 428 q 379 499 321 478 l 379 574 q 375 619 379 600 q 359 649 371 639 q 325 660 347 660 q 291 651 303 660 q 274 624 279 642 q 268 586 269 607 l 264 531 l 65 539 q 140 749 72 681 q 343 817 207 817 q 524 749 465 817 q 582 572 582 682 l 582 199 q 584 115 582 151 q 590 49 586 78 q 596 0 593 21 l 407 0 q 397 67 403 31 q 389 115 392 103 q 336 26 375 65 q 232 -14 297 -14 m 308 135 q 338 142 324 135 q 362 160 351 149 q 379 181 372 171 l 379 401 q 325 366 350 383 q 282 328 300 349 q 254 282 264 307 q 244 225 244 257 q 261 159 244 183 q 308 135 278 135 m 400 931 l 400 1125 l 575 1125 l 575 931 l 400 931 m 111 931 l 111 1125 l 286 1125 l 286 931 l 111 931 z "},"ạ":{"ha":646,"x_min":51,"x_max":596,"o":"m 232 -14 q 134 15 175 -14 q 72 89 93 44 q 51 181 51 133 q 81 307 51 256 q 157 393 110 358 q 263 453 204 428 q 379 499 321 478 l 379 574 q 375 619 379 600 q 359 649 371 639 q 325 660 347 660 q 291 651 303 660 q 274 624 279 642 q 268 586 269 607 l 264 531 l 65 539 q 140 749 72 681 q 343 817 207 817 q 524 749 465 817 q 582 572 582 682 l 582 199 q 584 115 582 151 q 590 49 586 78 q 596 0 593 21 l 407 0 q 397 67 403 31 q 389 115 392 103 q 336 26 375 65 q 232 -14 297 -14 m 308 135 q 338 142 324 135 q 362 160 351 149 q 379 181 372 171 l 379 401 q 325 366 350 383 q 282 328 300 349 q 254 282 264 307 q 244 225 244 257 q 261 159 244 183 q 308 135 278 135 m 231 -279 l 231 -96 l 417 -96 l 417 -279 l 231 -279 z "},"à":{"ha":646,"x_min":51,"x_max":596,"o":"m 232 -14 q 134 15 175 -14 q 72 89 93 44 q 51 181 51 133 q 81 307 51 256 q 157 393 110 358 q 263 453 204 428 q 379 499 321 478 l 379 574 q 375 619 379 600 q 359 649 371 639 q 325 660 347 660 q 291 651 303 660 q 274 624 279 642 q 268 586 269 607 l 264 531 l 65 539 q 140 749 72 681 q 343 817 207 817 q 524 749 465 817 q 582 572 582 682 l 582 199 q 584 115 582 151 q 590 49 586 78 q 596 0 593 21 l 407 0 q 397 67 403 31 q 389 115 392 103 q 336 26 375 65 q 232 -14 297 -14 m 308 135 q 338 142 324 135 q 362 160 351 149 q 379 181 372 171 l 379 401 q 325 366 350 383 q 282 328 300 349 q 254 282 264 307 q 244 225 244 257 q 261 159 244 183 q 308 135 278 135 m 283 888 l 111 1165 l 326 1165 l 410 888 l 283 888 z "},"ả":{"ha":646,"x_min":51,"x_max":596,"o":"m 232 -14 q 134 15 175 -14 q 72 89 93 44 q 51 181 51 133 q 81 307 51 256 q 157 393 110 358 q 263 453 204 428 q 379 499 321 478 l 379 574 q 375 619 379 600 q 359 649 371 639 q 325 660 347 660 q 291 651 303 660 q 274 624 279 642 q 268 586 269 607 l 264 531 l 65 539 q 140 749 72 681 q 343 817 207 817 q 524 749 465 817 q 582 572 582 682 l 582 199 q 584 115 582 151 q 590 49 586 78 q 596 0 593 21 l 407 0 q 397 67 403 31 q 389 115 392 103 q 336 26 375 65 q 232 -14 297 -14 m 308 135 q 338 142 324 135 q 362 160 351 149 q 379 181 372 171 l 379 401 q 325 366 350 383 q 282 328 300 349 q 254 282 264 307 q 244 225 244 257 q 261 159 244 183 q 308 135 278 135 m 343 874 l 274 942 q 342 980 314 961 q 371 1029 371 999 q 349 1068 371 1057 q 290 1079 326 1079 q 248 1076 269 1079 q 208 1069 226 1074 l 208 1160 q 343 1176 272 1176 q 426 1163 388 1176 q 487 1121 464 1150 q 510 1043 510 1092 q 487 964 510 996 q 426 911 464 932 q 343 874 389 890 z "},"ȃ":{"ha":646,"x_min":51,"x_max":596,"o":"m 232 -14 q 134 15 175 -14 q 72 89 93 44 q 51 181 51 133 q 81 307 51 256 q 157 393 110 358 q 263 453 204 428 q 379 499 321 478 l 379 574 q 375 619 379 600 q 359 649 371 639 q 325 660 347 660 q 291 651 303 660 q 274 624 279 642 q 268 586 269 607 l 264 531 l 65 539 q 140 749 72 681 q 343 817 207 817 q 524 749 465 817 q 582 572 582 682 l 582 199 q 584 115 582 151 q 590 49 586 78 q 596 0 593 21 l 407 0 q 397 67 403 31 q 389 115 392 103 q 336 26 375 65 q 232 -14 297 -14 m 308 135 q 338 142 324 135 q 362 160 351 149 q 379 181 372 171 l 379 401 q 325 366 350 383 q 282 328 300 349 q 254 282 264 307 q 244 225 244 257 q 261 159 244 183 q 308 135 278 135 m 132 906 q 157 1022 133 974 q 228 1097 181 1071 q 343 1122 275 1122 q 459 1097 413 1122 q 530 1022 506 1071 q 554 906 554 974 l 435 906 q 414 988 435 961 q 343 1014 393 1014 q 273 988 294 1014 q 251 906 251 963 l 132 906 z "},"ā":{"ha":646,"x_min":51,"x_max":596,"o":"m 232 -14 q 134 15 175 -14 q 72 89 93 44 q 51 181 51 133 q 81 307 51 256 q 157 393 110 358 q 263 453 204 428 q 379 499 321 478 l 379 574 q 375 619 379 600 q 359 649 371 639 q 325 660 347 660 q 291 651 303 660 q 274 624 279 642 q 268 586 269 607 l 264 531 l 65 539 q 140 749 72 681 q 343 817 207 817 q 524 749 465 817 q 582 572 582 682 l 582 199 q 584 115 582 151 q 590 49 586 78 q 596 0 593 21 l 407 0 q 397 67 403 31 q 389 115 392 103 q 336 26 375 65 q 232 -14 297 -14 m 308 135 q 338 142 324 135 q 362 160 351 149 q 379 181 372 171 l 379 401 q 325 366 350 383 q 282 328 300 349 q 254 282 264 307 q 244 225 244 257 q 261 159 244 183 q 308 135 278 135 m 164 931 l 164 1033 l 522 1033 l 522 931 l 164 931 z "},"ą":{"ha":646,"x_min":51,"x_max":629,"o":"m 232 -14 q 134 15 175 -14 q 72 89 93 44 q 51 181 51 133 q 81 307 51 256 q 157 393 110 358 q 263 453 204 428 q 379 499 321 478 l 379 574 q 375 619 379 600 q 359 649 371 639 q 325 660 347 660 q 291 651 303 660 q 274 624 279 642 q 268 586 269 607 l 264 531 l 65 539 q 140 749 72 681 q 343 817 207 817 q 524 749 465 817 q 582 572 582 682 l 582 199 q 584 115 582 151 q 590 49 586 78 q 596 0 593 21 l 407 0 q 397 67 403 31 q 389 115 392 103 q 336 26 375 65 q 232 -14 297 -14 m 308 135 q 338 142 324 135 q 362 160 351 149 q 379 181 372 171 l 379 401 q 325 366 350 383 q 282 328 300 349 q 254 282 264 307 q 244 225 244 257 q 261 159 244 183 q 308 135 278 135 m 560 -353 q 486 -348 524 -353 q 417 -328 449 -343 q 365 -285 385 -314 q 344 -210 344 -257 q 362 -131 344 -171 q 406 -56 379 -90 q 463 0 433 -22 l 558 0 q 528 -52 543 -24 q 503 -110 513 -81 q 494 -171 494 -140 q 524 -233 494 -217 q 588 -249 553 -249 q 610 -248 599 -249 q 629 -246 621 -247 l 606 -349 q 585 -351 597 -350 q 560 -353 572 -353 z "},"å":{"ha":646,"x_min":51,"x_max":596,"o":"m 232 -14 q 134 15 175 -14 q 72 89 93 44 q 51 181 51 133 q 81 307 51 256 q 157 393 110 358 q 263 453 204 428 q 379 499 321 478 l 379 574 q 375 619 379 600 q 359 649 371 639 q 325 660 347 660 q 291 651 303 660 q 274 624 279 642 q 268 586 269 607 l 264 531 l 65 539 q 140 749 72 681 q 343 817 207 817 q 524 749 465 817 q 582 572 582 682 l 582 199 q 584 115 582 151 q 590 49 586 78 q 596 0 593 21 l 407 0 q 397 67 403 31 q 389 115 392 103 q 336 26 375 65 q 232 -14 297 -14 m 308 135 q 338 142 324 135 q 362 160 351 149 q 379 181 372 171 l 379 401 q 325 366 350 383 q 282 328 300 349 q 254 282 264 307 q 244 225 244 257 q 261 159 244 183 q 308 135 278 135 m 342 856 q 229 895 276 856 q 182 1008 182 935 q 229 1122 182 1083 q 342 1161 276 1161 q 456 1122 408 1161 q 504 1008 504 1082 q 457 895 504 935 q 342 856 410 856 m 342 935 q 395 956 376 935 q 414 1008 414 978 q 395 1062 414 1040 q 342 1083 376 1083 q 290 1062 308 1083 q 271 1008 271 1040 q 290 956 271 978 q 342 935 308 935 z "},"ǻ":{"ha":646,"x_min":51,"x_max":596,"o":"m 232 -14 q 134 15 175 -14 q 72 89 93 44 q 51 181 51 133 q 81 307 51 256 q 157 393 110 358 q 263 453 204 428 q 379 499 321 478 l 379 574 q 375 619 379 600 q 359 649 371 639 q 325 660 347 660 q 291 651 303 660 q 274 624 279 642 q 268 586 269 607 l 264 531 l 65 539 q 140 749 72 681 q 343 817 207 817 q 524 749 465 817 q 582 572 582 682 l 582 199 q 584 115 582 151 q 590 49 586 78 q 596 0 593 21 l 407 0 q 397 67 403 31 q 389 115 392 103 q 336 26 375 65 q 232 -14 297 -14 m 308 135 q 338 142 324 135 q 362 160 351 149 q 379 181 372 171 l 379 401 q 325 366 350 383 q 282 328 300 349 q 254 282 264 307 q 244 225 244 257 q 261 159 244 183 q 308 135 278 135 m 342 856 q 229 895 276 856 q 182 1008 182 935 q 229 1122 182 1083 q 342 1161 276 1161 q 456 1122 408 1161 q 504 1008 504 1082 q 457 895 504 935 q 342 856 410 856 m 342 935 q 395 956 376 935 q 414 1008 414 978 q 395 1062 414 1040 q 342 1083 376 1083 q 290 1062 308 1083 q 271 1008 271 1040 q 290 956 271 978 q 342 935 308 935 m 276 1225 l 363 1503 l 575 1503 l 404 1225 l 276 1225 z "},"ã":{"ha":646,"x_min":51,"x_max":596,"o":"m 232 -14 q 134 15 175 -14 q 72 89 93 44 q 51 181 51 133 q 81 307 51 256 q 157 393 110 358 q 263 453 204 428 q 379 499 321 478 l 379 574 q 375 619 379 600 q 359 649 371 639 q 325 660 347 660 q 291 651 303 660 q 274 624 279 642 q 268 586 269 607 l 264 531 l 65 539 q 140 749 72 681 q 343 817 207 817 q 524 749 465 817 q 582 572 582 682 l 582 199 q 584 115 582 151 q 590 49 586 78 q 596 0 593 21 l 407 0 q 397 67 403 31 q 389 115 392 103 q 336 26 375 65 q 232 -14 297 -14 m 308 135 q 338 142 324 135 q 362 160 351 149 q 379 181 372 171 l 379 401 q 325 366 350 383 q 282 328 300 349 q 254 282 264 307 q 244 225 244 257 q 261 159 244 183 q 308 135 278 135 m 454 938 q 389 954 418 938 q 333 987 360 971 q 279 1003 307 1003 q 240 987 250 1003 q 229 946 229 971 l 126 946 q 137 1042 126 1000 q 174 1109 147 1085 q 249 1133 201 1133 q 310 1118 283 1133 q 364 1087 338 1103 q 419 1071 390 1071 q 453 1085 443 1071 q 464 1125 464 1100 l 560 1125 q 553 1038 560 1081 q 524 966 547 994 q 454 938 501 938 z "},"æ":{"ha":935,"x_min":51,"x_max":878,"o":"m 260 -15 q 107 39 163 -15 q 51 183 51 93 q 83 310 51 261 q 169 390 115 360 q 286 435 222 419 l 375 457 l 375 567 q 363 638 375 615 q 319 660 350 660 q 285 648 299 660 q 265 610 272 636 q 258 539 258 583 l 54 544 q 115 745 54 674 q 303 817 176 817 q 431 781 385 817 q 483 693 476 744 l 460 693 q 493 756 465 728 q 565 800 521 783 q 664 817 610 817 q 826 763 774 817 q 878 625 878 708 q 850 514 878 556 q 775 449 822 472 q 669 413 728 426 l 576 392 l 576 229 q 586 162 576 188 q 628 136 596 136 q 660 149 650 136 q 674 183 671 161 q 678 232 678 204 l 678 281 l 874 281 l 874 222 q 849 94 874 147 q 774 13 824 40 q 649 -15 724 -15 q 564 1 604 -15 q 496 48 524 17 q 460 124 468 79 q 415 48 444 79 q 345 1 385 17 q 260 -15 306 -15 m 307 129 q 344 140 329 129 q 367 171 358 150 q 375 225 375 192 l 375 360 l 328 340 q 278 310 297 328 q 249 270 258 293 q 240 217 240 247 q 247 172 240 192 q 269 141 254 153 q 307 129 283 129 m 575 490 l 608 497 q 679 528 657 507 q 701 593 701 550 q 688 642 701 622 q 642 661 674 661 q 603 650 618 661 q 582 619 589 639 q 575 569 575 600 l 575 490 z "},"ǽ":{"ha":935,"x_min":51,"x_max":878,"o":"m 260 -15 q 107 39 163 -15 q 51 183 51 93 q 83 310 51 261 q 169 390 115 360 q 286 435 222 419 l 375 457 l 375 567 q 363 638 375 615 q 319 660 350 660 q 285 648 299 660 q 265 610 272 636 q 258 539 258 583 l 54 544 q 115 745 54 674 q 303 817 176 817 q 431 781 385 817 q 483 693 476 744 l 460 693 q 493 756 465 728 q 565 800 521 783 q 664 817 610 817 q 826 763 774 817 q 878 625 878 708 q 850 514 878 556 q 775 449 822 472 q 669 413 728 426 l 576 392 l 576 229 q 586 162 576 188 q 628 136 596 136 q 660 149 650 136 q 674 183 671 161 q 678 232 678 204 l 678 281 l 874 281 l 874 222 q 849 94 874 147 q 774 13 824 40 q 649 -15 724 -15 q 564 1 604 -15 q 496 48 524 17 q 460 124 468 79 q 415 48 444 79 q 345 1 385 17 q 260 -15 306 -15 m 307 129 q 344 140 329 129 q 367 171 358 150 q 375 225 375 192 l 375 360 l 328 340 q 278 310 297 328 q 249 270 258 293 q 240 217 240 247 q 247 172 240 192 q 269 141 254 153 q 307 129 283 129 m 575 490 l 608 497 q 679 528 657 507 q 701 593 701 550 q 688 642 701 622 q 642 661 674 661 q 603 650 618 661 q 582 619 589 639 q 575 569 575 600 l 575 490 m 403 888 l 489 1165 l 701 1165 l 531 888 l 403 888 z "},"b":{"ha":685,"x_min":72,"x_max":626,"o":"m 447 -14 q 361 7 403 -14 q 282 61 319 28 l 282 0 l 72 0 l 72 1125 l 282 1125 l 282 743 q 364 797 321 778 q 453 817 407 817 q 535 795 501 817 q 589 738 568 774 q 618 657 610 701 q 626 567 626 613 l 626 253 q 607 115 626 175 q 548 21 588 56 q 447 -14 508 -14 m 354 126 q 393 142 379 126 q 412 185 407 158 q 417 243 417 211 l 417 579 q 411 632 417 608 q 392 670 406 656 q 354 685 379 685 q 317 676 335 685 q 282 654 299 667 l 282 151 q 317 133 299 140 q 354 126 335 126 z "},"ḃ":{"ha":685,"x_min":72,"x_max":626,"o":"m 447 -14 q 361 7 403 -14 q 282 61 319 28 l 282 0 l 72 0 l 72 1125 l 282 1125 l 282 743 q 364 797 321 778 q 453 817 407 817 q 535 795 501 817 q 589 738 568 774 q 618 657 610 701 q 626 567 626 613 l 626 253 q 607 115 626 175 q 548 21 588 56 q 447 -14 508 -14 m 354 126 q 393 142 379 126 q 412 185 407 158 q 417 243 417 211 l 417 579 q 411 632 417 608 q 392 670 406 656 q 354 685 379 685 q 317 676 335 685 q 282 654 299 667 l 282 151 q 317 133 299 140 q 354 126 335 126 m 78 1233 l 78 1438 l 278 1438 l 278 1233 l 78 1233 z "},"c":{"ha":633,"x_min":56,"x_max":583,"o":"m 324 -14 q 175 20 235 -14 q 85 117 115 54 q 56 265 56 179 l 56 536 q 85 688 56 626 q 175 783 115 750 q 324 817 235 817 q 468 790 410 817 q 555 708 526 763 q 583 572 583 654 l 583 496 l 383 496 l 383 578 q 377 634 383 614 q 358 663 371 654 q 324 671 344 671 q 290 660 303 671 q 272 626 278 650 q 267 558 267 601 l 267 243 q 281 155 267 178 q 325 132 296 132 q 360 142 347 132 q 378 172 372 151 q 383 225 383 193 l 383 322 l 583 322 l 583 235 q 554 98 583 154 q 467 14 525 42 q 324 -14 408 -14 z "},"ć":{"ha":633,"x_min":56,"x_max":583,"o":"m 324 -14 q 175 20 235 -14 q 85 117 115 54 q 56 265 56 179 l 56 536 q 85 688 56 626 q 175 783 115 750 q 324 817 235 817 q 468 790 410 817 q 555 708 526 763 q 583 572 583 654 l 583 496 l 383 496 l 383 578 q 377 634 383 614 q 358 663 371 654 q 324 671 344 671 q 290 660 303 671 q 272 626 278 650 q 267 558 267 601 l 267 243 q 281 155 267 178 q 325 132 296 132 q 360 142 347 132 q 378 172 372 151 q 383 225 383 193 l 383 322 l 583 322 l 583 235 q 554 98 583 154 q 467 14 525 42 q 324 -14 408 -14 m 251 888 l 338 1165 l 550 1165 l 379 888 l 251 888 z "},"č":{"ha":633,"x_min":56,"x_max":583,"o":"m 324 -14 q 175 20 235 -14 q 85 117 115 54 q 56 265 56 179 l 56 536 q 85 688 56 626 q 175 783 115 750 q 324 817 235 817 q 468 790 410 817 q 555 708 526 763 q 583 572 583 654 l 583 496 l 383 496 l 383 578 q 377 634 383 614 q 358 663 371 654 q 324 671 344 671 q 290 660 303 671 q 272 626 278 650 q 267 558 267 601 l 267 243 q 281 155 267 178 q 325 132 296 132 q 360 142 347 132 q 378 172 372 151 q 383 225 383 193 l 383 322 l 583 322 l 583 235 q 554 98 583 154 q 467 14 525 42 q 324 -14 408 -14 m 217 888 l 94 1143 l 246 1143 l 318 988 l 390 1143 l 542 1143 l 419 888 l 217 888 z "},"ç":{"ha":633,"x_min":56,"x_max":583,"o":"m 324 -14 q 175 20 235 -14 q 85 117 115 54 q 56 265 56 179 l 56 536 q 85 688 56 626 q 175 783 115 750 q 324 817 235 817 q 468 790 410 817 q 555 708 526 763 q 583 572 583 654 l 583 496 l 383 496 l 383 578 q 377 634 383 614 q 358 663 371 654 q 324 671 344 671 q 290 660 303 671 q 272 626 278 650 q 267 558 267 601 l 267 243 q 281 155 267 178 q 325 132 296 132 q 360 142 347 132 q 378 172 372 151 q 383 225 383 193 l 383 322 l 583 322 l 583 235 q 554 98 583 154 q 467 14 525 42 q 324 -14 408 -14 m 344 -372 q 292 -368 318 -372 q 240 -356 265 -364 l 240 -264 q 277 -272 257 -268 q 318 -275 297 -275 q 379 -263 354 -275 q 404 -225 404 -251 q 385 -183 404 -199 q 338 -161 367 -168 q 278 -151 310 -154 l 278 0 l 358 0 l 358 -89 q 492 -124 442 -89 q 542 -228 542 -158 q 515 -311 542 -279 q 442 -358 488 -343 q 344 -372 397 -372 z "},"ĉ":{"ha":633,"x_min":56,"x_max":583,"o":"m 324 -14 q 175 20 235 -14 q 85 117 115 54 q 56 265 56 179 l 56 536 q 85 688 56 626 q 175 783 115 750 q 324 817 235 817 q 468 790 410 817 q 555 708 526 763 q 583 572 583 654 l 583 496 l 383 496 l 383 578 q 377 634 383 614 q 358 663 371 654 q 324 671 344 671 q 290 660 303 671 q 272 626 278 650 q 267 558 267 601 l 267 243 q 281 155 267 178 q 325 132 296 132 q 360 142 347 132 q 378 172 372 151 q 383 225 383 193 l 383 322 l 583 322 l 583 235 q 554 98 583 154 q 467 14 525 42 q 324 -14 408 -14 m 99 897 l 228 1158 l 406 1158 l 538 897 l 383 897 l 317 1063 l 251 897 l 99 897 z "},"ċ":{"ha":633,"x_min":56,"x_max":583,"o":"m 324 -14 q 175 20 235 -14 q 85 117 115 54 q 56 265 56 179 l 56 536 q 85 688 56 626 q 175 783 115 750 q 324 817 235 817 q 468 790 410 817 q 555 708 526 763 q 583 572 583 654 l 583 496 l 383 496 l 383 578 q 377 634 383 614 q 358 663 371 654 q 324 671 344 671 q 290 660 303 671 q 272 626 278 650 q 267 558 267 601 l 267 243 q 281 155 267 178 q 325 132 296 132 q 360 142 347 132 q 378 172 372 151 q 383 225 383 193 l 383 322 l 583 322 l 583 235 q 554 98 583 154 q 467 14 525 42 q 324 -14 408 -14 m 218 911 l 218 1115 l 418 1115 l 418 911 l 218 911 z "},"d":{"ha":681,"x_min":58,"x_max":610,"o":"m 249 -14 q 108 51 157 -14 q 58 251 58 117 l 58 546 q 78 685 58 624 q 140 781 99 746 q 247 817 182 817 q 329 799 290 817 q 400 753 368 781 l 400 1125 l 610 1125 l 610 0 l 400 0 l 400 60 q 327 6 365 26 q 249 -14 289 -14 m 333 125 q 365 131 347 125 q 400 149 382 138 l 400 660 q 368 674 385 668 q 335 681 351 681 q 284 650 299 681 q 269 576 269 619 l 269 238 q 275 180 269 206 q 294 140 281 154 q 333 125 308 125 z "},"ð":{"ha":708,"x_min":75,"x_max":653,"o":"m 357 -18 q 213 15 276 -18 q 112 119 149 49 q 75 297 75 189 l 75 501 q 104 659 75 592 q 188 764 133 726 q 314 801 242 801 q 377 792 349 801 q 425 771 406 783 q 413 867 422 825 q 389 929 403 910 l 258 868 l 239 929 l 351 982 q 290 1019 335 1006 q 171 1032 246 1032 l 181 1165 q 382 1138 303 1164 q 504 1063 461 1113 l 632 1124 l 653 1064 l 544 1011 q 586 917 565 972 q 622 783 607 861 q 636 596 636 704 l 636 306 q 600 115 636 185 q 501 13 564 44 q 357 -18 439 -18 m 361 125 q 401 141 388 125 q 420 186 415 157 q 425 254 425 215 q 425 351 425 303 q 425 447 425 399 q 425 542 425 494 q 425 638 425 590 q 398 653 413 646 q 364 660 383 660 q 311 635 329 660 q 287 555 293 611 q 281 400 281 499 q 285 240 281 301 q 306 152 289 179 q 361 125 324 125 z "},"ď":{"ha":856,"x_min":58,"x_max":879,"o":"m 249 -14 q 108 51 157 -14 q 58 251 58 117 l 58 546 q 78 685 58 624 q 140 781 99 746 q 247 817 182 817 q 329 799 290 817 q 400 753 368 781 l 400 1125 l 610 1125 l 610 0 l 400 0 l 400 60 q 327 6 365 26 q 249 -14 289 -14 m 333 125 q 365 131 347 125 q 400 149 382 138 l 400 660 q 368 674 385 668 q 335 681 351 681 q 284 650 299 681 q 269 576 269 619 l 269 238 q 275 180 269 206 q 294 140 281 154 q 333 125 308 125 m 711 732 l 696 803 q 761 841 732 814 q 790 924 790 868 l 679 924 l 679 1126 l 881 1126 l 881 947 q 838 797 881 850 q 711 732 796 743 z "},"đ":{"ha":681,"x_min":56,"x_max":675,"o":"m 244 -14 q 104 51 153 -14 q 56 251 56 117 l 56 546 q 75 685 56 624 q 136 781 94 746 q 244 817 178 817 q 325 799 288 817 q 394 753 363 781 l 394 946 l 215 946 l 215 1035 l 394 1035 l 394 1125 l 604 1125 l 604 1035 l 675 1035 l 675 946 l 604 946 l 604 0 l 394 0 l 394 60 q 324 6 361 26 q 244 -14 286 -14 m 331 125 q 360 131 343 125 q 394 149 378 138 l 394 660 q 363 674 379 668 q 331 681 347 681 q 281 650 296 681 q 267 576 267 619 l 267 238 q 272 180 267 206 q 292 140 278 154 q 331 125 306 125 z "},"ḋ":{"ha":681,"x_min":58,"x_max":610,"o":"m 249 -14 q 108 51 157 -14 q 58 251 58 117 l 58 546 q 78 685 58 624 q 140 781 99 746 q 247 817 182 817 q 329 799 290 817 q 400 753 368 781 l 400 1125 l 610 1125 l 610 0 l 400 0 l 400 60 q 327 6 365 26 q 249 -14 289 -14 m 333 125 q 365 131 347 125 q 400 149 382 138 l 400 660 q 368 674 385 668 q 335 681 351 681 q 284 650 299 681 q 269 576 269 619 l 269 238 q 275 180 269 206 q 294 140 281 154 q 333 125 308 125 m 404 1233 l 404 1438 l 604 1438 l 604 1233 l 404 1233 z "},"ǳ":{"ha":1211,"x_min":58,"x_max":1175,"o":"m 249 -14 q 108 51 157 -14 q 58 251 58 117 l 58 546 q 78 685 58 624 q 140 781 99 746 q 247 817 182 817 q 329 799 290 817 q 400 753 368 781 l 400 1125 l 610 1125 l 610 0 l 400 0 l 400 60 q 327 6 365 26 q 249 -14 289 -14 m 333 125 q 365 131 347 125 q 400 149 382 138 l 400 660 q 368 674 385 668 q 335 681 351 681 q 284 650 299 681 q 269 576 269 619 l 269 238 q 275 180 269 206 q 294 140 281 154 q 333 125 308 125 m 728 0 l 728 136 l 954 649 l 747 649 l 747 803 l 1174 803 l 1174 678 l 946 154 l 1175 154 l 1175 0 l 728 0 z "},"ǆ":{"ha":1211,"x_min":58,"x_max":1175,"o":"m 249 -14 q 108 51 157 -14 q 58 251 58 117 l 58 546 q 78 685 58 624 q 140 781 99 746 q 247 817 182 817 q 329 799 290 817 q 400 753 368 781 l 400 1125 l 610 1125 l 610 0 l 400 0 l 400 60 q 327 6 365 26 q 249 -14 289 -14 m 333 125 q 365 131 347 125 q 400 149 382 138 l 400 660 q 368 674 385 668 q 335 681 351 681 q 284 650 299 681 q 269 576 269 619 l 269 238 q 275 180 269 206 q 294 140 281 154 q 333 125 308 125 m 728 0 l 728 136 l 954 649 l 747 649 l 747 803 l 1174 803 l 1174 678 l 946 154 l 1175 154 l 1175 0 l 728 0 m 844 888 l 722 1143 l 874 1143 l 946 988 l 1018 1143 l 1169 1143 l 1047 888 l 844 888 z "},"e":{"ha":639,"x_min":56,"x_max":585,"o":"m 325 -14 q 176 19 236 -14 q 86 115 117 51 q 56 267 56 178 l 56 536 q 86 690 56 628 q 178 784 117 751 q 325 817 239 817 q 474 783 417 817 q 558 686 531 750 q 585 531 585 622 l 585 390 l 263 390 l 263 235 q 270 178 263 200 q 292 147 278 156 q 326 138 306 138 q 360 147 346 138 q 382 175 375 156 q 389 226 389 194 l 389 303 l 583 303 l 583 236 q 517 50 583 114 q 325 -14 450 -14 m 263 490 l 389 490 l 389 569 q 382 626 389 604 q 360 656 375 647 q 324 665 346 665 q 290 656 303 665 q 269 622 276 646 q 263 553 263 597 l 263 490 z "},"é":{"ha":639,"x_min":56,"x_max":585,"o":"m 325 -14 q 176 19 236 -14 q 86 115 117 51 q 56 267 56 178 l 56 536 q 86 690 56 628 q 178 784 117 751 q 325 817 239 817 q 474 783 417 817 q 558 686 531 750 q 585 531 585 622 l 585 390 l 263 390 l 263 235 q 270 178 263 200 q 292 147 278 156 q 326 138 306 138 q 360 147 346 138 q 382 175 375 156 q 389 226 389 194 l 389 303 l 583 303 l 583 236 q 517 50 583 114 q 325 -14 450 -14 m 263 490 l 389 490 l 389 569 q 382 626 389 604 q 360 656 375 647 q 324 665 346 665 q 290 656 303 665 q 269 622 276 646 q 263 553 263 597 l 263 490 m 256 888 l 342 1165 l 554 1165 l 383 888 l 256 888 z "},"ĕ":{"ha":639,"x_min":56,"x_max":585,"o":"m 325 -14 q 176 19 236 -14 q 86 115 117 51 q 56 267 56 178 l 56 536 q 86 690 56 628 q 178 784 117 751 q 325 817 239 817 q 474 783 417 817 q 558 686 531 750 q 585 531 585 622 l 585 390 l 263 390 l 263 235 q 270 178 263 200 q 292 147 278 156 q 326 138 306 138 q 360 147 346 138 q 382 175 375 156 q 389 226 389 194 l 389 303 l 583 303 l 583 236 q 517 50 583 114 q 325 -14 450 -14 m 263 490 l 389 490 l 389 569 q 382 626 389 604 q 360 656 375 647 q 324 665 346 665 q 290 656 303 665 q 269 622 276 646 q 263 553 263 597 l 263 490 m 322 893 q 167 948 224 893 q 111 1103 111 1003 l 231 1103 q 251 1027 231 1053 q 322 1001 272 1001 q 392 1028 371 1001 q 414 1103 414 1054 l 532 1103 q 476 948 532 1003 q 322 893 421 893 z "},"ě":{"ha":639,"x_min":56,"x_max":585,"o":"m 325 -14 q 176 19 236 -14 q 86 115 117 51 q 56 267 56 178 l 56 536 q 86 690 56 628 q 178 784 117 751 q 325 817 239 817 q 474 783 417 817 q 558 686 531 750 q 585 531 585 622 l 585 390 l 263 390 l 263 235 q 270 178 263 200 q 292 147 278 156 q 326 138 306 138 q 360 147 346 138 q 382 175 375 156 q 389 226 389 194 l 389 303 l 583 303 l 583 236 q 517 50 583 114 q 325 -14 450 -14 m 263 490 l 389 490 l 389 569 q 382 626 389 604 q 360 656 375 647 q 324 665 346 665 q 290 656 303 665 q 269 622 276 646 q 263 553 263 597 l 263 490 m 221 888 l 99 1143 l 250 1143 l 322 988 l 394 1143 l 546 1143 l 424 888 l 221 888 z "},"ê":{"ha":639,"x_min":56,"x_max":585,"o":"m 325 -14 q 176 19 236 -14 q 86 115 117 51 q 56 267 56 178 l 56 536 q 86 690 56 628 q 178 784 117 751 q 325 817 239 817 q 474 783 417 817 q 558 686 531 750 q 585 531 585 622 l 585 390 l 263 390 l 263 235 q 270 178 263 200 q 292 147 278 156 q 326 138 306 138 q 360 147 346 138 q 382 175 375 156 q 389 226 389 194 l 389 303 l 583 303 l 583 236 q 517 50 583 114 q 325 -14 450 -14 m 263 490 l 389 490 l 389 569 q 382 626 389 604 q 360 656 375 647 q 324 665 346 665 q 290 656 303 665 q 269 622 276 646 q 263 553 263 597 l 263 490 m 103 897 l 232 1158 l 410 1158 l 542 897 l 388 897 l 321 1063 l 256 897 l 103 897 z "},"ế":{"ha":639,"x_min":56,"x_max":742,"o":"m 325 -14 q 176 19 236 -14 q 86 115 117 51 q 56 267 56 178 l 56 536 q 86 690 56 628 q 178 784 117 751 q 325 817 239 817 q 474 783 417 817 q 558 686 531 750 q 585 531 585 622 l 585 390 l 263 390 l 263 235 q 270 178 263 200 q 292 147 278 156 q 326 138 306 138 q 360 147 346 138 q 382 175 375 156 q 389 226 389 194 l 389 303 l 583 303 l 583 236 q 517 50 583 114 q 325 -14 450 -14 m 263 490 l 389 490 l 389 569 q 382 626 389 604 q 360 656 375 647 q 324 665 346 665 q 290 656 303 665 q 269 622 276 646 q 263 553 263 597 l 263 490 m 103 897 l 232 1125 l 410 1125 l 542 897 l 392 897 l 321 1036 l 251 897 l 103 897 m 507 1057 l 581 1225 l 740 1225 l 621 1057 l 507 1057 z "},"ệ":{"ha":639,"x_min":56,"x_max":585,"o":"m 325 -14 q 176 19 236 -14 q 86 115 117 51 q 56 267 56 178 l 56 536 q 86 690 56 628 q 178 784 117 751 q 325 817 239 817 q 474 783 417 817 q 558 686 531 750 q 585 531 585 622 l 585 390 l 263 390 l 263 235 q 270 178 263 200 q 292 147 278 156 q 326 138 306 138 q 360 147 346 138 q 382 175 375 156 q 389 226 389 194 l 389 303 l 583 303 l 583 236 q 517 50 583 114 q 325 -14 450 -14 m 263 490 l 389 490 l 389 569 q 382 626 389 604 q 360 656 375 647 q 324 665 346 665 q 290 656 303 665 q 269 622 276 646 q 263 553 263 597 l 263 490 m 226 -279 l 226 -96 l 413 -96 l 413 -279 l 226 -279 m 103 897 l 232 1125 l 410 1125 l 542 897 l 392 897 l 321 1036 l 251 897 l 103 897 z "},"ề":{"ha":639,"x_min":56,"x_max":661,"o":"m 325 -14 q 176 19 236 -14 q 86 115 117 51 q 56 267 56 178 l 56 536 q 86 690 56 628 q 178 784 117 751 q 325 817 239 817 q 474 783 417 817 q 558 686 531 750 q 585 531 585 622 l 585 390 l 263 390 l 263 235 q 270 178 263 200 q 292 147 278 156 q 326 138 306 138 q 360 147 346 138 q 382 175 375 156 q 389 226 389 194 l 389 303 l 583 303 l 583 236 q 517 50 583 114 q 325 -14 450 -14 m 263 490 l 389 490 l 389 569 q 382 626 389 604 q 360 656 375 647 q 324 665 346 665 q 290 656 303 665 q 269 622 276 646 q 263 553 263 597 l 263 490 m 103 897 l 232 1125 l 410 1125 l 542 897 l 392 897 l 321 1036 l 251 897 l 103 897 m 546 1057 l 426 1225 l 588 1225 l 661 1057 l 546 1057 z "},"ể":{"ha":639,"x_min":56,"x_max":688,"o":"m 325 -14 q 176 19 236 -14 q 86 115 117 51 q 56 267 56 178 l 56 536 q 86 690 56 628 q 178 784 117 751 q 325 817 239 817 q 474 783 417 817 q 558 686 531 750 q 585 531 585 622 l 585 390 l 263 390 l 263 235 q 270 178 263 200 q 292 147 278 156 q 326 138 306 138 q 360 147 346 138 q 382 175 375 156 q 389 226 389 194 l 389 303 l 583 303 l 583 236 q 517 50 583 114 q 325 -14 450 -14 m 263 490 l 389 490 l 389 569 q 382 626 389 604 q 360 656 375 647 q 324 665 346 665 q 290 656 303 665 q 269 622 276 646 q 263 553 263 597 l 263 490 m 560 1022 l 499 1088 q 539 1126 524 1107 q 554 1171 554 1144 q 536 1211 554 1197 q 489 1225 518 1225 q 451 1222 468 1225 q 419 1213 433 1218 l 419 1303 q 474 1318 447 1313 q 531 1324 501 1324 q 642 1290 599 1324 q 686 1189 686 1257 q 649 1086 686 1124 q 560 1022 611 1049 m 103 897 l 232 1125 l 410 1125 l 542 897 l 392 897 l 321 1036 l 251 897 l 103 897 z "},"ễ":{"ha":639,"x_min":56,"x_max":585,"o":"m 325 -14 q 176 19 236 -14 q 86 115 117 51 q 56 267 56 178 l 56 536 q 86 690 56 628 q 178 784 117 751 q 325 817 239 817 q 474 783 417 817 q 558 686 531 750 q 585 531 585 622 l 585 390 l 263 390 l 263 235 q 270 178 263 200 q 292 147 278 156 q 326 138 306 138 q 360 147 346 138 q 382 175 375 156 q 389 226 389 194 l 389 303 l 583 303 l 583 236 q 517 50 583 114 q 325 -14 450 -14 m 263 490 l 389 490 l 389 569 q 382 626 389 604 q 360 656 375 647 q 324 665 346 665 q 290 656 303 665 q 269 622 276 646 q 263 553 263 597 l 263 490 m 103 897 l 232 1125 l 410 1125 l 542 897 l 392 897 l 321 1036 l 251 897 l 103 897 m 433 1193 q 368 1210 397 1193 q 313 1242 339 1226 q 258 1258 286 1258 q 219 1242 229 1258 q 208 1201 208 1226 l 106 1201 q 116 1298 106 1256 q 153 1365 126 1340 q 228 1389 181 1389 q 290 1374 263 1389 q 343 1342 317 1358 q 399 1326 369 1326 q 433 1341 422 1326 q 443 1381 443 1356 l 539 1381 q 533 1293 539 1336 q 503 1222 526 1250 q 433 1193 481 1193 z "},"ȅ":{"ha":639,"x_min":21,"x_max":585,"o":"m 325 -14 q 176 19 236 -14 q 86 115 117 51 q 56 267 56 178 l 56 536 q 86 690 56 628 q 178 784 117 751 q 325 817 239 817 q 474 783 417 817 q 558 686 531 750 q 585 531 585 622 l 585 390 l 263 390 l 263 235 q 270 178 263 200 q 292 147 278 156 q 326 138 306 138 q 360 147 346 138 q 382 175 375 156 q 389 226 389 194 l 389 303 l 583 303 l 583 236 q 517 50 583 114 q 325 -14 450 -14 m 263 490 l 389 490 l 389 569 q 382 626 389 604 q 360 656 375 647 q 324 665 346 665 q 290 656 303 665 q 269 622 276 646 q 263 553 263 597 l 263 490 m 163 886 l 21 1164 l 188 1164 l 275 886 l 163 886 m 392 886 l 269 1164 l 425 1164 l 501 886 l 392 886 z "},"ë":{"ha":639,"x_min":56,"x_max":585,"o":"m 325 -14 q 176 19 236 -14 q 86 115 117 51 q 56 267 56 178 l 56 536 q 86 690 56 628 q 178 784 117 751 q 325 817 239 817 q 474 783 417 817 q 558 686 531 750 q 585 531 585 622 l 585 390 l 263 390 l 263 235 q 270 178 263 200 q 292 147 278 156 q 326 138 306 138 q 360 147 346 138 q 382 175 375 156 q 389 226 389 194 l 389 303 l 583 303 l 583 236 q 517 50 583 114 q 325 -14 450 -14 m 263 490 l 389 490 l 389 569 q 382 626 389 604 q 360 656 375 647 q 324 665 346 665 q 290 656 303 665 q 269 622 276 646 q 263 553 263 597 l 263 490 m 379 931 l 379 1125 l 554 1125 l 554 931 l 379 931 m 90 931 l 90 1125 l 265 1125 l 265 931 l 90 931 z "},"ė":{"ha":639,"x_min":56,"x_max":585,"o":"m 325 -14 q 176 19 236 -14 q 86 115 117 51 q 56 267 56 178 l 56 536 q 86 690 56 628 q 178 784 117 751 q 325 817 239 817 q 474 783 417 817 q 558 686 531 750 q 585 531 585 622 l 585 390 l 263 390 l 263 235 q 270 178 263 200 q 292 147 278 156 q 326 138 306 138 q 360 147 346 138 q 382 175 375 156 q 389 226 389 194 l 389 303 l 583 303 l 583 236 q 517 50 583 114 q 325 -14 450 -14 m 263 490 l 389 490 l 389 569 q 382 626 389 604 q 360 656 375 647 q 324 665 346 665 q 290 656 303 665 q 269 622 276 646 q 263 553 263 597 l 263 490 m 222 911 l 222 1115 l 422 1115 l 422 911 l 222 911 z "},"ẹ":{"ha":639,"x_min":56,"x_max":585,"o":"m 325 -14 q 176 19 236 -14 q 86 115 117 51 q 56 267 56 178 l 56 536 q 86 690 56 628 q 178 784 117 751 q 325 817 239 817 q 474 783 417 817 q 558 686 531 750 q 585 531 585 622 l 585 390 l 263 390 l 263 235 q 270 178 263 200 q 292 147 278 156 q 326 138 306 138 q 360 147 346 138 q 382 175 375 156 q 389 226 389 194 l 389 303 l 583 303 l 583 236 q 517 50 583 114 q 325 -14 450 -14 m 263 490 l 389 490 l 389 569 q 382 626 389 604 q 360 656 375 647 q 324 665 346 665 q 290 656 303 665 q 269 622 276 646 q 263 553 263 597 l 263 490 m 226 -279 l 226 -96 l 413 -96 l 413 -279 l 226 -279 z "},"è":{"ha":639,"x_min":56,"x_max":585,"o":"m 325 -14 q 176 19 236 -14 q 86 115 117 51 q 56 267 56 178 l 56 536 q 86 690 56 628 q 178 784 117 751 q 325 817 239 817 q 474 783 417 817 q 558 686 531 750 q 585 531 585 622 l 585 390 l 263 390 l 263 235 q 270 178 263 200 q 292 147 278 156 q 326 138 306 138 q 360 147 346 138 q 382 175 375 156 q 389 226 389 194 l 389 303 l 583 303 l 583 236 q 517 50 583 114 q 325 -14 450 -14 m 263 490 l 389 490 l 389 569 q 382 626 389 604 q 360 656 375 647 q 324 665 346 665 q 290 656 303 665 q 269 622 276 646 q 263 553 263 597 l 263 490 m 263 888 l 90 1165 l 306 1165 l 389 888 l 263 888 z "},"ẻ":{"ha":639,"x_min":56,"x_max":585,"o":"m 325 -14 q 176 19 236 -14 q 86 115 117 51 q 56 267 56 178 l 56 536 q 86 690 56 628 q 178 784 117 751 q 325 817 239 817 q 474 783 417 817 q 558 686 531 750 q 585 531 585 622 l 585 390 l 263 390 l 263 235 q 270 178 263 200 q 292 147 278 156 q 326 138 306 138 q 360 147 346 138 q 382 175 375 156 q 389 226 389 194 l 389 303 l 583 303 l 583 236 q 517 50 583 114 q 325 -14 450 -14 m 263 490 l 389 490 l 389 569 q 382 626 389 604 q 360 656 375 647 q 324 665 346 665 q 290 656 303 665 q 269 622 276 646 q 263 553 263 597 l 263 490 m 322 874 l 253 942 q 322 980 293 961 q 350 1029 350 999 q 328 1068 350 1057 q 269 1079 306 1079 q 227 1076 249 1079 q 188 1069 206 1074 l 188 1160 q 322 1176 251 1176 q 405 1163 367 1176 q 466 1121 443 1150 q 489 1043 489 1092 q 466 964 489 996 q 406 911 443 932 q 322 874 368 890 z "},"ȇ":{"ha":639,"x_min":56,"x_max":585,"o":"m 325 -14 q 176 19 236 -14 q 86 115 117 51 q 56 267 56 178 l 56 536 q 86 690 56 628 q 178 784 117 751 q 325 817 239 817 q 474 783 417 817 q 558 686 531 750 q 585 531 585 622 l 585 390 l 263 390 l 263 235 q 270 178 263 200 q 292 147 278 156 q 326 138 306 138 q 360 147 346 138 q 382 175 375 156 q 389 226 389 194 l 389 303 l 583 303 l 583 236 q 517 50 583 114 q 325 -14 450 -14 m 263 490 l 389 490 l 389 569 q 382 626 389 604 q 360 656 375 647 q 324 665 346 665 q 290 656 303 665 q 269 622 276 646 q 263 553 263 597 l 263 490 m 111 906 q 136 1022 113 974 q 207 1097 160 1071 q 322 1122 254 1122 q 438 1097 392 1122 q 509 1022 485 1071 q 533 906 533 974 l 414 906 q 393 988 414 961 q 322 1014 372 1014 q 252 988 274 1014 q 231 906 231 963 l 111 906 z "},"ē":{"ha":639,"x_min":56,"x_max":585,"o":"m 325 -14 q 176 19 236 -14 q 86 115 117 51 q 56 267 56 178 l 56 536 q 86 690 56 628 q 178 784 117 751 q 325 817 239 817 q 474 783 417 817 q 558 686 531 750 q 585 531 585 622 l 585 390 l 263 390 l 263 235 q 270 178 263 200 q 292 147 278 156 q 326 138 306 138 q 360 147 346 138 q 382 175 375 156 q 389 226 389 194 l 389 303 l 583 303 l 583 236 q 517 50 583 114 q 325 -14 450 -14 m 263 490 l 389 490 l 389 569 q 382 626 389 604 q 360 656 375 647 q 324 665 346 665 q 290 656 303 665 q 269 622 276 646 q 263 553 263 597 l 263 490 m 143 931 l 143 1033 l 501 1033 l 501 931 l 143 931 z "},"ę":{"ha":639,"x_min":56,"x_max":585,"o":"m 325 -14 q 176 19 236 -14 q 86 115 117 51 q 56 267 56 178 l 56 536 q 86 690 56 628 q 178 784 117 751 q 325 817 239 817 q 474 783 417 817 q 558 686 531 750 q 585 531 585 622 l 585 390 l 263 390 l 263 235 q 270 178 263 200 q 292 147 278 156 q 326 138 306 138 q 360 147 346 138 q 382 175 375 156 q 389 226 389 194 l 389 303 l 583 303 l 583 236 q 517 50 583 114 q 325 -14 450 -14 m 263 490 l 389 490 l 389 569 q 382 626 389 604 q 360 656 375 647 q 324 665 346 665 q 290 656 303 665 q 269 622 276 646 q 263 553 263 597 l 263 490 m 419 -339 q 346 -334 383 -339 q 276 -315 308 -329 q 224 -272 244 -300 q 204 -196 204 -243 q 222 -117 204 -157 q 266 -42 239 -76 q 322 14 293 -8 l 418 14 q 388 -38 403 -10 q 363 -97 372 -67 q 354 -157 354 -126 q 383 -219 354 -203 q 447 -235 413 -235 q 469 -234 458 -235 q 489 -232 481 -233 l 465 -335 q 444 -337 457 -336 q 419 -339 432 -339 z "},"ẽ":{"ha":639,"x_min":56,"x_max":585,"o":"m 325 -14 q 176 19 236 -14 q 86 115 117 51 q 56 267 56 178 l 56 536 q 86 690 56 628 q 178 784 117 751 q 325 817 239 817 q 474 783 417 817 q 558 686 531 750 q 585 531 585 622 l 585 390 l 263 390 l 263 235 q 270 178 263 200 q 292 147 278 156 q 326 138 306 138 q 360 147 346 138 q 382 175 375 156 q 389 226 389 194 l 389 303 l 583 303 l 583 236 q 517 50 583 114 q 325 -14 450 -14 m 263 490 l 389 490 l 389 569 q 382 626 389 604 q 360 656 375 647 q 324 665 346 665 q 290 656 303 665 q 269 622 276 646 q 263 553 263 597 l 263 490 m 433 938 q 368 954 397 938 q 313 987 339 971 q 258 1003 286 1003 q 219 987 229 1003 q 208 946 208 971 l 106 946 q 116 1042 106 1000 q 153 1109 126 1085 q 228 1133 181 1133 q 290 1118 263 1133 q 343 1087 317 1103 q 399 1071 369 1071 q 433 1085 422 1071 q 443 1125 443 1100 l 539 1125 q 533 1038 539 1081 q 503 966 526 994 q 433 938 481 938 z "},"ə":{"ha":639,"x_min":54,"x_max":583,"o":"m 313 -15 q 165 17 221 -15 q 81 114 108 50 q 54 269 54 178 l 54 411 l 374 411 l 374 567 q 367 619 374 597 q 349 653 361 642 q 313 665 336 665 q 278 657 293 665 q 256 628 264 649 q 249 576 249 608 l 249 500 l 54 500 l 54 568 q 122 753 54 689 q 313 817 189 817 q 462 784 401 817 q 553 689 522 751 q 583 538 583 626 l 583 265 q 553 112 583 175 q 462 17 522 49 q 313 -15 401 -15 m 313 135 q 348 144 335 135 q 367 179 361 154 q 374 247 374 204 l 374 310 l 249 310 l 249 232 q 256 176 249 197 q 278 144 264 154 q 313 135 292 135 z "},"ʒ":{"ha":665,"x_min":33,"x_max":628,"o":"m 328 -282 q 155 -240 219 -282 q 62 -121 90 -197 q 33 58 33 -44 l 33 97 l 239 97 q 239 83 239 96 q 239 61 239 71 q 258 -85 239 -39 q 329 -131 276 -131 q 385 -110 367 -131 q 411 -46 404 -89 q 418 61 418 -3 q 406 197 418 146 q 360 272 393 249 q 261 296 326 296 l 161 296 l 161 419 l 379 697 l 413 649 l 81 649 l 81 803 l 565 803 l 565 678 l 319 364 l 256 411 l 328 411 q 510 369 446 411 q 601 251 575 328 q 628 67 628 174 q 599 -115 628 -36 q 503 -237 569 -193 q 328 -282 438 -282 z "},"ǯ":{"ha":665,"x_min":33,"x_max":628,"o":"m 328 -282 q 155 -240 219 -282 q 62 -121 90 -197 q 33 58 33 -44 l 33 97 l 239 97 q 239 83 239 96 q 239 61 239 71 q 258 -85 239 -39 q 329 -131 276 -131 q 385 -110 367 -131 q 411 -46 404 -89 q 418 61 418 -3 q 406 197 418 146 q 360 272 393 249 q 261 296 326 296 l 161 296 l 161 419 l 379 697 l 413 649 l 81 649 l 81 803 l 565 803 l 565 678 l 319 364 l 256 411 l 328 411 q 510 369 446 411 q 601 251 575 328 q 628 67 628 174 q 599 -115 628 -36 q 503 -237 569 -193 q 328 -282 438 -282 m 232 888 l 110 1143 l 261 1143 l 333 988 l 406 1143 l 557 1143 l 435 888 l 232 888 z "},"f":{"ha":435,"x_min":24,"x_max":421,"o":"m 104 0 l 104 660 l 24 660 l 24 803 l 104 803 l 104 858 q 119 983 104 931 q 178 1065 133 1036 q 314 1094 222 1094 q 366 1093 342 1094 q 421 1088 390 1092 l 421 932 q 397 937 410 935 q 371 939 383 939 q 328 922 342 939 q 314 867 314 904 l 314 803 l 421 803 l 421 660 l 314 660 l 314 0 l 104 0 z "},"ḟ":{"ha":435,"x_min":24,"x_max":421,"o":"m 104 0 l 104 660 l 24 660 l 24 803 l 104 803 l 104 858 q 119 983 104 931 q 178 1065 133 1036 q 314 1094 222 1094 q 366 1093 342 1094 q 421 1088 390 1092 l 421 932 q 397 937 410 935 q 371 939 383 939 q 328 922 342 939 q 314 867 314 904 l 314 803 l 421 803 l 421 660 l 314 660 l 314 0 l 104 0 m 172 1196 l 172 1400 l 372 1400 l 372 1196 l 172 1196 z "},"g":{"ha":676,"x_min":33,"x_max":696,"o":"m 322 -272 q 170 -254 235 -272 q 69 -201 106 -236 q 33 -110 33 -165 q 49 -42 33 -72 q 94 10 65 -12 q 156 49 122 32 q 80 92 107 63 q 53 167 53 121 q 76 250 53 215 q 142 321 100 285 q 79 407 100 356 q 58 536 58 458 q 90 689 58 626 q 184 784 122 751 q 333 817 246 817 q 442 799 396 817 q 518 749 488 782 q 558 792 532 769 q 618 832 585 815 l 646 844 l 696 739 q 658 725 682 735 q 609 704 633 715 q 568 683 585 693 q 590 614 582 654 q 599 533 599 574 q 569 386 599 449 q 482 290 540 324 q 333 257 424 257 q 267 263 299 257 q 208 276 236 268 q 194 252 200 265 q 188 225 188 239 q 203 199 188 208 q 261 185 219 189 l 454 164 q 603 99 556 153 q 651 -43 651 46 q 618 -168 651 -117 q 512 -246 585 -219 q 322 -272 439 -272 m 347 -118 q 464 -104 424 -118 q 504 -50 504 -90 q 494 -17 504 -31 q 458 4 483 -4 q 386 17 432 13 l 242 31 q 217 7 228 19 q 199 -19 206 -6 q 192 -50 192 -33 q 227 -101 192 -83 q 347 -118 263 -118 m 333 385 q 369 393 356 385 q 390 419 383 401 q 400 467 397 438 q 403 536 403 496 q 400 605 403 576 q 390 652 397 633 q 369 679 383 671 q 333 688 356 688 q 298 679 313 688 q 276 653 283 671 q 267 606 269 635 q 264 536 264 576 q 267 469 264 497 q 276 422 269 440 q 297 394 283 403 q 333 385 311 385 z "},"ǵ":{"ha":676,"x_min":33,"x_max":696,"o":"m 322 -272 q 170 -254 235 -272 q 69 -201 106 -236 q 33 -110 33 -165 q 49 -42 33 -72 q 94 10 65 -12 q 156 49 122 32 q 80 92 107 63 q 53 167 53 121 q 76 250 53 215 q 142 321 100 285 q 79 407 100 356 q 58 536 58 458 q 90 689 58 626 q 184 784 122 751 q 333 817 246 817 q 442 799 396 817 q 518 749 488 782 q 558 792 532 769 q 618 832 585 815 l 646 844 l 696 739 q 658 725 682 735 q 609 704 633 715 q 568 683 585 693 q 590 614 582 654 q 599 533 599 574 q 569 386 599 449 q 482 290 540 324 q 333 257 424 257 q 267 263 299 257 q 208 276 236 268 q 194 252 200 265 q 188 225 188 239 q 203 199 188 208 q 261 185 219 189 l 454 164 q 603 99 556 153 q 651 -43 651 46 q 618 -168 651 -117 q 512 -246 585 -219 q 322 -272 439 -272 m 347 -118 q 464 -104 424 -118 q 504 -50 504 -90 q 494 -17 504 -31 q 458 4 483 -4 q 386 17 432 13 l 242 31 q 217 7 228 19 q 199 -19 206 -6 q 192 -50 192 -33 q 227 -101 192 -83 q 347 -118 263 -118 m 333 385 q 369 393 356 385 q 390 419 383 401 q 400 467 397 438 q 403 536 403 496 q 400 605 403 576 q 390 652 397 633 q 369 679 383 671 q 333 688 356 688 q 298 679 313 688 q 276 653 283 671 q 267 606 269 635 q 264 536 264 576 q 267 469 264 497 q 276 422 269 440 q 297 394 283 403 q 333 385 311 385 m 272 888 l 358 1165 l 571 1165 l 400 888 l 272 888 z "},"ğ":{"ha":676,"x_min":33,"x_max":696,"o":"m 322 -272 q 170 -254 235 -272 q 69 -201 106 -236 q 33 -110 33 -165 q 49 -42 33 -72 q 94 10 65 -12 q 156 49 122 32 q 80 92 107 63 q 53 167 53 121 q 76 250 53 215 q 142 321 100 285 q 79 407 100 356 q 58 536 58 458 q 90 689 58 626 q 184 784 122 751 q 333 817 246 817 q 442 799 396 817 q 518 749 488 782 q 558 792 532 769 q 618 832 585 815 l 646 844 l 696 739 q 658 725 682 735 q 609 704 633 715 q 568 683 585 693 q 590 614 582 654 q 599 533 599 574 q 569 386 599 449 q 482 290 540 324 q 333 257 424 257 q 267 263 299 257 q 208 276 236 268 q 194 252 200 265 q 188 225 188 239 q 203 199 188 208 q 261 185 219 189 l 454 164 q 603 99 556 153 q 651 -43 651 46 q 618 -168 651 -117 q 512 -246 585 -219 q 322 -272 439 -272 m 347 -118 q 464 -104 424 -118 q 504 -50 504 -90 q 494 -17 504 -31 q 458 4 483 -4 q 386 17 432 13 l 242 31 q 217 7 228 19 q 199 -19 206 -6 q 192 -50 192 -33 q 227 -101 192 -83 q 347 -118 263 -118 m 333 385 q 369 393 356 385 q 390 419 383 401 q 400 467 397 438 q 403 536 403 496 q 400 605 403 576 q 390 652 397 633 q 369 679 383 671 q 333 688 356 688 q 298 679 313 688 q 276 653 283 671 q 267 606 269 635 q 264 536 264 576 q 267 469 264 497 q 276 422 269 440 q 297 394 283 403 q 333 385 311 385 m 339 893 q 184 948 240 893 q 128 1103 128 1003 l 247 1103 q 268 1027 247 1053 q 339 1001 289 1001 q 409 1028 388 1001 q 431 1103 431 1054 l 549 1103 q 493 948 549 1003 q 339 893 438 893 z "},"ǧ":{"ha":676,"x_min":33,"x_max":696,"o":"m 322 -272 q 170 -254 235 -272 q 69 -201 106 -236 q 33 -110 33 -165 q 49 -42 33 -72 q 94 10 65 -12 q 156 49 122 32 q 80 92 107 63 q 53 167 53 121 q 76 250 53 215 q 142 321 100 285 q 79 407 100 356 q 58 536 58 458 q 90 689 58 626 q 184 784 122 751 q 333 817 246 817 q 442 799 396 817 q 518 749 488 782 q 558 792 532 769 q 618 832 585 815 l 646 844 l 696 739 q 658 725 682 735 q 609 704 633 715 q 568 683 585 693 q 590 614 582 654 q 599 533 599 574 q 569 386 599 449 q 482 290 540 324 q 333 257 424 257 q 267 263 299 257 q 208 276 236 268 q 194 252 200 265 q 188 225 188 239 q 203 199 188 208 q 261 185 219 189 l 454 164 q 603 99 556 153 q 651 -43 651 46 q 618 -168 651 -117 q 512 -246 585 -219 q 322 -272 439 -272 m 347 -118 q 464 -104 424 -118 q 504 -50 504 -90 q 494 -17 504 -31 q 458 4 483 -4 q 386 17 432 13 l 242 31 q 217 7 228 19 q 199 -19 206 -6 q 192 -50 192 -33 q 227 -101 192 -83 q 347 -118 263 -118 m 333 385 q 369 393 356 385 q 390 419 383 401 q 400 467 397 438 q 403 536 403 496 q 400 605 403 576 q 390 652 397 633 q 369 679 383 671 q 333 688 356 688 q 298 679 313 688 q 276 653 283 671 q 267 606 269 635 q 264 536 264 576 q 267 469 264 497 q 276 422 269 440 q 297 394 283 403 q 333 385 311 385 m 238 888 l 115 1143 l 267 1143 l 339 988 l 411 1143 l 563 1143 l 440 888 l 238 888 z "},"ĝ":{"ha":676,"x_min":33,"x_max":696,"o":"m 322 -272 q 170 -254 235 -272 q 69 -201 106 -236 q 33 -110 33 -165 q 49 -42 33 -72 q 94 10 65 -12 q 156 49 122 32 q 80 92 107 63 q 53 167 53 121 q 76 250 53 215 q 142 321 100 285 q 79 407 100 356 q 58 536 58 458 q 90 689 58 626 q 184 784 122 751 q 333 817 246 817 q 442 799 396 817 q 518 749 488 782 q 558 792 532 769 q 618 832 585 815 l 646 844 l 696 739 q 658 725 682 735 q 609 704 633 715 q 568 683 585 693 q 590 614 582 654 q 599 533 599 574 q 569 386 599 449 q 482 290 540 324 q 333 257 424 257 q 267 263 299 257 q 208 276 236 268 q 194 252 200 265 q 188 225 188 239 q 203 199 188 208 q 261 185 219 189 l 454 164 q 603 99 556 153 q 651 -43 651 46 q 618 -168 651 -117 q 512 -246 585 -219 q 322 -272 439 -272 m 347 -118 q 464 -104 424 -118 q 504 -50 504 -90 q 494 -17 504 -31 q 458 4 483 -4 q 386 17 432 13 l 242 31 q 217 7 228 19 q 199 -19 206 -6 q 192 -50 192 -33 q 227 -101 192 -83 q 347 -118 263 -118 m 333 385 q 369 393 356 385 q 390 419 383 401 q 400 467 397 438 q 403 536 403 496 q 400 605 403 576 q 390 652 397 633 q 369 679 383 671 q 333 688 356 688 q 298 679 313 688 q 276 653 283 671 q 267 606 269 635 q 264 536 264 576 q 267 469 264 497 q 276 422 269 440 q 297 394 283 403 q 333 385 311 385 m 119 897 l 249 1158 l 426 1158 l 558 897 l 404 897 l 338 1063 l 272 897 l 119 897 z "},"ģ":{"ha":676,"x_min":33,"x_max":696,"o":"m 401 1275 l 424 1200 q 357 1171 385 1193 q 329 1093 329 1149 l 439 1093 l 439 894 l 239 894 l 240 1067 q 277 1218 240 1164 q 401 1275 314 1272 m 322 -272 q 170 -254 235 -272 q 69 -201 106 -236 q 33 -110 33 -165 q 49 -42 33 -72 q 94 10 65 -12 q 156 49 122 32 q 80 92 107 63 q 53 167 53 121 q 76 250 53 215 q 142 321 100 285 q 79 407 100 356 q 58 536 58 458 q 90 689 58 626 q 184 784 122 751 q 333 817 246 817 q 442 799 396 817 q 518 749 488 782 q 558 792 532 769 q 618 832 585 815 l 646 844 l 696 739 q 658 725 682 735 q 609 704 633 715 q 568 683 585 693 q 590 614 582 654 q 599 533 599 574 q 569 386 599 449 q 482 290 540 324 q 333 257 424 257 q 267 263 299 257 q 208 276 236 268 q 194 252 200 265 q 188 225 188 239 q 203 199 188 208 q 261 185 219 189 l 454 164 q 603 99 556 153 q 651 -43 651 46 q 618 -168 651 -117 q 512 -246 585 -219 q 322 -272 439 -272 m 347 -118 q 464 -104 424 -118 q 504 -50 504 -90 q 494 -17 504 -31 q 458 4 483 -4 q 386 17 432 13 l 242 31 q 217 7 228 19 q 199 -19 206 -6 q 192 -50 192 -33 q 227 -101 192 -83 q 347 -118 263 -118 m 333 385 q 369 393 356 385 q 390 419 383 401 q 400 467 397 438 q 403 536 403 496 q 400 605 403 576 q 390 652 397 633 q 369 679 383 671 q 333 688 356 688 q 298 679 313 688 q 276 653 283 671 q 267 606 269 635 q 264 536 264 576 q 267 469 264 497 q 276 422 269 440 q 297 394 283 403 q 333 385 311 385 z "},"ġ":{"ha":676,"x_min":33,"x_max":696,"o":"m 322 -272 q 170 -254 235 -272 q 69 -201 106 -236 q 33 -110 33 -165 q 49 -42 33 -72 q 94 10 65 -12 q 156 49 122 32 q 80 92 107 63 q 53 167 53 121 q 76 250 53 215 q 142 321 100 285 q 79 407 100 356 q 58 536 58 458 q 90 689 58 626 q 184 784 122 751 q 333 817 246 817 q 442 799 396 817 q 518 749 488 782 q 558 792 532 769 q 618 832 585 815 l 646 844 l 696 739 q 658 725 682 735 q 609 704 633 715 q 568 683 585 693 q 590 614 582 654 q 599 533 599 574 q 569 386 599 449 q 482 290 540 324 q 333 257 424 257 q 267 263 299 257 q 208 276 236 268 q 194 252 200 265 q 188 225 188 239 q 203 199 188 208 q 261 185 219 189 l 454 164 q 603 99 556 153 q 651 -43 651 46 q 618 -168 651 -117 q 512 -246 585 -219 q 322 -272 439 -272 m 347 -118 q 464 -104 424 -118 q 504 -50 504 -90 q 494 -17 504 -31 q 458 4 483 -4 q 386 17 432 13 l 242 31 q 217 7 228 19 q 199 -19 206 -6 q 192 -50 192 -33 q 227 -101 192 -83 q 347 -118 263 -118 m 333 385 q 369 393 356 385 q 390 419 383 401 q 400 467 397 438 q 403 536 403 496 q 400 605 403 576 q 390 652 397 633 q 369 679 383 671 q 333 688 356 688 q 298 679 313 688 q 276 653 283 671 q 267 606 269 635 q 264 536 264 576 q 267 469 264 497 q 276 422 269 440 q 297 394 283 403 q 333 385 311 385 m 239 911 l 239 1115 l 439 1115 l 439 911 l 239 911 z "},"ǥ":{"ha":676,"x_min":-14,"x_max":701,"o":"m 322 -272 q 170 -254 235 -272 q 69 -198 106 -236 q 33 -100 33 -160 q 49 -31 33 -61 q 92 24 64 0 q 154 64 119 47 q 79 106 106 78 q 53 167 53 135 q 76 250 53 215 q 142 321 100 285 q 79 407 100 356 q 58 536 58 458 q 90 689 58 626 q 184 784 122 751 q 333 817 246 817 q 442 799 396 817 q 518 749 488 782 q 558 792 532 769 q 618 832 585 815 l 646 844 l 696 739 q 658 725 682 735 q 609 704 633 715 q 568 683 585 693 q 590 614 582 654 q 599 533 599 574 q 569 386 599 449 q 482 290 540 324 q 333 257 424 257 q 267 263 299 257 q 208 276 236 268 q 194 256 200 267 q 188 233 188 244 q 203 212 188 218 q 261 201 219 206 l 454 181 q 603 115 556 169 q 651 -43 651 60 q 618 -168 651 -117 q 512 -246 585 -219 q 322 -272 439 -272 m -14 -76 l -14 -6 l 701 -6 l 701 -76 l -14 -76 m 347 -125 q 466 -106 428 -125 q 504 -42 504 -87 q 494 -2 504 -17 q 458 20 483 13 q 386 32 432 28 l 242 47 q 215 21 228 35 q 194 -8 201 7 q 186 -42 186 -24 q 219 -103 186 -82 q 347 -125 253 -125 m 333 385 q 369 393 356 385 q 390 419 383 401 q 400 467 397 438 q 403 536 403 496 q 400 605 403 576 q 390 652 397 633 q 369 679 383 671 q 333 688 356 688 q 298 679 313 688 q 276 653 283 671 q 267 606 269 635 q 264 536 264 576 q 267 469 264 497 q 276 422 269 440 q 297 394 283 403 q 333 385 311 385 z "},"h":{"ha":688,"x_min":74,"x_max":622,"o":"m 74 0 l 74 1125 l 282 1125 l 282 729 q 375 794 326 772 q 481 817 424 817 q 560 792 529 817 q 607 726 592 767 q 622 633 622 685 l 622 0 l 413 0 l 413 599 q 403 649 413 632 q 364 665 393 665 q 326 656 347 665 q 282 632 304 647 l 282 0 l 74 0 z "},"ħ":{"ha":689,"x_min":4,"x_max":622,"o":"m 74 0 l 74 938 l 4 938 l 4 1038 l 74 1038 l 74 1125 l 283 1125 l 283 1038 l 449 1038 l 449 938 l 283 938 l 283 729 q 376 794 328 772 q 481 817 425 817 q 560 792 529 817 q 607 726 592 767 q 622 633 622 685 l 622 0 l 413 0 l 413 599 q 403 649 413 632 q 364 665 393 665 q 326 656 347 665 q 283 632 306 647 l 283 0 l 74 0 z "},"ȟ":{"ha":688,"x_min":74,"x_max":678,"o":"m 74 0 l 74 1125 l 282 1125 l 282 729 q 375 794 326 772 q 481 817 424 817 q 560 792 529 817 q 607 726 592 767 q 622 633 622 685 l 622 0 l 413 0 l 413 599 q 403 649 413 632 q 364 665 393 665 q 326 656 347 665 q 282 632 304 647 l 282 0 l 74 0 m 353 1151 l 231 1407 l 382 1407 l 454 1251 l 526 1407 l 678 1407 l 556 1151 l 353 1151 z "},"ĥ":{"ha":688,"x_min":-42,"x_max":622,"o":"m 74 0 l 74 1125 l 282 1125 l 282 729 q 375 794 326 772 q 481 817 424 817 q 560 792 529 817 q 607 726 592 767 q 622 633 622 685 l 622 0 l 413 0 l 413 599 q 403 649 413 632 q 364 665 393 665 q 326 656 347 665 q 282 632 304 647 l 282 0 l 74 0 m -42 1219 l 88 1481 l 265 1481 l 397 1219 l 243 1219 l 176 1385 l 111 1219 l -42 1219 z "},"i":{"ha":357,"x_min":74,"x_max":285,"o":"m 75 0 l 75 803 l 285 803 l 285 0 l 75 0 m 74 935 l 74 1092 l 285 1092 l 285 935 l 74 935 z "},"ı":{"ha":372,"x_min":82,"x_max":293,"o":"m 82 0 l 82 803 l 293 803 l 293 0 l 82 0 z "},"í":{"ha":372,"x_min":82,"x_max":421,"o":"m 82 0 l 82 803 l 293 803 l 293 0 l 82 0 m 121 888 l 207 1165 l 419 1165 l 249 888 l 121 888 z "},"ĭ":{"ha":372,"x_min":-22,"x_max":399,"o":"m 82 0 l 82 803 l 293 803 l 293 0 l 82 0 m 189 893 q 34 948 90 893 q -22 1103 -22 1003 l 97 1103 q 118 1027 97 1053 q 189 1001 139 1001 q 259 1028 238 1001 q 281 1103 281 1054 l 399 1103 q 343 948 399 1003 q 189 893 288 893 z "},"î":{"ha":372,"x_min":-32,"x_max":408,"o":"m 82 0 l 82 803 l 293 803 l 293 0 l 82 0 m -32 897 l 97 1158 l 275 1158 l 407 897 l 253 897 l 186 1063 l 121 897 l -32 897 z "},"ȉ":{"ha":372,"x_min":-114,"x_max":368,"o":"m 82 0 l 82 803 l 293 803 l 293 0 l 82 0 m 28 886 l -114 1164 l 53 1164 l 140 886 l 28 886 m 257 886 l 135 1164 l 290 1164 l 367 886 l 257 886 z "},"ï":{"ha":372,"x_min":-43,"x_max":419,"o":"m 82 0 l 82 803 l 293 803 l 293 0 l 82 0 m 244 931 l 244 1125 l 419 1125 l 419 931 l 244 931 m -44 931 l -44 1125 l 131 1125 l 131 931 l -44 931 z "},"ị":{"ha":357,"x_min":74,"x_max":285,"o":"m 75 0 l 75 803 l 285 803 l 285 0 l 75 0 m 74 935 l 74 1092 l 285 1092 l 285 935 l 74 935 m 86 -279 l 86 -96 l 272 -96 l 272 -279 l 86 -279 z "},"ì":{"ha":372,"x_min":-43,"x_max":293,"o":"m 82 0 l 82 803 l 293 803 l 293 0 l 82 0 m 128 888 l -44 1165 l 171 1165 l 254 888 l 128 888 z "},"ỉ":{"ha":372,"x_min":53,"x_max":354,"o":"m 82 0 l 82 803 l 293 803 l 293 0 l 82 0 m 188 874 l 118 942 q 187 980 158 961 q 215 1029 215 999 q 193 1068 215 1057 q 135 1079 171 1079 q 92 1076 114 1079 q 53 1069 71 1074 l 53 1160 q 188 1176 117 1176 q 270 1163 232 1176 q 331 1121 308 1150 q 354 1043 354 1092 q 331 964 354 996 q 271 911 308 932 q 188 874 233 890 z "},"ȋ":{"ha":372,"x_min":-22,"x_max":399,"o":"m 82 0 l 82 803 l 293 803 l 293 0 l 82 0 m -24 906 q 1 1022 -22 974 q 72 1097 25 1071 q 188 1122 119 1122 q 303 1097 257 1122 q 374 1022 350 1071 q 399 906 399 974 l 279 906 q 258 988 279 961 q 188 1014 238 1014 q 117 988 139 1014 q 96 906 96 963 l -24 906 z "},"ĳ":{"ha":728,"x_min":74,"x_max":658,"o":"m 75 0 l 75 803 l 285 803 l 285 0 l 75 0 m 74 935 l 74 1092 l 285 1092 l 285 935 l 74 935 m 453 -240 q 395 -236 424 -240 q 342 -224 367 -232 l 342 -74 q 361 -76 350 -75 q 382 -78 372 -78 q 418 -70 404 -78 q 440 -46 432 -62 q 447 -4 447 -29 l 447 803 l 657 803 l 657 -29 q 605 -182 657 -124 q 453 -240 553 -240 m 447 935 l 447 1092 l 657 1092 l 657 935 l 447 935 z "},"ī":{"ha":372,"x_min":8,"x_max":368,"o":"m 82 0 l 82 803 l 293 803 l 293 0 l 82 0 m 8 931 l 8 1033 l 367 1033 l 367 931 l 8 931 z "},"į":{"ha":357,"x_min":15,"x_max":300,"o":"m 75 0 l 75 803 l 285 803 l 285 0 l 75 0 m 74 935 l 74 1092 l 285 1092 l 285 935 l 74 935 m 231 -353 q 157 -348 194 -353 q 88 -328 119 -343 q 35 -285 56 -314 q 15 -210 15 -257 q 33 -131 15 -171 q 77 -56 50 -90 q 133 0 104 -22 l 229 0 q 199 -52 214 -24 q 174 -110 183 -81 q 165 -171 165 -140 q 194 -233 165 -217 q 258 -249 224 -249 q 281 -248 269 -249 q 300 -246 292 -247 l 276 -349 q 256 -351 268 -350 q 231 -353 243 -353 z "},"ĩ":{"ha":372,"x_min":-29,"x_max":406,"o":"m 82 0 l 82 803 l 293 803 l 293 0 l 82 0 m 299 938 q 233 954 263 938 q 178 987 204 971 q 124 1003 151 1003 q 84 987 94 1003 q 74 946 74 971 l -29 946 q -19 1042 -29 1000 q 19 1109 -8 1085 q 93 1133 46 1133 q 155 1118 128 1133 q 208 1087 182 1103 q 264 1071 235 1071 q 298 1085 288 1071 q 308 1125 308 1100 l 404 1125 q 398 1038 404 1081 q 369 966 392 994 q 299 938 346 938 z "},"j":{"ha":371,"x_min":-15,"x_max":300,"o":"m 96 -240 q 38 -236 67 -240 q -15 -224 10 -232 l -15 -74 q 4 -76 -7 -75 q 25 -78 15 -78 q 61 -70 47 -78 q 83 -46 75 -62 q 90 -4 90 -29 l 90 803 l 300 803 l 300 -29 q 248 -182 300 -124 q 96 -240 196 -240 m 90 935 l 90 1092 l 300 1092 l 300 935 l 90 935 z "},"ȷ":{"ha":371,"x_min":-15,"x_max":300,"o":"m 96 -240 q 38 -236 67 -240 q -15 -224 10 -232 l -15 -74 q 4 -76 -7 -75 q 25 -78 15 -78 q 61 -70 47 -78 q 83 -46 75 -62 q 90 -4 90 -29 l 90 803 l 300 803 l 300 -29 q 248 -182 300 -124 q 96 -240 196 -240 z "},"ĵ":{"ha":371,"x_min":-24,"x_max":415,"o":"m 96 -240 q 38 -236 67 -240 q -15 -224 10 -232 l -15 -74 q 4 -76 -7 -75 q 25 -78 15 -78 q 61 -70 47 -78 q 83 -46 75 -62 q 90 -4 90 -29 l 90 803 l 300 803 l 300 -29 q 248 -182 300 -124 q 96 -240 196 -240 m -24 897 l 106 1158 l 283 1158 l 415 897 l 261 897 l 194 1063 l 129 897 l -24 897 z "},"k":{"ha":718,"x_min":72,"x_max":715,"o":"m 72 0 l 72 1125 l 281 1125 l 281 492 l 482 803 l 715 803 l 507 476 l 713 0 l 486 0 l 343 388 l 281 306 l 281 0 l 72 0 z "},"ǩ":{"ha":718,"x_min":72,"x_max":715,"o":"m 72 0 l 72 1125 l 281 1125 l 281 492 l 482 803 l 715 803 l 507 476 l 713 0 l 486 0 l 343 388 l 281 306 l 281 0 l 72 0 m 365 1131 l 243 1386 l 394 1386 l 467 1231 l 539 1386 l 690 1386 l 568 1131 l 365 1131 z "},"ķ":{"ha":718,"x_min":72,"x_max":715,"o":"m 72 0 l 72 1125 l 281 1125 l 281 492 l 482 803 l 715 803 l 507 476 l 713 0 l 486 0 l 343 388 l 281 306 l 281 0 l 72 0 m 297 -474 l 275 -399 q 342 -370 314 -393 q 369 -292 369 -347 l 260 -292 l 260 -94 l 460 -94 l 458 -267 q 422 -417 458 -362 q 297 -474 385 -471 z "},"ĸ":{"ha":682,"x_min":72,"x_max":675,"o":"m 72 0 l 72 803 l 282 803 l 282 464 l 449 803 l 672 803 l 504 457 l 675 0 l 456 0 l 326 376 l 282 310 l 282 0 l 72 0 z "},"l":{"ha":367,"x_min":82,"x_max":292,"o":"m 82 0 l 82 1125 l 292 1125 l 292 0 l 82 0 z "},"ĺ":{"ha":367,"x_min":82,"x_max":419,"o":"m 82 0 l 82 1125 l 292 1125 l 292 0 l 82 0 m 121 1210 l 207 1488 l 419 1488 l 249 1210 l 121 1210 z "},"ľ":{"ha":538,"x_min":82,"x_max":560,"o":"m 82 0 l 82 1125 l 292 1125 l 292 0 l 82 0 m 390 732 l 375 803 q 440 841 411 814 q 469 924 469 868 l 358 924 l 358 1126 l 560 1126 l 560 947 q 517 797 560 850 q 390 732 475 743 z "},"ļ":{"ha":367,"x_min":82,"x_max":292,"o":"m 82 0 l 82 1125 l 292 1125 l 292 0 l 82 0 m 125 -474 l 103 -399 q 169 -370 142 -393 q 197 -292 197 -347 l 88 -292 l 88 -94 l 288 -94 l 286 -267 q 249 -417 286 -362 q 125 -474 213 -471 z "},"ŀ":{"ha":481,"x_min":82,"x_max":499,"o":"m 82 0 l 82 1125 l 292 1125 l 292 0 l 82 0 m 356 513 l 356 711 l 500 711 l 500 513 l 356 513 z "},"ǉ":{"ha":738,"x_min":82,"x_max":668,"o":"m 82 0 l 82 1125 l 292 1125 l 292 0 l 82 0 m 463 -240 q 405 -236 433 -240 q 351 -224 376 -232 l 351 -74 q 371 -76 360 -75 q 392 -78 382 -78 q 428 -70 414 -78 q 449 -46 442 -62 q 457 -4 457 -29 l 457 803 l 667 803 l 667 -29 q 615 -182 667 -124 q 463 -240 563 -240 m 457 935 l 457 1092 l 667 1092 l 667 935 l 457 935 z "},"ł":{"ha":444,"x_min":26,"x_max":431,"o":"m 121 0 l 121 575 l 26 535 l 26 658 l 121 700 l 121 1125 l 329 1125 l 329 789 l 431 835 l 431 711 l 329 667 l 329 0 l 121 0 z "},"m":{"ha":1024,"x_min":72,"x_max":958,"o":"m 72 0 l 72 803 l 276 803 l 276 736 q 367 799 319 781 q 465 818 415 818 q 549 794 514 818 q 601 721 585 769 q 700 796 649 774 q 806 818 751 818 q 885 796 850 818 q 939 731 919 774 q 958 625 958 688 l 958 0 l 754 0 l 754 604 q 741 659 754 643 q 701 675 728 675 q 661 665 685 675 q 617 638 638 656 q 617 632 617 635 q 617 625 617 629 l 617 0 l 415 0 l 415 604 q 401 659 415 643 q 361 675 388 675 q 320 665 343 675 q 276 638 297 656 l 276 0 l 72 0 z "},"ṁ":{"ha":1024,"x_min":72,"x_max":958,"o":"m 72 0 l 72 803 l 276 803 l 276 736 q 367 799 319 781 q 465 818 415 818 q 549 794 514 818 q 601 721 585 769 q 700 796 649 774 q 806 818 751 818 q 885 796 850 818 q 939 731 919 774 q 958 625 958 688 l 958 0 l 754 0 l 754 604 q 741 659 754 643 q 701 675 728 675 q 661 665 685 675 q 617 638 638 656 q 617 632 617 635 q 617 625 617 629 l 617 0 l 415 0 l 415 604 q 401 659 415 643 q 361 675 388 675 q 320 665 343 675 q 276 638 297 656 l 276 0 l 72 0 m 411 911 l 411 1115 l 611 1115 l 611 911 l 411 911 z "},"n":{"ha":685,"x_min":72,"x_max":618,"o":"m 72 0 l 72 803 l 282 803 l 282 722 q 373 791 325 765 q 475 817 421 817 q 556 792 525 817 q 603 726 588 767 q 618 633 618 685 l 618 0 l 410 0 l 410 599 q 399 649 410 632 q 360 665 389 665 q 323 656 343 665 q 282 632 303 647 l 282 0 l 72 0 z "},"ń":{"ha":685,"x_min":72,"x_max":618,"o":"m 72 0 l 72 803 l 282 803 l 282 722 q 373 791 325 765 q 475 817 421 817 q 556 792 525 817 q 603 726 588 767 q 618 633 618 685 l 618 0 l 410 0 l 410 599 q 399 649 410 632 q 360 665 389 665 q 323 656 343 665 q 282 632 303 647 l 282 0 l 72 0 m 276 888 l 363 1165 l 575 1165 l 404 888 l 276 888 z "},"ŉ":{"ha":788,"x_min":39,"x_max":739,"o":"m 71 864 l 54 935 q 119 973 90 946 q 149 1056 149 1000 l 39 1056 l 39 1258 l 240 1258 l 240 1079 q 197 928 239 982 q 71 864 156 874 m 194 0 l 194 803 l 404 803 l 404 722 q 495 791 447 765 q 597 817 543 817 q 678 792 647 817 q 725 726 710 767 q 740 633 740 685 l 740 0 l 532 0 l 532 599 q 522 649 532 632 q 482 665 511 665 q 445 656 465 665 q 404 632 425 647 l 404 0 l 194 0 z "},"ň":{"ha":685,"x_min":72,"x_max":618,"o":"m 72 0 l 72 803 l 282 803 l 282 722 q 373 791 325 765 q 475 817 421 817 q 556 792 525 817 q 603 726 588 767 q 618 633 618 685 l 618 0 l 410 0 l 410 599 q 399 649 410 632 q 360 665 389 665 q 323 656 343 665 q 282 632 303 647 l 282 0 l 72 0 m 242 888 l 119 1143 l 271 1143 l 343 988 l 415 1143 l 567 1143 l 444 888 l 242 888 z "},"ņ":{"ha":685,"x_min":72,"x_max":618,"o":"m 72 0 l 72 803 l 282 803 l 282 722 q 373 791 325 765 q 475 817 421 817 q 556 792 525 817 q 603 726 588 767 q 618 633 618 685 l 618 0 l 410 0 l 410 599 q 399 649 410 632 q 360 665 389 665 q 323 656 343 665 q 282 632 303 647 l 282 0 l 72 0 m 281 -474 l 258 -399 q 325 -370 297 -393 q 353 -292 353 -347 l 243 -292 l 243 -94 l 443 -94 l 442 -267 q 405 -417 442 -362 q 281 -474 368 -471 z "},"ŋ":{"ha":635,"x_min":58,"x_max":606,"o":"m 240 -268 l 240 -131 q 339 -119 306 -131 q 384 -81 372 -108 q 396 -7 396 -54 l 396 599 q 387 649 396 632 q 347 665 378 665 q 310 656 331 665 q 269 632 289 647 l 269 0 l 58 0 l 58 803 l 269 803 l 269 731 q 360 795 313 774 q 464 817 408 817 q 544 792 513 817 q 590 726 575 767 q 606 633 606 685 l 606 -8 q 577 -157 606 -100 q 484 -241 549 -214 q 314 -268 419 -268 l 240 -268 z "},"ǌ":{"ha":1056,"x_min":72,"x_max":985,"o":"m 72 0 l 72 803 l 282 803 l 282 722 q 373 791 325 765 q 475 817 421 817 q 556 792 525 817 q 603 726 588 767 q 618 633 618 685 l 618 0 l 410 0 l 410 599 q 399 649 410 632 q 360 665 389 665 q 323 656 343 665 q 282 632 303 647 l 282 0 l 72 0 m 781 -240 q 723 -236 751 -240 q 669 -224 694 -232 l 669 -74 q 689 -76 678 -75 q 710 -78 700 -78 q 746 -70 732 -78 q 767 -46 760 -62 q 775 -4 775 -29 l 775 803 l 985 803 l 985 -29 q 933 -182 985 -124 q 781 -240 881 -240 m 775 935 l 775 1092 l 985 1092 l 985 935 l 775 935 z "},"ñ":{"ha":685,"x_min":72,"x_max":618,"o":"m 72 0 l 72 803 l 282 803 l 282 722 q 373 791 325 765 q 475 817 421 817 q 556 792 525 817 q 603 726 588 767 q 618 633 618 685 l 618 0 l 410 0 l 410 599 q 399 649 410 632 q 360 665 389 665 q 323 656 343 665 q 282 632 303 647 l 282 0 l 72 0 m 454 938 q 389 954 418 938 q 333 987 360 971 q 279 1003 307 1003 q 240 987 250 1003 q 229 946 229 971 l 126 946 q 137 1042 126 1000 q 174 1109 147 1085 q 249 1133 201 1133 q 310 1118 283 1133 q 364 1087 338 1103 q 419 1071 390 1071 q 453 1085 443 1071 q 464 1125 464 1100 l 560 1125 q 553 1038 560 1081 q 524 966 547 994 q 454 938 501 938 z "},"o":{"ha":654,"x_min":56,"x_max":599,"o":"m 326 -14 q 179 17 240 -14 q 87 108 118 49 q 56 257 56 168 l 56 546 q 87 694 56 635 q 179 785 118 754 q 326 817 240 817 q 474 785 413 817 q 567 694 535 754 q 599 546 599 635 l 599 257 q 567 108 599 168 q 474 17 535 49 q 326 -14 413 -14 m 328 128 q 368 142 354 128 q 386 183 382 157 q 390 242 390 208 l 390 560 q 386 619 390 594 q 368 660 382 644 q 328 675 354 675 q 288 660 301 675 q 269 619 274 644 q 264 560 264 594 l 264 242 q 269 183 264 208 q 288 142 274 157 q 328 128 301 128 z "},"ó":{"ha":654,"x_min":56,"x_max":599,"o":"m 326 -14 q 179 17 240 -14 q 87 108 118 49 q 56 257 56 168 l 56 546 q 87 694 56 635 q 179 785 118 754 q 326 817 240 817 q 474 785 413 817 q 567 694 535 754 q 599 546 599 635 l 599 257 q 567 108 599 168 q 474 17 535 49 q 326 -14 413 -14 m 328 128 q 368 142 354 128 q 386 183 382 157 q 390 242 390 208 l 390 560 q 386 619 390 594 q 368 660 382 644 q 328 675 354 675 q 288 660 301 675 q 269 619 274 644 q 264 560 264 594 l 264 242 q 269 183 264 208 q 288 142 274 157 q 328 128 301 128 m 260 888 l 346 1165 l 558 1165 l 388 888 l 260 888 z "},"ŏ":{"ha":654,"x_min":56,"x_max":599,"o":"m 326 -14 q 179 17 240 -14 q 87 108 118 49 q 56 257 56 168 l 56 546 q 87 694 56 635 q 179 785 118 754 q 326 817 240 817 q 474 785 413 817 q 567 694 535 754 q 599 546 599 635 l 599 257 q 567 108 599 168 q 474 17 535 49 q 326 -14 413 -14 m 328 128 q 368 142 354 128 q 386 183 382 157 q 390 242 390 208 l 390 560 q 386 619 390 594 q 368 660 382 644 q 328 675 354 675 q 288 660 301 675 q 269 619 274 644 q 264 560 264 594 l 264 242 q 269 183 264 208 q 288 142 274 157 q 328 128 301 128 m 326 893 q 172 948 228 893 q 115 1103 115 1003 l 235 1103 q 256 1027 235 1053 q 326 1001 276 1001 q 397 1028 375 1001 q 418 1103 418 1054 l 536 1103 q 481 948 536 1003 q 326 893 425 893 z "},"ô":{"ha":654,"x_min":56,"x_max":599,"o":"m 326 -14 q 179 17 240 -14 q 87 108 118 49 q 56 257 56 168 l 56 546 q 87 694 56 635 q 179 785 118 754 q 326 817 240 817 q 474 785 413 817 q 567 694 535 754 q 599 546 599 635 l 599 257 q 567 108 599 168 q 474 17 535 49 q 326 -14 413 -14 m 328 128 q 368 142 354 128 q 386 183 382 157 q 390 242 390 208 l 390 560 q 386 619 390 594 q 368 660 382 644 q 328 675 354 675 q 288 660 301 675 q 269 619 274 644 q 264 560 264 594 l 264 242 q 269 183 264 208 q 288 142 274 157 q 328 128 301 128 m 107 897 l 236 1158 l 414 1158 l 546 897 l 392 897 l 325 1063 l 260 897 l 107 897 z "},"ố":{"ha":654,"x_min":56,"x_max":744,"o":"m 326 -14 q 179 17 240 -14 q 87 108 118 49 q 56 257 56 168 l 56 546 q 87 694 56 635 q 179 785 118 754 q 326 817 240 817 q 474 785 413 817 q 567 694 535 754 q 599 546 599 635 l 599 257 q 567 108 599 168 q 474 17 535 49 q 326 -14 413 -14 m 328 128 q 368 142 354 128 q 386 183 382 157 q 390 242 390 208 l 390 560 q 386 619 390 594 q 368 660 382 644 q 328 675 354 675 q 288 660 301 675 q 269 619 274 644 q 264 560 264 594 l 264 242 q 269 183 264 208 q 288 142 274 157 q 328 128 301 128 m 107 897 l 236 1125 l 414 1125 l 546 897 l 396 897 l 325 1036 l 256 897 l 107 897 m 511 1057 l 585 1225 l 744 1225 l 625 1057 l 511 1057 z "},"ộ":{"ha":654,"x_min":56,"x_max":599,"o":"m 326 -14 q 179 17 240 -14 q 87 108 118 49 q 56 257 56 168 l 56 546 q 87 694 56 635 q 179 785 118 754 q 326 817 240 817 q 474 785 413 817 q 567 694 535 754 q 599 546 599 635 l 599 257 q 567 108 599 168 q 474 17 535 49 q 326 -14 413 -14 m 328 128 q 368 142 354 128 q 386 183 382 157 q 390 242 390 208 l 390 560 q 386 619 390 594 q 368 660 382 644 q 328 675 354 675 q 288 660 301 675 q 269 619 274 644 q 264 560 264 594 l 264 242 q 269 183 264 208 q 288 142 274 157 q 328 128 301 128 m 235 -279 l 235 -96 l 421 -96 l 421 -279 l 235 -279 m 107 897 l 236 1125 l 414 1125 l 546 897 l 396 897 l 325 1036 l 256 897 l 107 897 z "},"ồ":{"ha":654,"x_min":56,"x_max":665,"o":"m 326 -14 q 179 17 240 -14 q 87 108 118 49 q 56 257 56 168 l 56 546 q 87 694 56 635 q 179 785 118 754 q 326 817 240 817 q 474 785 413 817 q 567 694 535 754 q 599 546 599 635 l 599 257 q 567 108 599 168 q 474 17 535 49 q 326 -14 413 -14 m 328 128 q 368 142 354 128 q 386 183 382 157 q 390 242 390 208 l 390 560 q 386 619 390 594 q 368 660 382 644 q 328 675 354 675 q 288 660 301 675 q 269 619 274 644 q 264 560 264 594 l 264 242 q 269 183 264 208 q 288 142 274 157 q 328 128 301 128 m 107 897 l 236 1125 l 414 1125 l 546 897 l 396 897 l 325 1036 l 256 897 l 107 897 m 550 1057 l 431 1225 l 592 1225 l 665 1057 l 550 1057 z "},"ổ":{"ha":654,"x_min":56,"x_max":690,"o":"m 326 -14 q 179 17 240 -14 q 87 108 118 49 q 56 257 56 168 l 56 546 q 87 694 56 635 q 179 785 118 754 q 326 817 240 817 q 474 785 413 817 q 567 694 535 754 q 599 546 599 635 l 599 257 q 567 108 599 168 q 474 17 535 49 q 326 -14 413 -14 m 328 128 q 368 142 354 128 q 386 183 382 157 q 390 242 390 208 l 390 560 q 386 619 390 594 q 368 660 382 644 q 328 675 354 675 q 288 660 301 675 q 269 619 274 644 q 264 560 264 594 l 264 242 q 269 183 264 208 q 288 142 274 157 q 328 128 301 128 m 564 1022 l 503 1088 q 543 1126 528 1107 q 558 1171 558 1144 q 540 1211 558 1197 q 493 1225 522 1225 q 455 1222 472 1225 q 424 1213 438 1218 l 424 1303 q 478 1318 451 1313 q 535 1324 506 1324 q 647 1290 603 1324 q 690 1189 690 1257 q 653 1086 690 1124 q 564 1022 615 1049 m 107 897 l 236 1125 l 414 1125 l 546 897 l 396 897 l 325 1036 l 256 897 l 107 897 z "},"ỗ":{"ha":654,"x_min":56,"x_max":599,"o":"m 326 -14 q 179 17 240 -14 q 87 108 118 49 q 56 257 56 168 l 56 546 q 87 694 56 635 q 179 785 118 754 q 326 817 240 817 q 474 785 413 817 q 567 694 535 754 q 599 546 599 635 l 599 257 q 567 108 599 168 q 474 17 535 49 q 326 -14 413 -14 m 328 128 q 368 142 354 128 q 386 183 382 157 q 390 242 390 208 l 390 560 q 386 619 390 594 q 368 660 382 644 q 328 675 354 675 q 288 660 301 675 q 269 619 274 644 q 264 560 264 594 l 264 242 q 269 183 264 208 q 288 142 274 157 q 328 128 301 128 m 107 897 l 236 1125 l 414 1125 l 546 897 l 396 897 l 325 1036 l 256 897 l 107 897 m 438 1193 q 372 1210 401 1193 q 317 1242 343 1226 q 263 1258 290 1258 q 223 1242 233 1258 q 213 1201 213 1226 l 110 1201 q 120 1298 110 1256 q 158 1365 131 1340 q 232 1389 185 1389 q 294 1374 267 1389 q 347 1342 321 1358 q 403 1326 374 1326 q 437 1341 426 1326 q 447 1381 447 1356 l 543 1381 q 537 1293 543 1336 q 508 1222 531 1250 q 438 1193 485 1193 z "},"ȍ":{"ha":654,"x_min":25,"x_max":599,"o":"m 326 -14 q 179 17 240 -14 q 87 108 118 49 q 56 257 56 168 l 56 546 q 87 694 56 635 q 179 785 118 754 q 326 817 240 817 q 474 785 413 817 q 567 694 535 754 q 599 546 599 635 l 599 257 q 567 108 599 168 q 474 17 535 49 q 326 -14 413 -14 m 328 128 q 368 142 354 128 q 386 183 382 157 q 390 242 390 208 l 390 560 q 386 619 390 594 q 368 660 382 644 q 328 675 354 675 q 288 660 301 675 q 269 619 274 644 q 264 560 264 594 l 264 242 q 269 183 264 208 q 288 142 274 157 q 328 128 301 128 m 167 886 l 25 1164 l 192 1164 l 279 886 l 167 886 m 396 886 l 274 1164 l 429 1164 l 506 886 l 396 886 z "},"ö":{"ha":654,"x_min":56,"x_max":599,"o":"m 326 -14 q 179 17 240 -14 q 87 108 118 49 q 56 257 56 168 l 56 546 q 87 694 56 635 q 179 785 118 754 q 326 817 240 817 q 474 785 413 817 q 567 694 535 754 q 599 546 599 635 l 599 257 q 567 108 599 168 q 474 17 535 49 q 326 -14 413 -14 m 328 128 q 368 142 354 128 q 386 183 382 157 q 390 242 390 208 l 390 560 q 386 619 390 594 q 368 660 382 644 q 328 675 354 675 q 288 660 301 675 q 269 619 274 644 q 264 560 264 594 l 264 242 q 269 183 264 208 q 288 142 274 157 q 328 128 301 128 m 383 931 l 383 1125 l 558 1125 l 558 931 l 383 931 m 94 931 l 94 1125 l 269 1125 l 269 931 l 94 931 z "},"ȫ":{"ha":654,"x_min":56,"x_max":599,"o":"m 326 -14 q 179 17 240 -14 q 87 108 118 49 q 56 257 56 168 l 56 546 q 87 694 56 635 q 179 785 118 754 q 326 817 240 817 q 474 785 413 817 q 567 694 535 754 q 599 546 599 635 l 599 257 q 567 108 599 168 q 474 17 535 49 q 326 -14 413 -14 m 328 128 q 368 142 354 128 q 386 183 382 157 q 390 242 390 208 l 390 560 q 386 619 390 594 q 368 660 382 644 q 328 675 354 675 q 288 660 301 675 q 269 619 274 644 q 264 560 264 594 l 264 242 q 269 183 264 208 q 288 142 274 157 q 328 128 301 128 m 383 931 l 383 1125 l 558 1125 l 558 931 l 383 931 m 94 931 l 94 1125 l 269 1125 l 269 931 l 94 931 m 147 1253 l 147 1356 l 506 1356 l 506 1253 l 147 1253 z "},"ȱ":{"ha":654,"x_min":56,"x_max":599,"o":"m 326 -14 q 179 17 240 -14 q 87 108 118 49 q 56 257 56 168 l 56 546 q 87 694 56 635 q 179 785 118 754 q 326 817 240 817 q 474 785 413 817 q 567 694 535 754 q 599 546 599 635 l 599 257 q 567 108 599 168 q 474 17 535 49 q 326 -14 413 -14 m 328 128 q 368 142 354 128 q 386 183 382 157 q 390 242 390 208 l 390 560 q 386 619 390 594 q 368 660 382 644 q 328 675 354 675 q 288 660 301 675 q 269 619 274 644 q 264 560 264 594 l 264 242 q 269 183 264 208 q 288 142 274 157 q 328 128 301 128 m 226 911 l 226 1115 l 426 1115 l 426 911 l 226 911 m 147 1243 l 147 1346 l 506 1346 l 506 1243 l 147 1243 z "},"ọ":{"ha":654,"x_min":56,"x_max":599,"o":"m 326 -14 q 179 17 240 -14 q 87 108 118 49 q 56 257 56 168 l 56 546 q 87 694 56 635 q 179 785 118 754 q 326 817 240 817 q 474 785 413 817 q 567 694 535 754 q 599 546 599 635 l 599 257 q 567 108 599 168 q 474 17 535 49 q 326 -14 413 -14 m 328 128 q 368 142 354 128 q 386 183 382 157 q 390 242 390 208 l 390 560 q 386 619 390 594 q 368 660 382 644 q 328 675 354 675 q 288 660 301 675 q 269 619 274 644 q 264 560 264 594 l 264 242 q 269 183 264 208 q 288 142 274 157 q 328 128 301 128 m 235 -279 l 235 -96 l 421 -96 l 421 -279 l 235 -279 z "},"ò":{"ha":654,"x_min":56,"x_max":599,"o":"m 326 -14 q 179 17 240 -14 q 87 108 118 49 q 56 257 56 168 l 56 546 q 87 694 56 635 q 179 785 118 754 q 326 817 240 817 q 474 785 413 817 q 567 694 535 754 q 599 546 599 635 l 599 257 q 567 108 599 168 q 474 17 535 49 q 326 -14 413 -14 m 328 128 q 368 142 354 128 q 386 183 382 157 q 390 242 390 208 l 390 560 q 386 619 390 594 q 368 660 382 644 q 328 675 354 675 q 288 660 301 675 q 269 619 274 644 q 264 560 264 594 l 264 242 q 269 183 264 208 q 288 142 274 157 q 328 128 301 128 m 267 888 l 94 1165 l 310 1165 l 393 888 l 267 888 z "},"ỏ":{"ha":654,"x_min":56,"x_max":599,"o":"m 326 -14 q 179 17 240 -14 q 87 108 118 49 q 56 257 56 168 l 56 546 q 87 694 56 635 q 179 785 118 754 q 326 817 240 817 q 474 785 413 817 q 567 694 535 754 q 599 546 599 635 l 599 257 q 567 108 599 168 q 474 17 535 49 q 326 -14 413 -14 m 328 128 q 368 142 354 128 q 386 183 382 157 q 390 242 390 208 l 390 560 q 386 619 390 594 q 368 660 382 644 q 328 675 354 675 q 288 660 301 675 q 269 619 274 644 q 264 560 264 594 l 264 242 q 269 183 264 208 q 288 142 274 157 q 328 128 301 128 m 326 874 l 257 942 q 326 980 297 961 q 354 1029 354 999 q 332 1068 354 1057 q 274 1079 310 1079 q 231 1076 253 1079 q 192 1069 210 1074 l 192 1160 q 326 1176 256 1176 q 409 1163 371 1176 q 470 1121 447 1150 q 493 1043 493 1092 q 470 964 493 996 q 410 911 447 932 q 326 874 372 890 z "},"ơ":{"ha":654,"x_min":56,"x_max":599,"o":"m 326 -14 q 179 17 240 -14 q 87 108 118 49 q 56 257 56 168 l 56 546 q 87 694 56 635 q 179 785 118 754 q 326 817 240 817 q 474 785 413 817 q 567 694 535 754 q 599 546 599 635 l 599 257 q 567 108 599 168 q 474 17 535 49 q 326 -14 413 -14 m 328 128 q 368 142 354 128 q 386 183 382 157 q 390 242 390 208 l 390 560 q 386 619 390 594 q 368 660 382 644 q 328 675 354 675 q 288 660 301 675 q 269 619 274 644 q 264 560 264 594 l 264 242 q 269 183 264 208 q 288 142 274 157 q 328 128 301 128 m 360 715 l 360 803 l 374 803 q 432 832 415 803 q 449 918 449 861 l 597 918 q 536 766 597 817 q 374 715 475 715 l 360 715 z "},"ớ":{"ha":654,"x_min":56,"x_max":599,"o":"m 326 -14 q 179 17 240 -14 q 87 108 118 49 q 56 257 56 168 l 56 546 q 87 694 56 635 q 179 785 118 754 q 326 817 240 817 q 474 785 413 817 q 567 694 535 754 q 599 546 599 635 l 599 257 q 567 108 599 168 q 474 17 535 49 q 326 -14 413 -14 m 328 128 q 368 142 354 128 q 386 183 382 157 q 390 242 390 208 l 390 560 q 386 619 390 594 q 368 660 382 644 q 328 675 354 675 q 288 660 301 675 q 269 619 274 644 q 264 560 264 594 l 264 242 q 269 183 264 208 q 288 142 274 157 q 328 128 301 128 m 360 715 l 360 803 l 374 803 q 432 832 415 803 q 449 918 449 861 l 597 918 q 536 766 597 817 q 374 715 475 715 l 360 715 m 260 921 l 346 1199 l 558 1199 l 388 921 l 260 921 z "},"ợ":{"ha":654,"x_min":56,"x_max":599,"o":"m 326 -14 q 179 17 240 -14 q 87 108 118 49 q 56 257 56 168 l 56 546 q 87 694 56 635 q 179 785 118 754 q 326 817 240 817 q 474 785 413 817 q 567 694 535 754 q 599 546 599 635 l 599 257 q 567 108 599 168 q 474 17 535 49 q 326 -14 413 -14 m 328 128 q 368 142 354 128 q 386 183 382 157 q 390 242 390 208 l 390 560 q 386 619 390 594 q 368 660 382 644 q 328 675 354 675 q 288 660 301 675 q 269 619 274 644 q 264 560 264 594 l 264 242 q 269 183 264 208 q 288 142 274 157 q 328 128 301 128 m 360 715 l 360 803 l 374 803 q 432 832 415 803 q 449 918 449 861 l 597 918 q 536 766 597 817 q 374 715 475 715 l 360 715 m 233 -279 l 233 -96 l 419 -96 l 419 -279 l 233 -279 z "},"ờ":{"ha":654,"x_min":56,"x_max":599,"o":"m 326 -14 q 179 17 240 -14 q 87 108 118 49 q 56 257 56 168 l 56 546 q 87 694 56 635 q 179 785 118 754 q 326 817 240 817 q 474 785 413 817 q 567 694 535 754 q 599 546 599 635 l 599 257 q 567 108 599 168 q 474 17 535 49 q 326 -14 413 -14 m 328 128 q 368 142 354 128 q 386 183 382 157 q 390 242 390 208 l 390 560 q 386 619 390 594 q 368 660 382 644 q 328 675 354 675 q 288 660 301 675 q 269 619 274 644 q 264 560 264 594 l 264 242 q 269 183 264 208 q 288 142 274 157 q 328 128 301 128 m 360 715 l 360 803 l 374 803 q 432 832 415 803 q 449 918 449 861 l 597 918 q 536 766 597 817 q 374 715 475 715 l 360 715 m 267 921 l 94 1199 l 310 1199 l 393 921 l 267 921 z "},"ở":{"ha":654,"x_min":56,"x_max":599,"o":"m 326 -14 q 179 17 240 -14 q 87 108 118 49 q 56 257 56 168 l 56 546 q 87 694 56 635 q 179 785 118 754 q 326 817 240 817 q 474 785 413 817 q 567 694 535 754 q 599 546 599 635 l 599 257 q 567 108 599 168 q 474 17 535 49 q 326 -14 413 -14 m 328 128 q 368 142 354 128 q 386 183 382 157 q 390 242 390 208 l 390 560 q 386 619 390 594 q 368 660 382 644 q 328 675 354 675 q 288 660 301 675 q 269 619 274 644 q 264 560 264 594 l 264 242 q 269 183 264 208 q 288 142 274 157 q 328 128 301 128 m 360 715 l 360 803 l 374 803 q 432 832 415 803 q 449 918 449 861 l 597 918 q 536 766 597 817 q 374 715 475 715 l 360 715 m 326 907 l 257 975 q 326 1013 297 994 q 354 1063 354 1032 q 332 1101 354 1090 q 274 1113 310 1113 q 231 1110 253 1113 q 192 1103 210 1107 l 192 1193 q 326 1210 256 1210 q 409 1197 371 1210 q 470 1154 447 1183 q 493 1076 493 1125 q 470 997 493 1029 q 410 944 447 965 q 326 907 372 924 z "},"ỡ":{"ha":654,"x_min":56,"x_max":599,"o":"m 326 -14 q 179 17 240 -14 q 87 108 118 49 q 56 257 56 168 l 56 546 q 87 694 56 635 q 179 785 118 754 q 326 817 240 817 q 474 785 413 817 q 567 694 535 754 q 599 546 599 635 l 599 257 q 567 108 599 168 q 474 17 535 49 q 326 -14 413 -14 m 328 128 q 368 142 354 128 q 386 183 382 157 q 390 242 390 208 l 390 560 q 386 619 390 594 q 368 660 382 644 q 328 675 354 675 q 288 660 301 675 q 269 619 274 644 q 264 560 264 594 l 264 242 q 269 183 264 208 q 288 142 274 157 q 328 128 301 128 m 360 715 l 360 803 l 374 803 q 432 832 415 803 q 449 918 449 861 l 597 918 q 536 766 597 817 q 374 715 475 715 l 360 715 m 438 971 q 372 988 401 971 q 317 1020 343 1004 q 263 1036 290 1036 q 223 1020 233 1036 q 213 979 213 1004 l 110 979 q 120 1076 110 1033 q 158 1142 131 1118 q 232 1167 185 1167 q 294 1151 267 1167 q 347 1120 321 1136 q 403 1104 374 1104 q 437 1119 426 1104 q 447 1158 447 1133 l 543 1158 q 537 1071 543 1114 q 508 999 531 1028 q 438 971 485 971 z "},"ő":{"ha":654,"x_min":56,"x_max":657,"o":"m 326 -14 q 179 17 240 -14 q 87 108 118 49 q 56 257 56 168 l 56 546 q 87 694 56 635 q 179 785 118 754 q 326 817 240 817 q 474 785 413 817 q 567 694 535 754 q 599 546 599 635 l 599 257 q 567 108 599 168 q 474 17 535 49 q 326 -14 413 -14 m 328 128 q 368 142 354 128 q 386 183 382 157 q 390 242 390 208 l 390 560 q 386 619 390 594 q 368 660 382 644 q 328 675 354 675 q 288 660 301 675 q 269 619 274 644 q 264 560 264 594 l 264 242 q 269 183 264 208 q 288 142 274 157 q 328 128 301 128 m 385 881 l 471 1168 l 656 1168 l 492 881 l 385 881 m 153 881 l 229 1168 l 400 1168 l 260 881 l 153 881 z "},"ȏ":{"ha":654,"x_min":56,"x_max":599,"o":"m 326 -14 q 179 17 240 -14 q 87 108 118 49 q 56 257 56 168 l 56 546 q 87 694 56 635 q 179 785 118 754 q 326 817 240 817 q 474 785 413 817 q 567 694 535 754 q 599 546 599 635 l 599 257 q 567 108 599 168 q 474 17 535 49 q 326 -14 413 -14 m 328 128 q 368 142 354 128 q 386 183 382 157 q 390 242 390 208 l 390 560 q 386 619 390 594 q 368 660 382 644 q 328 675 354 675 q 288 660 301 675 q 269 619 274 644 q 264 560 264 594 l 264 242 q 269 183 264 208 q 288 142 274 157 q 328 128 301 128 m 115 906 q 140 1022 117 974 q 211 1097 164 1071 q 326 1122 258 1122 q 442 1097 396 1122 q 513 1022 489 1071 q 538 906 538 974 l 418 906 q 397 988 418 961 q 326 1014 376 1014 q 256 988 278 1014 q 235 906 235 963 l 115 906 z "},"ō":{"ha":654,"x_min":56,"x_max":599,"o":"m 326 -14 q 179 17 240 -14 q 87 108 118 49 q 56 257 56 168 l 56 546 q 87 694 56 635 q 179 785 118 754 q 326 817 240 817 q 474 785 413 817 q 567 694 535 754 q 599 546 599 635 l 599 257 q 567 108 599 168 q 474 17 535 49 q 326 -14 413 -14 m 328 128 q 368 142 354 128 q 386 183 382 157 q 390 242 390 208 l 390 560 q 386 619 390 594 q 368 660 382 644 q 328 675 354 675 q 288 660 301 675 q 269 619 274 644 q 264 560 264 594 l 264 242 q 269 183 264 208 q 288 142 274 157 q 328 128 301 128 m 147 931 l 147 1033 l 506 1033 l 506 931 l 147 931 z "},"ǫ":{"ha":654,"x_min":56,"x_max":599,"o":"m 326 -14 q 179 17 240 -14 q 87 108 118 49 q 56 257 56 168 l 56 546 q 87 694 56 635 q 179 785 118 754 q 326 817 240 817 q 474 785 413 817 q 567 694 535 754 q 599 546 599 635 l 599 257 q 567 108 599 168 q 474 17 535 49 q 326 -14 413 -14 m 328 128 q 368 142 354 128 q 386 183 382 157 q 390 242 390 208 l 390 560 q 386 619 390 594 q 368 660 382 644 q 328 675 354 675 q 288 660 301 675 q 269 619 274 644 q 264 560 264 594 l 264 242 q 269 183 264 208 q 288 142 274 157 q 328 128 301 128 m 429 -349 q 356 -344 393 -349 q 286 -324 318 -339 q 234 -281 254 -310 q 214 -206 214 -253 q 231 -126 214 -167 q 276 -52 249 -86 q 332 4 303 -18 l 428 4 q 397 -48 413 -19 q 373 -106 382 -76 q 364 -167 364 -136 q 393 -228 364 -212 q 457 -244 422 -244 q 479 -244 468 -244 q 499 -242 490 -243 l 475 -344 q 454 -347 467 -346 q 429 -349 442 -349 z "},"ø":{"ha":647,"x_min":56,"x_max":599,"o":"m 142 -125 l 92 -104 l 499 933 l 553 913 l 142 -125 m 326 -14 q 179 17 240 -14 q 87 108 118 49 q 56 257 56 168 l 56 546 q 87 694 56 635 q 179 785 118 754 q 326 817 240 817 q 474 785 413 817 q 567 694 535 754 q 599 546 599 635 l 599 257 q 567 108 599 168 q 474 17 535 49 q 326 -14 413 -14 m 328 128 q 368 142 354 128 q 386 183 382 157 q 390 242 390 208 l 390 560 q 386 619 390 594 q 368 660 382 644 q 328 675 354 675 q 288 660 301 675 q 269 619 274 644 q 264 560 264 594 l 264 242 q 269 183 264 208 q 288 142 274 157 q 328 128 301 128 z "},"ǿ":{"ha":647,"x_min":56,"x_max":599,"o":"m 142 -125 l 92 -104 l 499 933 l 553 913 l 142 -125 m 326 -14 q 179 17 240 -14 q 87 108 118 49 q 56 257 56 168 l 56 546 q 87 694 56 635 q 179 785 118 754 q 326 817 240 817 q 474 785 413 817 q 567 694 535 754 q 599 546 599 635 l 599 257 q 567 108 599 168 q 474 17 535 49 q 326 -14 413 -14 m 328 128 q 368 142 354 128 q 386 183 382 157 q 390 242 390 208 l 390 560 q 386 619 390 594 q 368 660 382 644 q 328 675 354 675 q 288 660 301 675 q 269 619 274 644 q 264 560 264 594 l 264 242 q 269 183 264 208 q 288 142 274 157 q 328 128 301 128 m 257 888 l 343 1165 l 556 1165 l 385 888 l 257 888 z "},"õ":{"ha":654,"x_min":56,"x_max":599,"o":"m 326 -14 q 179 17 240 -14 q 87 108 118 49 q 56 257 56 168 l 56 546 q 87 694 56 635 q 179 785 118 754 q 326 817 240 817 q 474 785 413 817 q 567 694 535 754 q 599 546 599 635 l 599 257 q 567 108 599 168 q 474 17 535 49 q 326 -14 413 -14 m 328 128 q 368 142 354 128 q 386 183 382 157 q 390 242 390 208 l 390 560 q 386 619 390 594 q 368 660 382 644 q 328 675 354 675 q 288 660 301 675 q 269 619 274 644 q 264 560 264 594 l 264 242 q 269 183 264 208 q 288 142 274 157 q 328 128 301 128 m 438 938 q 372 954 401 938 q 317 987 343 971 q 263 1003 290 1003 q 223 987 233 1003 q 213 946 213 971 l 110 946 q 120 1042 110 1000 q 158 1109 131 1085 q 232 1133 185 1133 q 294 1118 267 1133 q 347 1087 321 1103 q 403 1071 374 1071 q 437 1085 426 1071 q 447 1125 447 1100 l 543 1125 q 537 1038 543 1081 q 508 966 531 994 q 438 938 485 938 z "},"ȭ":{"ha":654,"x_min":56,"x_max":599,"o":"m 326 -14 q 179 17 240 -14 q 87 108 118 49 q 56 257 56 168 l 56 546 q 87 694 56 635 q 179 785 118 754 q 326 817 240 817 q 474 785 413 817 q 567 694 535 754 q 599 546 599 635 l 599 257 q 567 108 599 168 q 474 17 535 49 q 326 -14 413 -14 m 328 128 q 368 142 354 128 q 386 183 382 157 q 390 242 390 208 l 390 560 q 386 619 390 594 q 368 660 382 644 q 328 675 354 675 q 288 660 301 675 q 269 619 274 644 q 264 560 264 594 l 264 242 q 269 183 264 208 q 288 142 274 157 q 328 128 301 128 m 438 938 q 372 954 401 938 q 317 987 343 971 q 263 1003 290 1003 q 223 987 233 1003 q 213 946 213 971 l 110 946 q 120 1042 110 1000 q 158 1109 131 1085 q 232 1133 185 1133 q 294 1118 267 1133 q 347 1087 321 1103 q 403 1071 374 1071 q 437 1085 426 1071 q 447 1125 447 1100 l 543 1125 q 537 1038 543 1081 q 508 966 531 994 q 438 938 485 938 m 147 1261 l 147 1364 l 506 1364 l 506 1261 l 147 1261 z "},"œ":{"ha":974,"x_min":61,"x_max":918,"o":"m 297 -17 q 174 13 228 -17 q 91 102 121 43 q 61 250 61 161 l 61 576 q 90 718 61 661 q 174 803 119 775 q 306 832 229 832 q 383 820 344 832 q 451 786 421 808 q 494 731 482 764 q 540 787 510 764 q 609 821 571 810 q 683 832 647 832 q 824 795 772 832 q 897 692 875 758 q 918 538 918 626 l 918 390 l 608 390 l 608 267 q 613 194 608 226 q 630 141 617 161 q 668 121 643 121 q 708 144 696 121 q 719 213 719 168 l 719 307 l 918 307 l 918 214 q 860 44 918 104 q 690 -17 803 -17 q 564 10 615 -17 q 490 83 513 38 q 422 12 468 40 q 297 -17 375 -17 m 326 121 q 364 134 350 121 q 384 174 378 147 q 390 244 390 201 l 390 585 q 385 644 390 619 q 366 683 379 669 q 329 696 353 696 q 293 683 307 696 q 274 646 279 671 q 268 585 268 621 l 268 246 q 273 182 268 210 q 291 138 278 154 q 326 121 304 121 m 608 500 l 721 500 l 721 597 q 715 648 721 625 q 697 683 710 671 q 664 696 685 696 q 633 684 644 696 q 615 650 621 672 q 608 597 608 628 l 608 500 z "},"p":{"ha":683,"x_min":72,"x_max":625,"o":"m 72 -264 l 72 803 l 282 803 l 282 743 q 363 797 319 778 q 451 817 407 817 q 533 795 500 817 q 588 738 567 774 q 617 657 608 701 q 625 567 625 613 l 625 253 q 606 115 625 175 q 547 21 586 56 q 444 -14 507 -14 q 360 7 401 -14 q 282 61 319 28 l 282 -264 l 72 -264 m 351 126 q 391 142 378 126 q 410 185 404 158 q 415 243 415 211 l 415 579 q 410 632 415 608 q 390 670 404 656 q 353 685 376 685 q 315 676 333 685 q 282 653 297 667 l 282 150 q 315 133 299 139 q 351 126 332 126 z "},"ṗ":{"ha":683,"x_min":72,"x_max":625,"o":"m 72 -264 l 72 803 l 282 803 l 282 743 q 363 797 319 778 q 451 817 407 817 q 533 795 500 817 q 588 738 567 774 q 617 657 608 701 q 625 567 625 613 l 625 253 q 606 115 625 175 q 547 21 586 56 q 444 -14 507 -14 q 360 7 401 -14 q 282 61 319 28 l 282 -264 l 72 -264 m 351 126 q 391 142 378 126 q 410 185 404 158 q 415 243 415 211 l 415 579 q 410 632 415 608 q 390 670 404 656 q 353 685 376 685 q 315 676 333 685 q 282 653 297 667 l 282 150 q 315 133 299 139 q 351 126 332 126 m 242 911 l 242 1115 l 442 1115 l 442 911 l 242 911 z "},"þ":{"ha":672,"x_min":67,"x_max":619,"o":"m 67 -264 l 67 1125 l 276 1125 l 276 743 q 358 797 315 778 q 446 817 401 817 q 528 795 494 817 q 581 738 561 774 q 610 657 601 701 q 619 567 619 613 l 619 253 q 600 115 619 175 q 540 21 581 56 q 439 -14 500 -14 q 355 7 396 -14 q 276 60 314 28 l 276 -264 l 67 -264 m 346 126 q 384 142 371 126 q 403 185 397 158 q 408 243 408 211 l 408 579 q 403 632 408 608 q 384 670 397 656 q 346 685 371 685 q 310 676 328 685 q 276 653 293 668 l 276 150 q 309 133 292 139 q 346 126 326 126 z "},"q":{"ha":682,"x_min":58,"x_max":613,"o":"m 403 -264 l 403 64 q 328 7 367 28 q 249 -14 290 -14 q 107 51 156 -14 q 58 251 58 117 l 58 546 q 78 685 58 624 q 140 781 99 746 q 247 817 182 817 q 331 799 292 817 q 403 749 369 781 l 403 803 l 613 803 l 613 -264 l 403 -264 m 335 125 q 367 132 349 125 q 403 149 385 139 l 403 657 q 370 674 388 668 q 336 681 353 681 q 285 650 300 681 q 269 576 269 619 l 269 238 q 276 180 269 206 q 296 140 282 154 q 335 125 310 125 z "}}}
